<svg xmlns="http://www.w3.org/2000/svg" width="1254" height="1254" viewBox="0 0 1254 1254" version="1.1">
	<path d="M 378.433 48.710 C 373.141 54.002, 370.904 67.542, 370.291 98 C 369.609 131.926, 372.034 150.188, 378.017 156.171 C 380.780 158.934, 381.104 159, 391.858 159 C 397.914 159, 404.049 158.552, 405.489 158.004 C 410.248 156.195, 413.429 145.602, 414.800 127 L 415.500 117.500 420.612 117.203 L 425.724 116.905 426.212 123.703 C 426.517 127.947, 427.541 132.147, 428.939 134.885 C 431.685 140.263, 430.759 148.841, 423.452 185.688 C 417.268 216.873, 416.455 226.480, 417.675 254 C 418.609 275.077, 418.833 276.816, 421.213 281.500 C 422.610 284.250, 424.912 291.675, 426.329 298 C 429.778 313.398, 429.709 312.972, 432.009 333.348 C 435.107 360.799, 437.786 372.084, 444.689 386.764 C 447.952 393.704, 450.313 397.420, 465.169 419 C 478.942 439.007, 483.046 447.350, 484.603 458.500 C 489.110 490.791, 499.239 520.226, 514.162 544.402 L 517.309 549.500 516.140 598 C 515.496 624.675, 514.972 652.575, 514.974 660 C 514.980 680.581, 515.050 680.371, 507.129 683.519 C 485.449 692.135, 459.450 711.300, 453.569 723 C 452.325 725.475, 449.476 730.875, 447.239 735 C 441.303 745.944, 439.230 753.958, 437.371 773.136 C 436.115 786.104, 435.953 792.287, 436.687 799.308 C 437.539 807.466, 437.389 809.625, 435.353 818.500 C 430.680 838.869, 429.534 848.663, 429.557 868 C 429.581 888.181, 430.098 892.320, 437.557 932 C 442.691 959.315, 445.407 977.384, 447.074 995.307 L 448.264 1008.115 445.617 1010.878 C 443.831 1012.742, 442.606 1015.571, 441.852 1019.571 C 441.237 1022.832, 439.724 1027.525, 438.490 1030 C 437.256 1032.475, 434.778 1039, 432.983 1044.500 C 428.342 1058.720, 425.125 1064.575, 416.553 1074.407 C 407.356 1084.955, 405.174 1089.076, 403.398 1099.250 C 401.080 1112.523, 403.820 1118.456, 413.500 1121.129 C 443.898 1129.521, 476.824 1123.234, 480.422 1108.350 C 483.091 1097.307, 482.204 1098.348, 493.558 1092.926 C 510.161 1084.997, 511.180 1082.284, 508.171 1054 C 506.701 1040.173, 502.510 1018.887, 500.489 1014.979 C 499.687 1013.427, 497.605 1011.143, 495.864 1009.903 L 492.698 1007.648 493.326 990.074 C 494.509 956.970, 498.555 932.913, 505.441 918.027 C 517.329 892.330, 518.468 874.102, 510.351 839.516 L 506.834 824.533 508.658 819.168 C 511.334 811.294, 518.189 808.344, 529.468 810.213 L 535.891 811.278 536.524 816.889 C 538.275 832.394, 544.299 836.930, 565.250 838.517 L 574 839.180 574 845.590 C 574 855.405, 574.943 856, 590.500 856 L 603 856 603 893.500 L 603 931 583 931 C 564.333 931, 562.867 930.867, 561 929 C 559.283 927.283, 557.667 927, 549.565 927 C 533.080 927, 531.058 929.480, 531.022 949.750 C 530.993 966.016, 530.978 966, 545.865 966 C 555.216 966, 557.085 965.721, 559.273 964 C 561.628 962.147, 563.330 962, 582.408 962 L 603 962 603 984.875 L 603 1007.750 599.875 1008.375 C 592.806 1009.789, 556.309 1009.077, 555 1007.500 C 553.539 1005.739, 531.176 1005.300, 528.055 1006.971 C 524.296 1008.982, 523 1015.111, 523 1030.865 C 523 1049.844, 522.245 1049, 539.206 1049 C 549.141 1049, 552.014 1048.688, 553 1047.500 C 554.085 1046.192, 563.459 1046, 626.194 1046 C 688.815 1046, 698.337 1046.194, 699.643 1047.500 C 702.193 1050.050, 725.359 1049.641, 728 1047 C 732.359 1042.641, 730.356 1013.366, 725.319 1007.800 C 723.096 1005.343, 700.049 1005.094, 697.643 1007.500 C 696.092 1009.051, 657.549 1009.790, 652.250 1008.370 C 650 1007.767, 650 1007.762, 650 985.076 L 650 962.385 670.015 962.131 C 688.920 961.892, 690.174 961.992, 692.649 963.939 C 696.977 967.343, 715.093 966.998, 718.647 963.444 C 721.158 960.933, 721.196 960.676, 720.815 948.694 C 720.384 935.157, 718.279 928.843, 713.795 927.642 C 707.999 926.090, 693.329 926.953, 690.727 929 C 688.386 930.841, 686.670 931, 669.092 931 L 650 931 650 893.500 L 650 856 661.845 856 C 676.382 856, 677 855.582, 677 845.761 L 677 839.180 685.750 838.504 C 706.168 836.928, 712.296 832.340, 713.673 817.602 L 714.262 811.287 719.836 810.277 C 726.605 809.050, 735.368 811.099, 737.527 814.413 C 741.338 820.264, 741.464 824.823, 738.195 838.521 C 729.776 873.801, 730.761 892.285, 742.417 917.714 C 749.916 934.073, 753.710 956.270, 754.687 989.500 L 755.245 1008.500 752.244 1010.235 C 750.593 1011.189, 748.478 1013.580, 747.544 1015.548 C 745.063 1020.777, 741.288 1039.706, 739.974 1053.500 C 739.346 1060.100, 738.588 1067.874, 738.290 1070.776 C 737.153 1081.841, 741.029 1086.838, 756.147 1093.796 C 765.011 1097.875, 765.309 1098.204, 766.559 1105.255 C 769.207 1120.196, 791.841 1128.046, 820.500 1123.963 C 837.696 1121.514, 843.933 1117.775, 844.729 1109.441 C 845.827 1097.938, 841.535 1086.205, 832.497 1076 C 823.209 1065.513, 819.557 1059.085, 815.044 1045.278 C 812.756 1038.277, 810.050 1031.188, 809.030 1029.524 C 808.010 1027.861, 806.854 1024.250, 806.460 1021.500 C 805.653 1015.861, 804.652 1013.491, 801.717 1010.267 C 799.754 1008.112, 799.724 1007.560, 800.845 994.267 C 802.384 976.029, 805.021 958.482, 810.505 930 C 817.381 894.287, 818.286 885.810, 817.710 862.500 C 817.226 842.906, 815.542 829.769, 811.493 814 C 810.418 809.815, 810.293 806.467, 810.972 800 C 813.377 777.070, 807.834 744.870, 799.114 731.126 C 797.500 728.582, 795.462 724.751, 794.584 722.614 C 790.219 711.984, 761.321 690.774, 740.365 682.821 L 736.230 681.251 735.626 659.876 C 735.294 648.119, 734.743 618.590, 734.402 594.256 L 733.783 550.011 739.279 540.256 C 755.353 511.725, 763.114 489.560, 767.466 459.756 C 769.478 445.972, 774.396 436.929, 796.428 406.500 C 810.600 386.927, 816.825 368.554, 820.483 335.500 C 823.390 309.233, 827.046 292.253, 831.650 283.636 C 833.487 280.198, 834.359 276.828, 834.627 272.136 C 834.835 268.486, 835.505 258.750, 836.116 250.500 C 837.411 233.020, 836.328 217.201, 832.418 196.500 C 823.942 151.620, 823.099 142.910, 826.423 134.601 C 827.879 130.960, 829 126.168, 829 123.579 L 829 119 834.396 119 L 839.792 119 840.493 127.250 C 842.120 146.405, 844.889 156.800, 848.945 158.970 C 851.450 160.311, 873.555 160.308, 876.062 158.967 C 879.129 157.325, 881.843 150.865, 883.689 140.810 C 886.148 127.415, 886.198 80.421, 883.767 67.458 C 880.301 48.969, 879.228 48, 862.232 48 C 850.579 48, 849.779 48.130, 847.524 50.385 C 843.877 54.032, 841.646 63.954, 840.398 82.071 L 839.714 92 832.468 92 L 825.223 92 824.589 88.622 C 823.624 83.480, 819.872 79.999, 815.298 80.003 C 813.209 80.004, 809.602 79, 807.282 77.771 C 803.692 75.870, 802.616 75.706, 800.056 76.673 C 797.573 77.610, 796.423 77.490, 793.476 75.988 C 789.831 74.129, 785.496 74.514, 782.553 76.956 C 781.669 77.689, 780.412 77.553, 778.290 76.495 C 772.462 73.587, 764.923 77.815, 763.431 84.827 C 761.994 91.575, 761.496 92, 755.021 92 L 749 92 748.974 84.750 C 748.907 65.972, 745.993 51.137, 741.945 48.971 C 740.948 48.437, 734.667 48, 727.989 48 C 713.070 48, 711.406 49.076, 708.647 60.505 C 703.660 81.167, 703.576 130.082, 708.496 148.957 C 711.155 159.160, 711.663 159.457, 727.009 159.780 C 745.548 160.171, 745.987 159.640, 748.035 134.309 C 748.605 127.264, 749.167 120.862, 749.285 120.082 C 749.416 119.217, 750.958 118.545, 753.243 118.358 C 756.698 118.075, 757.137 118.348, 758.957 121.916 C 760.122 124.199, 764.730 128.964, 770.214 133.558 C 781.671 143.153, 781.294 141.786, 780.699 171.500 C 780.245 194.189, 780.189 194.689, 776.518 208.500 C 769.767 233.897, 768.530 248.388, 771.534 266.909 L 773.060 276.317 767.024 282.409 C 752.608 296.959, 740.736 321.677, 736.899 345.130 L 735.650 352.760 726.613 357.130 C 721.642 359.533, 714.794 363.583, 711.396 366.128 L 705.216 370.756 704.557 362.128 C 703.556 349.020, 701.507 343.420, 695.508 337.398 C 692.713 334.592, 688.755 331.744, 686.713 331.070 C 683.041 329.859, 683 329.785, 683 324.470 C 683 318.334, 681.614 314.585, 678.889 313.352 C 677.197 312.586, 676.970 311.030, 676.643 298 C 676.217 280.992, 674.416 274.501, 667.523 265.138 C 652.489 244.716, 618.690 240.007, 595.982 255.171 C 581.808 264.636, 575.657 278.010, 575.556 299.583 L 575.500 311.666 572.556 314.198 C 569.983 316.411, 569.560 317.539, 569.203 323.146 L 568.795 329.560 564.487 331.342 C 553.164 336.026, 547.035 347.912, 547.008 365.243 L 547 369.987 540.318 365.412 C 536.643 362.896, 529.733 358.877, 524.963 356.481 L 516.290 352.126 515.663 346.813 C 513.050 324.678, 501.053 297.658, 487.356 283.060 L 480.211 275.445 481.712 267.473 C 485.074 249.613, 483.686 231.433, 476.973 205.397 C 473.574 192.212, 472.267 170.544, 473.788 152.573 C 474.695 141.855, 474.777 141.590, 478.106 138.719 C 490.381 128.132, 496.266 122.430, 497.050 120.368 C 497.812 118.366, 498.639 118, 502.414 118 L 506.877 118 507.393 122.250 C 507.677 124.588, 508.141 131.225, 508.424 137 C 509.466 158.253, 510.991 160, 528.502 160 C 540.753 160, 541.160 159.930, 543.486 157.421 C 553.326 146.803, 554.207 65.999, 544.637 51.787 L 542.424 48.500 529.059 48.220 C 513.622 47.896, 512.101 48.571, 510.069 56.640 C 509.022 60.797, 507.075 81.329, 507.023 88.750 L 507 92 501.122 92 C 494.522 92, 493.924 91.537, 492.083 85 C 489.667 76.422, 482.227 72.343, 476.042 76.206 C 474.466 77.190, 473.766 77.098, 472.227 75.706 C 469.844 73.549, 463.237 73.475, 460.912 75.580 C 459.498 76.860, 458.748 76.935, 456.961 75.979 C 454.294 74.552, 449.320 75.401, 446.757 77.720 C 445.544 78.818, 443.567 79.321, 441.154 79.147 C 436.328 78.799, 432.445 81.783, 430.866 87.054 L 429.683 91 422.931 91 L 416.180 91 415.539 82.250 C 414.079 62.324, 411.483 51.152, 407.697 48.501 C 404.380 46.177, 380.796 46.346, 378.433 48.710 M 381.185 53.277 C 373.329 62.744, 372.791 139.876, 380.500 151.641 C 381.969 153.882, 382.594 154, 392.997 154 L 403.949 154 405.447 151.102 C 407.472 147.188, 408.655 141.473, 409.998 129.138 C 411.064 119.340, 411.020 118.702, 409.196 117.425 C 405.231 114.648, 405.304 94.696, 409.294 90.706 C 411.194 88.806, 411.227 88.194, 410.089 75.738 C 409.437 68.596, 408.137 60.445, 407.201 57.626 L 405.500 52.500 393.898 52.220 C 385.155 52.008, 382.022 52.269, 381.185 53.277 M 517.313 52.716 C 516.659 53.170, 515.646 54.800, 515.061 56.340 C 510.798 67.551, 511.101 141.127, 515.453 151.542 L 516.926 155.066 528.213 154.783 C 538.825 154.517, 539.487 154.380, 539.278 152.500 C 536.834 130.523, 536.669 81.734, 538.969 61.228 C 539.445 56.979, 539.648 53.315, 539.420 53.087 C 538.587 52.254, 518.465 51.916, 517.313 52.716 M 716.806 53.527 C 716.516 53.817, 716.676 55.955, 717.162 58.277 C 719.657 70.204, 719.044 142.633, 716.363 152.750 C 715.770 154.987, 715.831 155, 727.261 155 C 735.240 155, 739.070 154.618, 739.785 153.750 C 744.665 147.828, 745.624 66.029, 740.934 55.750 L 739.679 53 728.506 53 C 722.361 53, 717.096 53.237, 716.806 53.527 M 849.862 55.250 C 846.842 60.875, 843.323 91, 845.687 91 C 849.450 91, 850.589 114.411, 847 118 C 843.974 121.026, 845.504 142.090, 849.432 151.491 L 850.925 155.064 862.701 154.782 C 874.431 154.501, 874.482 154.489, 875.785 151.766 C 882.711 137.296, 882.741 73.433, 875.832 55.750 L 874.757 53 862.914 53 C 851.656 53, 851.011 53.111, 849.862 55.250 M 540.380 63.500 C 539.253 75.229, 539.521 145.619, 540.707 149.457 C 541.548 152.180, 541.756 151.782, 543.317 144.457 C 547.335 125.598, 547.881 91.180, 544.516 68.779 C 542.299 54.021, 541.401 52.874, 540.380 63.500 M 713.554 59.250 C 708.132 84.571, 707.756 124.192, 712.735 145.500 L 714.371 152.500 715.134 148.500 C 717.349 136.876, 717.246 56, 715.015 56 C 714.594 56, 713.937 57.462, 713.554 59.250 M 851.330 59 C 854.181 70.388, 854.264 125.229, 851.467 149 C 851.241 150.925, 851.689 149.800, 852.463 146.500 C 854.783 136.609, 856.311 110.025, 855.580 92.300 C 854.911 76.074, 852.835 58.446, 851.445 57.176 C 851.038 56.804, 850.986 57.625, 851.330 59 M 402.694 63.204 C 399.568 82.048, 399.760 134.454, 402.992 144.500 C 403.720 146.763, 403.844 145.535, 403.496 139.500 C 402.081 114.955, 401.948 100.354, 402.969 81.637 C 404.040 62.001, 403.945 55.661, 402.694 63.204 M 462.570 79.922 C 457.682 85.324, 460.373 105, 466 105 C 468.049 105, 471.168 100.876, 470.407 99.173 C 468.792 95.559, 468.787 88.973, 470.398 86.516 C 472.475 83.346, 472.420 81.690, 470.171 79.655 C 467.741 77.455, 464.706 77.562, 462.570 79.922 M 478.239 79.666 C 474.399 81.213, 474.975 83.847, 479.665 86.181 C 483.069 87.875, 484.439 88.163, 484.746 87.250 C 485.335 85.501, 487 85.686, 487 87.500 C 487 88.325, 487.450 89, 488 89 C 489.308 89, 489.268 88.577, 487.585 84.548 C 485.683 79.996, 482.085 78.117, 478.239 79.666 M 784.482 81.020 C 782.707 82.982, 782.720 83.156, 784.930 87.090 C 786.524 89.926, 787.026 92.018, 786.603 94.070 C 786.271 95.681, 785.737 98.263, 785.415 99.807 C 784.058 106.314, 791.687 106.942, 793.827 100.500 C 795.806 94.539, 795.013 82.214, 792.534 80.402 C 789.821 78.418, 786.614 78.664, 784.482 81.020 M 448.383 82.538 C 446.380 85.595, 447.074 97.308, 449.540 102.077 C 451.175 105.239, 454.881 106.053, 456.848 103.683 C 458.198 102.056, 458.092 83.017, 456.723 81.250 C 454.998 79.022, 450.201 79.763, 448.383 82.538 M 768.989 83.250 C 766.593 87.180, 766.273 89.848, 768.411 88.074 C 769.368 87.280, 770.029 87.238, 770.465 87.944 C 770.881 88.616, 772.597 88.235, 775.304 86.870 C 780.744 84.127, 780.610 84.331, 778.506 82.006 C 775.628 78.826, 771.345 79.386, 768.989 83.250 M 798.345 82.250 C 796.899 84.590, 797.067 103.811, 798.545 105.037 C 800.771 106.885, 804.374 105.725, 805.822 102.694 C 807.713 98.737, 808.551 85.898, 807.096 83.179 C 805.777 80.715, 799.693 80.070, 798.345 82.250 M 436.789 84.750 C 434.892 86.934, 433.698 91.695, 434.867 92.418 C 435.348 92.715, 436.030 94.401, 436.383 96.164 C 437.478 101.642, 441.847 104.753, 444.591 102.009 C 445.867 100.733, 444.123 84.790, 442.595 83.765 C 440.737 82.519, 438.381 82.919, 436.789 84.750 M 811.481 85.250 C 811.231 85.938, 810.907 90.325, 810.763 95 C 810.518 102.914, 810.642 103.520, 812.555 103.794 C 818.661 104.668, 822.985 88.361, 817.600 84.765 C 815.832 83.585, 811.977 83.890, 811.481 85.250 M 473.200 88.200 C 469.759 91.641, 475.316 102, 480.604 102 C 483.524 102, 483.680 103.094, 481 104.768 C 479.900 105.455, 479 106.804, 479 107.766 C 479 109.221, 478.255 109.455, 474.557 109.161 C 465.896 108.472, 456.780 114.069, 452.833 122.499 L 450.960 126.500 451.395 123 C 451.634 121.075, 452.117 118.775, 452.468 117.890 C 453.457 115.395, 441.276 113.995, 432.995 115.651 L 429.739 116.302 430.328 122.610 C 430.652 126.079, 431.836 130.718, 432.958 132.919 C 436.333 139.533, 435.486 148.781, 428.052 186.500 C 420.023 227.234, 419.519 248.162, 426.188 263.892 C 428.542 269.443, 427.806 270.442, 425.116 265.344 L 423.088 261.500 423.044 268.515 C 423.008 274.276, 423.520 276.600, 425.906 281.515 C 429.934 289.812, 433.522 306.846, 436.449 331.566 C 441.147 371.256, 445.184 382.654, 464.056 409.522 C 468.700 416.134, 474.750 425.253, 477.500 429.786 L 482.500 438.027 483 426.764 L 483.500 415.500 484.337 422.500 C 492.161 487.970, 497.963 507.625, 521.144 547.186 C 534.694 570.310, 538.630 588.409, 536.168 616.259 C 534.760 632.181, 534.806 639.840, 536.351 646.488 L 537.509 651.476 544.476 652.739 C 551.881 654.081, 585.292 658.042, 585.707 657.627 C 585.842 657.491, 585.063 655.040, 583.976 652.180 C 582.889 649.319, 582.044 645.746, 582.099 644.239 C 582.180 641.984, 582.443 642.295, 583.585 646 C 584.348 648.475, 585.705 652.149, 586.600 654.165 L 588.227 657.830 597.564 658.530 C 608.348 659.339, 661.559 658.774, 662.492 657.841 C 662.836 657.497, 664.165 654.218, 665.445 650.555 C 666.726 646.891, 668.054 643.613, 668.397 643.270 C 669.504 642.163, 667.809 649.370, 665.932 653.752 L 664.110 658.004 669.805 657.423 C 679.169 656.466, 705.239 652.973, 709 652.172 C 714.381 651.025, 715.536 644.023, 714.141 621 C 712.945 601.256, 713.827 587.235, 717.055 574.642 C 719.402 565.487, 720.609 562.965, 731.062 545.365 C 753.535 507.531, 761.266 482.430, 766.968 428.789 C 767.536 423.449, 768.090 418.499, 768.199 417.789 C 768.309 417.080, 768.647 421.548, 768.949 427.718 L 769.500 438.936 775.287 429.475 C 778.470 424.271, 784.916 414.751, 789.612 408.318 C 806.211 385.577, 811.081 371.859, 815.994 334 C 819.322 308.354, 823.500 289.257, 827.461 281.581 C 829.498 277.633, 829.991 275.262, 829.955 269.581 L 829.910 262.500 827.500 267 C 824.365 272.854, 824.316 270.796, 827.422 263.772 C 833.946 249.019, 833.686 228.182, 826.498 190 C 819.480 152.716, 818.560 141.193, 821.998 133.613 C 823.217 130.926, 824.448 126.156, 824.732 123.015 L 825.250 117.302 821.375 116.662 C 811.424 115.018, 801.428 116.199, 802.585 118.881 C 802.969 119.772, 803.461 121.850, 803.680 123.500 L 804.077 126.500 802.133 122.981 C 797.591 114.758, 789.656 109.714, 781.260 109.714 C 776.838 109.714, 776 109.424, 776 107.892 C 776 106.890, 775.100 105.589, 774 105 C 771.301 103.555, 771.465 102.175, 774.272 102.712 C 779.282 103.669, 785.428 94.537, 782.924 89.857 C 781.709 87.588, 780.776 87.548, 776.822 89.592 C 775.129 90.468, 771.550 91.835, 768.869 92.632 C 761.579 94.796, 760.561 96.958, 761.376 108.542 C 762.220 120.551, 762.599 121.302, 771.828 129.220 C 776.048 132.840, 780.734 136.859, 782.241 138.151 L 784.982 140.500 785.604 158 C 786.413 180.766, 785.093 193.956, 780.083 213.188 C 775.035 232.562, 773.579 245.399, 774.990 258.069 C 776.665 273.108, 776.945 274.152, 779.117 273.463 C 782.141 272.503, 781.516 273.364, 771.250 284.300 C 753.050 303.688, 743.451 326.332, 739.321 359.625 C 737.560 373.820, 736 376.318, 736 364.941 C 736 361.123, 735.663 358.009, 735.250 358.019 C 733.357 358.068, 715.511 368.262, 710.505 372.155 C 704.150 377.096, 694.755 388.390, 691.616 394.862 C 688.966 400.325, 682.715 403.660, 660.218 411.616 C 645.362 416.869, 642.427 418.165, 635.414 422.569 L 632.500 424.399 635 421.600 C 638.380 417.817, 644.218 414.986, 661.174 408.908 C 669.053 406.084, 677.475 402.771, 679.889 401.548 L 684.279 399.323 675.688 396.644 C 670.963 395.171, 666.823 393.523, 666.489 392.983 C 665.326 391.100, 664 392.019, 663.937 394.750 L 663.873 397.500 662.793 395 C 662.199 393.625, 661.665 386.601, 661.607 379.391 L 661.500 366.283 655.354 371.891 C 644.827 381.498, 639.213 384.295, 629.419 384.809 C 615.487 385.540, 608.125 382.526, 596.038 371.144 C 593.034 368.315, 590.559 366.003, 590.538 366.007 C 590.517 366.011, 590.436 371.974, 590.358 379.257 C 590.280 386.541, 589.746 393.625, 589.172 395 L 588.127 397.500 588.063 394.750 C 587.987 391.436, 588.469 391.460, 581.753 394.431 C 578.730 395.767, 574.619 397.168, 572.617 397.544 C 570.616 397.919, 568.766 398.570, 568.506 398.990 C 567.904 399.964, 577.184 404.012, 592.607 409.503 C 606.434 414.426, 611.408 416.790, 615.909 420.577 C 620.334 424.300, 619.119 424.675, 613.870 421.206 C 609.055 418.025, 606.182 416.816, 588.451 410.512 C 568.251 403.329, 562.821 400.151, 559.483 393.554 C 553.192 381.119, 542.448 370.879, 527 362.593 C 515.919 356.649, 516 356.635, 516 364.441 C 516 375.421, 514.483 372.499, 512.751 358.183 C 508.770 325.283, 499.327 302.467, 481.875 283.584 C 476.994 278.302, 473 273.480, 473 272.868 C 473 272.067, 473.388 272.077, 474.382 272.902 C 476.698 274.824, 478.507 262.653, 478.454 245.500 C 478.410 231.212, 478.201 229.669, 474.047 213 C 469.251 193.755, 467.815 173.885, 469.467 149.640 L 470.180 139.179 480.668 130.525 C 493.153 120.223, 494 118.645, 494 105.687 C 494 95.131, 493.488 94.195, 486.500 91.991 C 484.300 91.297, 480.830 89.890, 478.790 88.865 C 474.396 86.656, 474.707 86.693, 473.200 88.200 M 410.698 94.636 C 410.314 95.019, 410 99.473, 410 104.533 L 410 113.733 417.250 113.338 C 421.238 113.121, 427.741 112.446, 431.702 111.838 C 435.967 111.184, 442.245 111.025, 447.094 111.448 C 455.024 112.140, 462 110.447, 462 107.832 C 462 106.189, 459.851 105.991, 457.779 107.442 C 454.763 109.555, 452.055 109.400, 449.465 106.967 C 447.666 105.277, 446.839 105.111, 444.559 105.978 C 440.595 107.485, 436.920 105.404, 434.554 100.314 L 432.609 96.128 423.554 95.782 C 418.574 95.591, 413.801 95.099, 412.948 94.687 C 412.094 94.275, 411.082 94.252, 410.698 94.636 M 842 96 C 841.175 96.533, 836.450 96.993, 831.500 97.021 L 822.500 97.072 820.500 101.286 C 818.226 106.077, 814.381 108.446, 810.944 107.175 C 809.329 106.578, 807.589 106.933, 804.847 108.420 C 801.115 110.443, 800.922 110.451, 797.848 108.707 C 793.744 106.378, 791.885 108.017, 795.699 110.601 C 798.030 112.181, 800.514 112.523, 810.500 112.638 C 817.100 112.714, 827.450 113.190, 833.500 113.698 C 839.550 114.205, 844.697 114.471, 844.938 114.289 C 845.767 113.662, 846.234 102.062, 845.572 98.534 C 844.870 94.788, 844.396 94.452, 842 96 M 498.211 104.638 L 498.500 113.276 502.751 113.388 L 507.002 113.500 507.001 104.750 L 507 96 502.461 96 L 497.922 96 498.211 104.638 M 749 105.500 L 749 114 753 114 L 757 114 757 107.082 C 757 103.277, 757.273 99.452, 757.607 98.582 C 758.106 97.280, 757.397 97, 753.607 97 L 749 97 749 105.500 M 472 103.810 C 472 104.336, 472.926 105.009, 474.057 105.305 C 475.366 105.647, 475.972 105.416, 475.724 104.671 C 475.245 103.233, 472 102.482, 472 103.810 M 779.991 104.511 C 778.962 105.750, 779.111 106, 780.878 106 C 782.045 106, 783 105.577, 783 105.059 C 783 103.327, 781.240 103.006, 779.991 104.511 M 459.385 164 C 459.385 170.875, 459.545 173.688, 459.740 170.250 C 459.936 166.813, 459.936 161.188, 459.740 157.750 C 459.545 154.313, 459.385 157.125, 459.385 164 M 794.149 163.500 C 794.069 171.573, 794.348 175.009, 795 174 C 796.134 172.245, 796.157 163.630, 795.046 156.500 C 794.420 152.482, 794.244 153.858, 794.149 163.500 M 611.500 252.871 C 590.402 258.948, 579.905 275.046, 580.114 301 C 580.221 314.221, 581.318 319.076, 582.321 310.771 C 582.701 307.620, 583.865 302.670, 584.907 299.771 C 585.949 296.872, 587.065 291.676, 587.388 288.225 C 588.316 278.294, 592.751 272.274, 600.781 270.044 C 605.815 268.646, 646.398 268.706, 651.500 270.119 C 660.238 272.539, 664.997 278.914, 665.004 288.210 C 665.007 291.275, 666.049 296.444, 667.483 300.500 C 668.844 304.350, 669.967 309.502, 669.979 311.950 C 670.017 320.054, 671.998 314.849, 672.648 304.935 C 674.854 271.302, 656.776 250.779, 625.201 251.071 C 620.965 251.110, 614.800 251.920, 611.500 252.871 M 466.665 260.192 C 466.326 263.661, 465.810 267.850, 465.520 269.500 L 464.991 272.500 466.428 269.500 C 468.345 265.500, 469.522 256.122, 468.266 254.866 C 467.622 254.222, 467.070 256.059, 466.665 260.192 M 785.120 259 C 785.017 264.191, 786.903 273.658, 787.610 271.500 C 787.790 270.950, 787.328 266.675, 786.583 262 C 785.259 253.687, 785.227 253.621, 785.120 259 M 602.849 272.440 C 593.733 274.793, 590 279.399, 590 288.294 C 590 290.690, 588.875 295.871, 587.500 299.807 C 586.125 303.742, 584.995 308.883, 584.989 311.231 C 584.975 316.529, 583.946 323.002, 583.119 322.994 C 582.779 322.990, 581.733 321.640, 580.797 319.994 C 578.595 316.125, 575.334 316.010, 573.887 319.750 C 571.771 325.219, 575.912 341.192, 580.414 344.929 C 582.668 346.799, 585 345.496, 585 342.365 C 585 337.871, 586.058 340.360, 588.079 349.608 C 590.382 360.147, 593.052 364.354, 601.991 371.525 C 611.708 379.320, 614.146 380.314, 624.784 380.809 C 636.156 381.339, 642.490 378.718, 653.105 369.093 C 660.357 362.516, 663.005 357.669, 665.040 347.250 C 665.711 343.813, 666.638 341, 667.099 341 C 667.560 341, 667.731 341.563, 667.479 342.250 C 667.227 342.938, 667.408 344.107, 667.880 344.848 C 670.874 349.545, 677.615 338.929, 678.645 327.896 C 679.604 317.627, 676.371 313.874, 671.842 320 C 668.640 324.331, 668.357 323.935, 667.729 314.241 C 667.387 308.961, 666.335 303.387, 665.081 300.204 C 663.936 297.301, 662.989 293.255, 662.976 291.213 C 662.916 281.860, 659.744 276.142, 653 273.232 C 648.384 271.240, 609.856 270.632, 602.849 272.440 M 432 280.286 C 432 281.713, 434.389 286, 435.184 286 C 435.658 286, 435.272 284.762, 434.326 283.250 C 432.079 279.659, 432 279.558, 432 280.286 M 818.476 284.250 L 816.901 287.500 818.951 285.139 C 820.078 283.841, 821 282.378, 821 281.889 C 821 280.141, 820.026 281.052, 818.476 284.250 M 599.619 299.979 C 596.276 301.044, 592 304.773, 592 306.623 C 592 307.603, 592.868 307.534, 595.750 306.325 C 598.698 305.088, 601.478 304.889, 608.750 305.396 C 617.611 306.013, 618 305.954, 618 303.995 C 618 300.554, 606.028 297.938, 599.619 299.979 M 640.682 299.969 C 638.582 300.375, 636.167 301.405, 635.314 302.258 C 632.394 305.177, 634.652 306.003, 643.800 305.360 C 650.534 304.887, 653.347 305.105, 656.250 306.323 C 658.419 307.234, 660 307.470, 660 306.883 C 660 301.234, 650.928 297.986, 640.682 299.969 M 463.603 309.944 C 464.822 318.427, 471.931 335.283, 477.018 341.750 C 479.973 345.506, 479.470 344.110, 474.519 334.802 C 472.054 330.169, 468.446 321.681, 466.501 315.939 C 464.102 308.857, 463.170 306.929, 463.603 309.944 M 786.557 314.663 C 785.489 318.423, 782.001 326.655, 778.807 332.956 C 772.424 345.548, 772.071 346.450, 774.973 342.761 C 780.848 335.292, 789.741 313.926, 788.833 309.462 C 788.650 308.562, 787.626 310.903, 786.557 314.663 M 601.250 310.933 C 598.913 312.016, 597 313.374, 597 313.951 C 597 315.284, 598.686 315.317, 599.500 314 C 600.478 312.418, 601.447 312.820, 602.513 315.250 C 603.809 318.205, 608.803 318.364, 610.391 315.500 C 611.001 314.400, 611.602 313.323, 611.726 313.107 C 611.850 312.892, 612.638 313.284, 613.476 313.980 C 615.642 315.778, 615.374 313.649, 613.184 311.667 C 610.261 309.022, 605.949 308.757, 601.250 310.933 M 620.500 315.500 C 620.500 318.970, 620.831 321.289, 621.235 320.655 C 622.201 319.136, 622.214 310.250, 621.250 309.655 C 620.837 309.400, 620.500 312.030, 620.500 315.500 M 641.400 310.428 C 639.694 311.170, 638.021 312.503, 637.681 313.389 C 637.011 315.136, 638.491 315.633, 639.500 314 C 640.555 312.294, 641.846 312.896, 642.180 315.250 C 642.660 318.629, 649.350 318.562, 649.830 315.174 C 650.049 313.625, 650.634 313.040, 651.580 313.424 C 656.702 315.503, 656.602 315.499, 655 313.532 C 651.769 309.565, 646.267 308.309, 641.400 310.428 M 576.087 322.282 C 578.742 324.320, 579.947 327.543, 579.389 331.109 C 579.069 333.150, 579.384 335.205, 580.180 336.270 C 581.325 337.803, 581.494 337.249, 581.441 332.134 C 581.374 325.684, 579.164 320.978, 576.227 321.032 C 574.667 321.061, 574.654 321.182, 576.087 322.282 M 673.073 323.635 C 670.687 326.668, 670.871 325.973, 670.658 332.750 C 670.568 335.637, 670.824 338, 671.228 338 C 672.382 338, 673.279 333.247, 672.620 330.622 C 672.215 329.009, 672.813 327.081, 674.482 324.622 C 677.303 320.464, 676.184 319.680, 673.073 323.635 M 565.428 335.920 C 556.677 339.838, 552.678 348.101, 551.508 364.679 L 550.861 373.858 555.438 379.477 C 557.956 382.568, 561.147 387.331, 562.531 390.061 C 564.815 394.569, 565.298 394.971, 567.774 394.424 C 573.350 393.193, 579.597 390.936, 582.750 389.012 L 586 387.029 586 373.564 C 586 356.502, 584.764 350, 581.521 350 C 578.586 350, 573.619 344.445, 571.985 339.336 C 570.280 334.006, 570.014 333.867, 565.428 335.920 M 618 336.500 C 618 337.513, 619.014 338, 621.122 338 C 623.785 338, 624.061 337.779, 623 336.500 C 622.315 335.675, 620.910 335, 619.878 335 C 618.845 335, 618 335.675, 618 336.500 M 630.250 335.662 C 629.563 335.940, 629 336.609, 629 337.150 C 629 338.565, 634.266 337.742, 634.756 336.250 C 635.165 335.005, 632.681 334.681, 630.250 335.662 M 680.568 339.460 C 678.490 344.902, 673.066 351, 670.304 351 C 667.423 351, 666 358.578, 666 373.921 C 666 388.608, 666.096 388.798, 675.107 391.918 C 686.120 395.730, 686.297 395.708, 689.357 390.085 C 690.852 387.338, 693.997 382.708, 696.344 379.795 L 700.613 374.500 699.871 363.231 C 698.789 346.791, 693.913 337.755, 684.912 335.510 C 682.559 334.923, 682.164 335.283, 680.568 339.460 M 615.250 349.802 C 610.123 350.097, 608.253 351.432, 611.750 352.299 C 615.872 353.322, 641.340 352.480, 641.731 351.307 C 641.950 350.651, 641.312 350.120, 640.314 350.126 C 639.316 350.133, 634.450 349.994, 629.500 349.819 C 624.550 349.644, 618.138 349.636, 615.250 349.802 M 620.500 359 C 620.840 359.550, 623.540 360, 626.500 360 C 629.460 360, 632.160 359.550, 632.500 359 C 632.888 358.372, 630.657 358, 626.500 358 C 622.343 358, 620.112 358.372, 620.500 359 M 487 365.400 C 487 368.507, 494.955 378.476, 500.404 382.197 C 502.665 383.742, 502.117 382.854, 498.369 378.906 C 495.547 375.933, 491.835 371.520, 490.119 369.100 C 488.404 366.680, 487 365.015, 487 365.400 M 760.930 370.746 C 759.057 373.355, 755.494 377.462, 753.012 379.873 C 750.530 382.284, 749.514 383.732, 750.754 383.091 C 753.835 381.498, 759.500 375.712, 762.670 370.923 C 766.430 365.240, 764.990 365.094, 760.930 370.746 M 611.905 396.670 C 613.262 401.400, 616.967 409.366, 617.543 408.791 C 618.086 408.247, 613.255 396.179, 611.849 394.567 C 611.401 394.055, 611.427 395, 611.905 396.670 M 636.300 402.250 C 634.560 406.512, 633.325 410, 633.554 410 C 634.534 410, 640.085 397.681, 639.788 396.165 C 639.609 395.249, 638.039 397.988, 636.300 402.250 M 517.492 404 C 518.889 421.117, 524.538 447.745, 530.753 466.500 C 533.981 476.240, 534.857 474.207, 532.105 463.366 C 528.413 448.827, 522.206 419.594, 520.455 408.500 C 518.295 394.821, 516.524 392.130, 517.492 404 M 732.622 399.750 C 732.327 401.262, 730.459 410.825, 728.472 421 C 726.485 431.175, 723.091 446.865, 720.929 455.867 C 716.576 474.001, 716.242 476.523, 719.027 470.256 C 723.938 459.205, 732.392 421.759, 733.639 405.539 C 734.274 397.276, 733.720 394.124, 732.622 399.750 M 503.524 416.250 C 507.293 420.238, 511.019 424.175, 511.805 425 C 513.047 426.305, 513.067 426.174, 511.953 424 C 510.358 420.888, 499.044 409, 497.677 409 C 497.124 409, 499.755 412.262, 503.524 416.250 M 746.449 415.440 C 742.976 418.982, 739.631 422.919, 739.015 424.190 C 738.399 425.460, 739.959 424.250, 742.481 421.500 C 745.004 418.750, 748.910 414.813, 751.162 412.750 C 753.415 410.688, 754.696 409, 754.010 409 C 753.324 409, 749.922 411.898, 746.449 415.440 M 625.607 446.582 C 624.548 449.343, 624.912 484, 626 484 C 626.632 484, 627 476.833, 627 464.500 C 627 445.416, 626.841 443.367, 625.607 446.582 M 554.667 475.667 C 553.137 477.197, 554.131 481.040, 556.451 482.560 C 559.829 484.773, 562.432 484.068, 562.807 480.838 C 563.246 477.061, 557.147 473.186, 554.667 475.667 M 689.939 477.061 C 687.483 479.517, 687.732 483.333, 690.381 483.838 C 694.841 484.689, 699.477 479.484, 696.960 476.452 C 695.256 474.399, 692.349 474.651, 689.939 477.061 M 555 478.300 C 555 480.303, 557.155 482, 559.700 482 C 562.292 482, 562.429 481.670, 560.965 478.934 C 559.802 476.762, 555 476.251, 555 478.300 M 690.445 479.061 C 688.855 480.818, 688.794 481.255, 690.034 482.021 C 691.789 483.106, 695.349 481.021, 695.823 478.631 C 696.291 476.270, 692.711 476.557, 690.445 479.061 M 708.142 490.973 C 701.112 499.720, 690.798 502.967, 670 502.977 C 657.309 502.984, 646.551 501.387, 639.586 498.464 C 638.242 497.900, 637.885 498.005, 638.387 498.817 C 641.961 504.600, 683.084 506.961, 695.381 502.089 C 701.760 499.561, 708.270 494.312, 710.590 489.825 C 712.588 485.963, 711.914 486.279, 708.142 490.973 M 540.015 488.772 C 539.987 491.176, 548.050 498.775, 552.773 500.796 C 567.176 506.961, 602.619 506.226, 611.517 499.580 C 612.867 498.572, 611.424 498.793, 607 500.271 C 601.280 502.183, 598.280 502.447, 582 502.472 C 558.282 502.508, 551.698 500.579, 543.265 491.126 C 541.486 489.132, 540.023 488.073, 540.015 488.772 M 526 502.383 C 526 507.461, 532.547 514.263, 539.146 516.039 C 543.126 517.111, 546.106 516.595, 542.393 515.477 C 535.940 513.535, 531.394 510.290, 529.294 506.127 C 526.631 500.849, 526 500.131, 526 502.383 M 722.749 505.118 C 720.939 509.379, 715.634 513.723, 711.146 514.621 C 707.857 515.279, 705.792 517, 708.292 517 C 715.727 517, 726.459 507.657, 724.711 502.705 C 724.477 502.042, 723.594 503.128, 722.749 505.118 M 522.627 523.500 C 524.187 528.148, 530.745 533.066, 535.200 532.929 C 536.919 532.877, 536.363 532.366, 533 530.910 C 530.525 529.838, 527.027 527.282, 525.228 525.230 C 523.203 522.922, 522.211 522.263, 522.627 523.500 M 726.500 524.001 C 725.742 526.387, 720.679 530.332, 716.500 531.793 L 713.500 532.842 716.868 532.921 C 720.552 533.007, 728 526.783, 728 523.618 C 728 521.399, 727.266 521.587, 726.500 524.001 M 604.064 525.787 C 597.940 528.843, 588.610 536.920, 586.508 540.985 C 585.640 542.663, 587.637 541.161, 591.808 536.997 C 596.481 532.331, 600.762 529.218, 606 526.675 C 610.125 524.672, 612.600 523.043, 611.500 523.054 C 610.400 523.065, 607.054 524.295, 604.064 525.787 M 645.792 526.493 C 650.592 528.745, 655.339 532.065, 659.683 536.207 C 663.312 539.668, 665.807 541.589, 665.227 540.476 C 661.907 534.108, 646.110 522.972, 640.500 523.046 C 639.400 523.060, 641.781 524.611, 645.792 526.493 M 626.392 554 C 626.392 561.425, 626.549 564.462, 626.742 560.750 C 626.934 557.038, 626.934 550.962, 626.742 547.250 C 626.549 543.538, 626.392 546.575, 626.392 554 M 525.030 543.146 C 524.997 544.946, 531.343 551, 533.263 551 C 533.919 551, 532.786 549.623, 530.744 547.941 C 528.703 546.258, 526.589 544.121, 526.047 543.191 C 525.149 541.650, 525.058 541.646, 525.030 543.146 M 721.121 547.041 C 716.568 551.158, 716.754 552.554, 721.371 548.922 C 723.555 547.205, 726.788 542.897, 725.785 543.041 C 725.628 543.064, 723.530 544.864, 721.121 547.041 M 521.674 566 C 521.131 573.449, 518.950 657.026, 518.986 668.978 L 519 673.456 522.250 669.517 C 524.038 667.350, 526.250 663.162, 527.166 660.210 C 528.082 657.258, 529.432 654.091, 530.166 653.171 C 531.219 651.852, 531.495 644.450, 531.476 618 C 531.450 581.298, 530.863 576.340, 525.022 563.500 L 522.293 557.500 521.674 566 M 725.773 563.573 C 719.479 577.593, 718.520 584.671, 718.776 615.255 C 718.903 630.520, 718.622 644.727, 718.150 646.827 C 717.455 649.919, 717.646 651.079, 719.153 652.941 C 720.176 654.204, 721.749 657.772, 722.647 660.869 C 723.546 663.966, 725.119 667.400, 726.144 668.500 C 727.168 669.600, 728.680 671.400, 729.505 672.500 C 730.842 674.283, 730.936 669.233, 730.379 626 C 730.035 599.325, 729.472 573, 729.127 567.500 L 728.500 557.500 725.773 563.573 M 577.176 565.250 C 576.546 566.487, 575.293 568.625, 574.392 570 C 573.208 571.807, 573.619 571.594, 575.877 569.234 C 577.594 567.438, 579 565.301, 579 564.484 C 579 562.422, 578.511 562.627, 577.176 565.250 M 673.030 565.234 C 673.014 566.188, 674.393 568.438, 676.097 570.234 L 679.193 573.500 677.249 570.500 C 676.180 568.850, 674.800 566.600, 674.183 565.500 C 673.215 563.776, 673.057 563.739, 673.030 565.234 M 611.500 580.180 C 609.300 580.719, 603.061 580.965, 597.636 580.727 C 590.144 580.397, 588.221 580.559, 589.636 581.397 C 592.756 583.243, 610.976 582.799, 614.500 580.790 C 617.863 578.873, 617.304 578.759, 611.500 580.180 M 636.491 579.985 C 638.182 582.721, 656.114 583.928, 661.422 581.663 C 663.959 580.580, 663.034 580.465, 654.422 580.792 C 648.965 580.999, 642.591 580.729, 640.258 580.192 C 637.925 579.655, 636.229 579.562, 636.491 579.985 M 625.630 590.250 C 624.623 594.011, 624.914 608, 626 608 C 626.600 608, 627 604, 627 598 C 627 587.842, 626.712 586.213, 625.630 590.250 M 576.016 606.750 C 576.034 611.239, 578.163 620.710, 579.780 623.501 C 581.347 626.204, 581.264 624.573, 579.500 618 C 578.688 614.975, 578.018 610.362, 578.012 607.750 C 578.005 605.138, 577.550 603, 577 603 C 576.450 603, 576.007 604.688, 576.016 606.750 M 672.748 609.500 C 672.334 613.350, 671.338 618.654, 670.535 621.286 C 669.731 623.919, 669.501 625.808, 670.024 625.485 C 671.848 624.358, 674.103 614.111, 673.802 608.316 L 673.500 602.500 672.748 609.500 M 622.322 621.078 C 620.900 622.500, 622.470 626.583, 624.780 627.469 C 626.867 628.270, 630.151 625.051, 629.794 622.555 C 629.453 620.174, 624.254 619.146, 622.322 621.078 M 624.173 623.659 C 624.368 624.672, 625.196 625.500, 626.014 625.500 C 628.157 625.500, 627.848 622.594, 625.659 622.173 C 624.323 621.916, 623.916 622.323, 624.173 623.659 M 532.901 657.683 C 532.295 659.232, 531.175 662.564, 530.410 665.086 C 529.645 667.608, 528.069 670.532, 526.908 671.584 C 525.746 672.635, 524.155 674.734, 523.372 676.248 L 521.949 679 529.641 679 C 539.174 679, 538.695 679.604, 527.312 681.936 C 511.439 685.188, 486.209 697.501, 474.063 707.923 L 469.625 711.731 476.563 709.923 C 498.960 704.087, 520.225 710.078, 537 726.951 C 551.936 741.973, 559.291 758.881, 559.425 778.500 C 559.466 784.550, 559.139 791.204, 558.698 793.286 L 557.896 797.071 562.698 793.651 C 569.392 788.884, 577.511 784.963, 594.004 778.533 L 608.196 773 624.884 773 L 641.571 773 655.445 778.568 C 671.023 784.819, 681.981 790.121, 686.589 793.636 C 690.741 796.802, 690.946 796.681, 689.797 791.750 C 688.029 784.167, 689.450 768.588, 692.877 757.970 C 705.378 719.239, 742.282 698.951, 777.500 711.451 C 780.877 712.649, 774.393 707.407, 763.736 700.323 C 748.781 690.382, 725.798 681, 716.399 681 C 715.144 681, 713.840 680.550, 713.500 680 C 713.109 679.367, 715.664 679, 720.464 679 L 728.046 679 726.341 676.250 C 725.403 674.737, 723.648 672.375, 722.441 671 C 721.233 669.625, 719.456 666.025, 718.490 663 C 715.950 655.038, 716.063 655.107, 708.039 656.625 C 677.934 662.317, 609.532 664.704, 577.500 661.180 C 563.291 659.616, 538.233 656.144, 535.751 655.394 C 534.506 655.018, 533.684 655.678, 532.901 657.683 M 537 669.810 C 541.586 672.673, 577.718 677.506, 605.783 679.011 C 638.757 680.779, 689.841 676.843, 708.500 671.096 C 713.647 669.511, 708.350 669.862, 695.500 671.958 C 646.512 679.949, 585.708 678.952, 538 669.376 C 536.172 669.009, 535.903 669.126, 537 669.810 M 561.660 689.803 C 567.799 693.054, 577.988 699.112, 584.303 703.264 C 605.315 717.082, 604.852 715.361, 583.660 700.878 C 572.790 693.449, 559.155 686.190, 553 684.556 C 551.625 684.191, 555.522 686.552, 561.660 689.803 M 685.500 688.862 C 675.005 693.856, 647 711.864, 647 713.618 C 647 714.410, 651.149 711.951, 665.292 702.776 C 672.877 697.855, 683.002 691.858, 687.792 689.450 C 698.476 684.076, 696.580 683.590, 685.500 688.862 M 571 709.281 C 571 709.501, 574.487 712.601, 578.750 716.170 C 583.013 719.740, 589.850 726.674, 593.945 731.580 C 603.623 743.174, 603.691 743.239, 600.941 738.218 C 597.878 732.625, 586.294 720.101, 579.148 714.657 C 573.041 710.003, 571 708.657, 571 709.281 M 672 712.670 C 661.523 720.594, 648.034 735.903, 643.511 745 C 641.290 749.469, 642.321 748.358, 649.543 738.500 C 652.767 734.100, 660.074 725.888, 665.783 720.250 C 671.491 714.612, 676.012 710.005, 675.831 710.011 C 675.649 710.017, 673.925 711.213, 672 712.670 M 480.510 713.175 C 466.646 715.819, 457.852 723.403, 449.988 739.500 C 443.495 752.791, 440.120 775.739, 441.380 798.036 C 441.978 808.607, 441.774 811.120, 439.508 821.156 C 435.087 840.743, 433.717 854.578, 434.325 873.500 C 434.889 891.044, 435.898 898.349, 442.890 935.500 C 447.869 961.959, 450.858 982.429, 451.780 996.393 L 452.500 1007.287 458.547 1007.440 C 470.261 1007.735, 477.260 1013.149, 479.336 1023.521 C 480.411 1028.888, 480.769 1029.426, 484 1030.523 C 485.925 1031.177, 488.063 1031.503, 488.750 1031.249 C 490.294 1030.677, 490.374 1021.320, 488.949 1008 C 487.187 991.523, 490.764 950.317, 495.572 931.703 C 496.453 928.291, 499.366 920.550, 502.046 914.500 C 508.989 898.822, 510.394 892.276, 510.419 875.500 C 510.439 861.802, 510.059 858.876, 505.878 840.500 C 503.006 827.878, 503.065 827.993, 501.410 831.901 C 499.211 837.093, 498.569 834.825, 500.535 828.815 C 505.400 813.946, 509.696 804.890, 510.934 806.894 C 512.776 809.874, 543.433 797.586, 551.500 790.634 L 555.500 787.187 555.342 779.207 C 554.885 756.161, 540.819 731.111, 522.088 719.983 C 510.454 713.071, 494.637 710.481, 480.510 713.175 M 741.368 713.980 C 715.419 720.783, 695.490 747.504, 693.308 778.420 L 692.730 786.613 696.992 790.261 C 702.924 795.339, 714.845 801.308, 725.500 804.537 C 730.450 806.037, 735.063 807.478, 735.750 807.739 C 736.469 808.012, 737.007 807.425, 737.017 806.357 C 737.049 802.819, 741.121 810.741, 745.150 822.178 C 748.996 833.098, 749.826 838.351, 746.790 832.565 L 745.250 829.629 743.523 835.565 C 739.416 849.683, 737.713 861.353, 737.696 875.500 C 737.676 892.135, 739.218 898.922, 747.027 916.561 C 756.701 938.413, 762.249 985.091, 758.595 1013.874 C 756.407 1031.103, 757.244 1033.315, 764.822 1030.338 C 768.643 1028.837, 768.785 1028.612, 769.221 1023.352 C 770.031 1013.580, 776.844 1008.068, 788.758 1007.545 L 795.500 1007.250 796.189 995.632 C 797.039 981.309, 798.934 967.926, 804.134 939.500 C 815.635 876.630, 816.292 860.589, 808.841 824.500 C 807.138 816.250, 805.752 809.050, 805.761 808.500 C 805.771 807.950, 806.121 803.289, 806.541 798.141 C 807.438 787.134, 805.786 766.663, 802.954 753.681 C 799.379 737.296, 788.644 720.936, 778.545 716.485 C 767.579 711.650, 753.796 710.722, 741.368 713.980 M 462.873 741.887 C 457.458 747.455, 453.107 754.428, 451.569 760 C 451.190 761.375, 452.253 760.072, 453.932 757.105 C 457.791 750.283, 461.221 745.631, 466.359 740.250 C 468.590 737.913, 470.007 736, 469.507 736 C 469.007 736, 466.022 738.649, 462.873 741.887 M 780.093 737.500 C 780.933 738.600, 783.423 741.606, 785.626 744.181 C 787.829 746.756, 791.134 751.823, 792.971 755.442 C 794.808 759.062, 796.536 761.797, 796.812 761.521 C 798.212 760.122, 789.685 746.093, 784.339 741 C 781.163 737.975, 779.253 736.400, 780.093 737.500 M 478.635 767.114 C 479.809 768.426, 481.701 771.300, 482.840 773.500 C 484.283 776.286, 484.924 776.893, 484.952 775.500 C 485.008 772.722, 481.570 767.369, 478.804 765.928 L 476.500 764.729 478.635 767.114 M 766.073 768.728 C 764.383 770.778, 763.018 773.591, 763.039 774.978 C 763.077 777.443, 763.108 777.432, 764.389 774.500 C 765.110 772.850, 766.932 770.038, 768.439 768.250 C 769.945 766.462, 770.721 765, 770.162 765 C 769.603 765, 767.763 766.678, 766.073 768.728 M 531.846 772.151 C 530.006 775.612, 526.093 780.853, 523.152 783.798 C 518.974 787.981, 518.443 788.822, 520.727 787.641 C 525.022 785.420, 530.879 778.506, 533.717 772.306 C 537.208 764.682, 535.877 764.572, 531.846 772.151 M 713.048 767 C 713.039 769.725, 718.433 778.954, 722.448 783.082 C 728.825 789.639, 731.016 789.886, 725 783.370 C 721.975 780.094, 718.049 774.733, 716.277 771.457 C 714.504 768.180, 713.051 766.175, 713.048 767 M 591.955 784.275 C 582.540 788.039, 572.511 792.554, 569.669 794.309 L 564.500 797.500 579 798.124 C 597.613 798.926, 650.104 798.924, 669.500 798.121 L 684.500 797.500 679.500 794.272 C 676.750 792.497, 667.075 788.046, 658 784.380 L 641.500 777.716 625.287 777.574 L 609.074 777.431 591.955 784.275 M 448.188 789.500 C 448.179 791.700, 449.205 798.450, 450.468 804.500 C 452.090 812.279, 452.784 814.329, 452.834 811.500 C 452.874 809.300, 451.848 802.550, 450.554 796.500 C 448.953 789.010, 448.198 786.776, 448.188 789.500 M 799.079 786.308 C 799.036 786.752, 798.132 791.477, 797.072 796.808 C 796.012 802.138, 794.909 808.750, 794.621 811.500 L 794.098 816.500 795.490 812.236 C 797.356 806.517, 800.335 788.438, 799.680 786.804 C 799.393 786.087, 799.122 785.863, 799.079 786.308 M 695.468 796.744 C 696.359 800.313, 698.755 802.965, 702.500 804.527 C 705.936 805.960, 716 807.491, 716 806.581 C 716 806.248, 713.638 804.917, 710.750 803.624 C 707.862 802.331, 703.088 799.633, 700.140 797.630 L 694.780 793.987 695.468 796.744 M 547.500 798.568 C 544.750 800.469, 540.587 802.756, 538.250 803.649 C 532.488 805.849, 532.760 807.412, 538.750 806.518 C 545.855 805.458, 549.729 803.493, 551.974 799.810 C 555.577 793.901, 554.629 793.638, 547.500 798.568 M 559 801.994 C 554.786 805.685, 548.595 809.093, 544.500 809.973 C 541.508 810.617, 541.500 810.636, 541.656 817.342 C 542.053 834.400, 544.921 834.917, 636 834.331 C 701.485 833.910, 703.765 833.593, 707.621 824.364 C 709.374 820.169, 709.459 811.067, 707.750 810.583 C 707.063 810.388, 704.630 809.722, 702.344 809.102 C 700.058 808.483, 695.544 806.030, 692.314 803.652 L 686.441 799.328 663.470 800.234 C 642.098 801.077, 575.648 800.516, 566.537 799.416 C 563.087 798.999, 561.991 799.374, 559 801.994 M 766 802.796 C 766 805.021, 770.104 814.842, 771.528 816.023 C 772.403 816.749, 771.783 814.323, 769.970 809.927 C 766.867 802.402, 766 800.845, 766 802.796 M 477.779 809.757 C 476.282 813.405, 475.263 816.597, 475.514 816.848 C 476.244 817.577, 481.181 806.151, 480.823 804.561 C 480.645 803.770, 479.275 806.108, 477.779 809.757 M 579.202 845.250 L 579.500 851.500 626 851.500 L 672.500 851.500 672.798 845.250 L 673.095 839 626 839 L 578.905 839 579.202 845.250 M 607.477 922.750 C 607.731 959.462, 607.615 995.125, 607.219 1002 L 606.500 1014.500 626.723 1014.565 L 646.945 1014.629 646.372 1012.345 C 646.056 1011.088, 645.731 975.397, 645.649 933.030 L 645.500 856.001 626.258 856.001 L 607.016 856 607.477 922.750 M 480.647 869.651 C 479.790 879.786, 479.949 897.383, 480.949 903 C 481.471 905.937, 481.793 899.596, 481.875 884.750 C 481.944 872.237, 481.841 862, 481.647 862 C 481.452 862, 481.002 865.443, 480.647 869.651 M 765.334 869.593 C 765.692 873.392, 766.058 883.475, 766.147 892 L 766.308 907.500 767.094 897.500 C 768.024 885.683, 767.146 864.209, 765.697 863.313 C 765.024 862.897, 764.901 865.012, 765.334 869.593 M 537.872 933.652 C 536.913 934.808, 536.395 939.170, 536.150 948.152 L 535.799 961 545.900 961 L 556 961 556 950 L 556 939 547 939 C 541.269 939, 538 938.611, 538 937.929 C 538 937.223, 541.067 936.968, 546.992 937.179 C 556.168 937.507, 557 937.194, 557 933.418 C 557 931.187, 539.744 931.399, 537.872 933.652 M 694.535 934.250 C 694.958 935.487, 695.498 942.028, 695.734 948.785 L 696.165 961.070 705.832 960.785 L 715.500 960.500 715.783 949.798 C 715.988 942.062, 715.656 938.112, 714.584 935.548 L 713.102 932 703.434 932 C 693.848 932, 693.773 932.019, 694.535 934.250 M 560.667 935.667 C 557.727 938.607, 560.186 939, 581.500 939 C 602.333 939, 603 938.938, 603 937 C 603 935.064, 602.333 935, 582.167 935 C 570.708 935, 561.033 935.300, 560.667 935.667 M 650 937 C 650 938.937, 650.667 939, 671 939 C 682.550 939, 692 938.812, 692 938.582 C 692 935.165, 691.004 935, 670.393 935 C 650.667 935, 650 935.065, 650 937 M 697 938 C 697 938.588, 700.500 939, 705.500 939 C 710.500 939, 714 938.588, 714 938 C 714 937.412, 710.500 937, 705.500 937 C 700.500 937, 697 937.412, 697 938 M 559 949.500 L 559 958 581 958 L 603 958 603 949.500 L 603 941 581 941 L 559 941 559 949.500 M 650 949.500 L 650 958 671 958 L 692 958 692 949.500 L 692 941 671 941 L 650 941 650 949.500 M 533.887 1010.698 C 531.224 1010.997, 529.974 1011.761, 529.137 1013.599 C 527.208 1017.833, 527.580 1018, 538.971 1018 L 549.943 1018 550.825 1014.750 C 551.310 1012.962, 551.563 1011.231, 551.388 1010.903 C 551.027 1010.223, 539.323 1010.085, 533.887 1010.698 M 701.556 1012.750 C 701.980 1013.712, 702.526 1021.113, 702.771 1029.195 C 703.285 1046.206, 701.934 1044.704, 716.250 1044.179 L 725 1043.858 725 1031.429 L 725 1019 714.250 1018.789 L 703.500 1018.578 713.750 1018.254 C 724.631 1017.910, 725.393 1017.471, 722.965 1012.934 C 721.454 1010.111, 700.315 1009.929, 701.556 1012.750 M 450.308 1013.194 C 447.560 1014.523, 446.860 1016.115, 446 1023 C 445.622 1026.025, 444.966 1029.296, 444.542 1030.269 C 443.860 1031.834, 444.080 1031.920, 446.451 1031.019 C 452.683 1028.649, 463.443 1030.176, 469.308 1034.262 C 473.388 1037.105, 471.944 1037.460, 466.930 1034.847 C 457.052 1029.698, 440 1031.949, 440 1038.402 C 440 1039.595, 440.708 1039.585, 444.750 1038.332 C 452.063 1036.066, 468 1039.241, 468 1042.964 C 468 1043.572, 466.261 1043.154, 464.003 1042.002 C 455.463 1037.645, 439.619 1038.686, 438.364 1043.687 C 437.575 1046.831, 438.153 1047.273, 441.426 1046.028 C 447.194 1043.835, 462.594 1045.917, 464.599 1049.160 C 465.723 1050.978, 464.334 1051.014, 460.912 1049.254 C 458.456 1047.992, 455.258 1047.517, 449.500 1047.560 C 438.798 1047.641, 437.321 1048, 436.028 1050.837 C 434.591 1053.992, 434.868 1054.151, 439.556 1052.857 C 446.502 1050.939, 463.325 1054.047, 461.549 1056.920 C 461.197 1057.491, 459.236 1057.102, 456.727 1055.963 C 448.553 1052.252, 435.340 1053.764, 433.106 1058.666 C 431.969 1061.163, 432.012 1061.209, 434.718 1060.366 C 439.343 1058.926, 451.135 1059.476, 455.404 1061.330 C 460.736 1063.647, 459.222 1064.605, 453.376 1062.612 C 448.535 1060.963, 441.259 1060.565, 434.967 1061.607 C 432.248 1062.057, 430.950 1063.033, 429.331 1065.846 C 428.174 1067.856, 424.203 1072.872, 420.507 1076.993 C 409.657 1089.092, 405.559 1099.764, 409.767 1104.960 L 411.740 1107.397 414.947 1104.698 C 420.207 1100.272, 428.777 1101.466, 436.188 1107.657 L 440.490 1111.251 448.807 1110.732 C 463.117 1109.840, 472.350 1103.942, 476.567 1093 C 479.205 1086.156, 482.292 1082.613, 490.679 1076.806 C 502.137 1068.872, 502.510 1068.155, 502.451 1054.171 C 502.422 1047.100, 501.708 1039.150, 500.641 1034 C 496.482 1013.933, 493.666 1008.883, 494.685 1023.321 C 495.263 1031.523, 495.233 1031.672, 492.501 1033.821 C 489.110 1036.488, 487.890 1036.515, 480.962 1034.081 L 475.500 1032.161 474.922 1026.331 C 474.167 1018.702, 472.720 1016.230, 467.669 1013.937 C 463.075 1011.851, 453.900 1011.459, 450.308 1013.194 M 601 1013 C 601 1013.550, 601.927 1014, 603.059 1014 C 604.191 1014, 604.840 1013.550, 604.500 1013 C 604.160 1012.450, 603.234 1012, 602.441 1012 C 601.648 1012, 601 1012.450, 601 1013 M 649 1013 C 648.175 1013.533, 647.725 1014.011, 648 1014.061 C 648.275 1014.112, 649.288 1014.304, 650.250 1014.488 C 651.248 1014.679, 652 1014.217, 652 1013.412 C 652 1011.768, 651.098 1011.644, 649 1013 M 780.212 1013.990 C 775.207 1016.261, 773 1020.396, 773 1027.499 C 773 1030.314, 772.521 1032.184, 771.750 1032.380 C 771.063 1032.554, 768.925 1033.271, 767 1033.974 C 755.543 1038.154, 752.439 1035.747, 753.313 1023.361 C 753.637 1018.763, 753.711 1015, 753.477 1015 C 751.049 1015, 746.280 1035.804, 745.316 1050.606 C 744.299 1066.229, 745.889 1069.597, 757.975 1077.415 C 765.653 1082.382, 768.729 1086.070, 771.910 1094.126 C 776.144 1104.847, 785.751 1110.396, 800.189 1110.461 C 808.668 1110.499, 808.960 1110.421, 812.254 1107.233 C 818.167 1101.511, 826.404 1100.428, 832.506 1104.569 C 837.335 1107.846, 839.167 1106.469, 839.167 1099.561 C 839.167 1093.058, 835.514 1086.092, 827.260 1076.856 C 823.503 1072.652, 819.580 1067.636, 818.543 1065.709 C 815.854 1060.717, 805.833 1059.376, 795.083 1062.568 C 788.713 1064.460, 787.173 1063.689, 792.596 1061.324 C 796.798 1059.492, 809.783 1058.877, 813.761 1060.321 C 815.884 1061.092, 815.952 1060.988, 814.873 1058.621 C 812.656 1053.755, 799.408 1052.270, 791.250 1055.973 C 786.290 1058.225, 785.470 1056.868, 790.250 1054.318 C 793.731 1052.461, 806.618 1051.813, 810.667 1053.291 C 812.541 1053.975, 812.758 1053.791, 812.271 1051.929 C 810.981 1046.994, 796.464 1045.245, 788.141 1049.022 C 783.166 1051.279, 783 1051.315, 783 1050.123 C 783 1046.629, 801.081 1043.560, 807.435 1045.975 C 809.170 1046.635, 810 1046.614, 810 1045.910 C 810 1039.227, 794.913 1036.865, 784.652 1041.942 C 780.602 1043.946, 779.260 1044.006, 780.419 1042.131 C 782.815 1038.255, 797.411 1035.985, 804.250 1038.426 C 808.104 1039.801, 808.741 1039.253, 807.021 1036.039 C 804.520 1031.367, 790.341 1030.477, 782.419 1034.496 C 776.726 1037.384, 777 1037.311, 777 1035.945 C 777 1033.214, 787.965 1029.780, 795.474 1030.159 L 802.807 1030.529 802.283 1025.015 C 801.626 1018.096, 800.188 1014.907, 797 1013.294 C 793.302 1011.423, 785.120 1011.763, 780.212 1013.990 M 554.667 1013.667 C 554.300 1014.033, 554 1015.383, 554 1016.667 L 554 1019 626.500 1019 C 694.887 1019, 698.999 1018.901, 698.985 1017.250 C 698.948 1013.006, 698.253 1012.878, 676.605 1013.106 C 657.326 1013.308, 655.826 1013.456, 654.869 1015.245 C 653.882 1017.090, 652.766 1017.143, 626.709 1016.582 C 604.067 1016.094, 599.439 1015.749, 598.739 1014.499 C 597.860 1012.927, 556.193 1012.141, 554.667 1013.667 M 527 1031.393 C 527 1040.390, 527.343 1043.915, 528.250 1044.257 C 528.938 1044.515, 534 1044.570, 539.500 1044.377 L 549.500 1044.027 549.780 1031.514 L 550.060 1019 538.530 1019 L 527 1019 527 1031.393 M 553 1030.500 L 553 1041 625.934 1041 L 698.867 1041 699.184 1030.912 C 699.358 1025.364, 699.313 1020.639, 699.083 1020.412 C 698.854 1020.186, 665.892 1020, 625.833 1020 L 553 1020 553 1030.500 M 432.500 1066.940 C 431.066 1067.599, 432.647 1067.879, 438.091 1067.930 C 442.266 1067.968, 447.870 1068.658, 450.544 1069.463 C 456.411 1071.229, 457.393 1070.777, 452.843 1068.405 C 449.065 1066.435, 435.692 1065.472, 432.500 1066.940 M 502.185 1069.412 C 501.066 1071.307, 496.826 1075.081, 492.643 1077.904 C 484.226 1083.583, 480.344 1088.013, 479.340 1093.084 C 478.706 1096.281, 478.777 1096.404, 480.443 1095 C 481.422 1094.175, 486.326 1091.475, 491.340 1089 C 502.622 1083.431, 505 1080.446, 505 1071.852 C 505 1065.022, 504.851 1064.893, 502.185 1069.412 M 743.171 1073.017 C 743.565 1079.990, 743.743 1080.438, 747.352 1083.558 C 749.425 1085.351, 753.682 1087.828, 756.811 1089.064 C 759.940 1090.300, 764.034 1092.444, 765.910 1093.828 L 769.319 1096.345 768.651 1093.006 C 767.694 1088.219, 763.614 1083.359, 757.132 1079.282 C 750.572 1075.157, 745 1070.142, 745 1068.363 C 745 1067.678, 744.496 1066.806, 743.880 1066.426 C 743.078 1065.930, 742.876 1067.806, 743.171 1073.017 M 797.625 1067.469 C 793.601 1068.903, 790.664 1071, 792.678 1071 C 793.271 1071, 795.446 1070.294, 797.512 1069.430 C 800.185 1068.314, 803.685 1067.953, 809.637 1068.180 C 817.783 1068.492, 820.307 1067.852, 815.750 1066.630 C 811.798 1065.571, 801.629 1066.042, 797.625 1067.469 M 475.328 1100.023 C 471.114 1107.155, 459.755 1112.301, 447.968 1112.416 C 439.112 1112.503, 438.669 1112.351, 431.791 1106.841 C 427.333 1103.269, 419.222 1103.101, 415.186 1106.497 C 412.109 1109.086, 411.854 1109.134, 409.483 1107.581 C 407.112 1106.027, 407 1106.048, 407 1108.043 C 407 1116.324, 420.667 1120.562, 444.850 1119.780 C 467.007 1119.063, 475.251 1114.229, 477.303 1100.750 C 477.994 1096.210, 477.654 1096.085, 475.328 1100.023 M 770.733 1101 C 771.821 1110.025, 776.268 1114.767, 786.651 1117.974 C 800.928 1122.384, 835.800 1119.173, 838.871 1113.166 C 839.340 1112.250, 840.024 1110.243, 840.391 1108.707 C 841.058 1105.921, 841.054 1105.918, 838.530 1107.572 C 835.852 1109.327, 835.844 1109.324, 829.531 1104.613 C 826.850 1102.613, 817.396 1104.969, 812.996 1108.735 C 802.706 1117.544, 779.565 1111.793, 771.345 1098.384 C 770.401 1096.843, 770.289 1097.320, 770.733 1101" stroke="none" fill="currentColor" fill-rule="evenodd"/>
</svg>