<svg xmlns="http://www.w3.org/2000/svg" width="1254" height="1254" viewBox="0 0 1254 1254" version="1.1">
	<path d="M 455.189 54.486 C 435.448 57.547, 431.018 62.409, 431.006 81.027 C 431.002 87.237, 431.435 90.177, 432.602 91.842 C 434.694 94.830, 434.663 94.841, 426.533 93.964 C 418.341 93.081, 410.472 94.156, 381.862 100.066 C 364.081 103.740, 361.733 111.346, 366.450 150 C 367.893 161.825, 369.343 174.266, 369.672 177.646 L 370.270 183.791 345.885 184.234 C 324.029 184.631, 320.774 184.911, 314.500 186.936 C 294.025 193.545, 279.909 209.279, 274.275 231.772 C 272.713 238.005, 272.566 264.046, 272.279 585.498 L 271.969 932.495 262.684 941.998 C 257.577 947.224, 251.284 953.843, 248.700 956.707 L 244 961.914 244 978.422 C 244 993.817, 244.133 995.001, 245.968 995.983 C 247.231 996.659, 256.448 996.940, 271.689 996.768 L 295.442 996.500 304.816 985.250 L 314.191 974 385.465 974 L 456.738 974 457.938 983.250 C 458.598 988.337, 459.395 997.256, 459.709 1003.068 L 460.280 1013.637 456.584 1015.818 C 451.924 1018.567, 449.143 1024.592, 448.317 1033.724 C 447.851 1038.877, 447.034 1041.458, 444.906 1044.500 C 443.367 1046.700, 440.934 1052.728, 439.498 1057.896 C 435.065 1073.851, 429.190 1084.927, 419.102 1096.343 C 413.831 1102.308, 409 1110.579, 409 1113.638 C 409 1114.575, 407.602 1118.212, 405.893 1121.719 C 401.612 1130.506, 401.858 1141.154, 406.451 1145.949 C 412.762 1152.537, 430.610 1155.709, 455.500 1154.667 C 487.850 1153.313, 503.017 1145.274, 507.033 1127.352 C 508.387 1121.310, 509.568 1120.002, 519.745 1113.274 C 524.280 1110.276, 528.830 1106.625, 529.856 1105.161 C 534.849 1098.041, 535.182 1086.788, 530.708 1076.410 C 528.947 1072.327, 527.979 1067.873, 527.575 1062 C 527.253 1057.325, 526.335 1051.049, 525.534 1048.053 C 524.733 1045.058, 523.571 1039.208, 522.952 1035.053 C 521.569 1025.771, 519.328 1020.489, 514.980 1016.264 L 511.650 1013.029 512.862 998.764 C 513.529 990.919, 514.335 983.263, 514.654 981.750 L 515.233 979 551.245 979 L 587.257 979 586.597 991.250 C 585.437 1012.778, 585.286 1013.498, 581.688 1014.569 C 577.390 1015.849, 577.215 1016.959, 577.100 1043.679 C 577.014 1063.507, 577.227 1067.084, 578.571 1068.429 C 579.954 1069.811, 585.646 1070, 626.015 1070 L 671.887 1070 673.443 1067.777 C 675.210 1065.255, 675.418 1056.979, 674.340 1032.070 C 673.639 1015.863, 673.042 1014, 668.557 1014 C 666.319 1014, 666.239 1013.668, 665.575 1001.750 C 665.200 995.013, 664.019 976.225, 662.949 960 C 657.344 874.966, 655.985 849.615, 656.975 848.625 C 657.548 848.052, 658 842.843, 658 836.800 L 658 826 673.250 825.996 C 692.847 825.991, 695.936 824.506, 697.568 814.301 L 698.199 810.352 703.850 810.781 C 713.066 811.481, 714.004 812.545, 713.979 822.273 C 713.968 826.798, 713.086 835.790, 712.020 842.255 C 706.704 874.482, 708.973 900.329, 719.135 923.332 C 726.884 940.873, 730.670 956.713, 733.456 983.242 C 735.690 1004.512, 735.559 1014.631, 733.031 1015.983 C 729.438 1017.906, 726.147 1025.149, 724.482 1034.797 C 723.603 1039.889, 722.243 1047.080, 721.459 1050.777 C 720.676 1054.475, 720.027 1060.350, 720.017 1063.832 C 720.004 1068.688, 719.284 1071.795, 716.931 1077.157 C 714.426 1082.864, 713.857 1085.513, 713.833 1091.575 C 713.795 1101.322, 715.754 1105.093, 724.073 1111.282 C 736.840 1120.780, 737.884 1121.828, 738.499 1125.772 C 741.061 1142.192, 750.277 1149.878, 772 1153.712 C 790.906 1157.048, 826.906 1154.039, 835.506 1148.404 C 841.204 1144.670, 843.013 1132.030, 839.087 1123.384 C 838.059 1121.120, 836.888 1117.745, 836.485 1115.884 C 835.231 1110.094, 830.432 1101.787, 824.193 1094.606 C 816.465 1085.712, 809.912 1073.186, 806.100 1060.024 C 804.323 1053.889, 801.823 1047.784, 800.066 1045.292 C 797.701 1041.936, 796.851 1039.312, 796.044 1032.879 C 794.892 1023.692, 792.856 1019.420, 788.240 1016.500 C 785.390 1014.698, 785.073 1014.006, 785.039 1009.500 C 784.964 999.753, 789.423 968.465, 796.013 932.500 C 804.854 884.252, 804.816 857.764, 795.863 827.031 C 791.166 810.907, 790.395 802.134, 791.888 781.824 C 793.390 761.394, 792.371 748.764, 787.826 731.500 C 785.122 721.231, 774.608 705.747, 760.157 690.757 L 751.500 681.777 751.437 634.018 L 751.373 586.259 758.393 585.670 C 770.338 584.669, 770.447 584.483, 770.774 564.643 C 770.925 555.490, 771.354 548, 771.727 548 C 772.100 548, 773.776 549.319, 775.452 550.931 C 781.589 556.832, 794.588 561.804, 811.091 564.564 C 834.648 568.503, 849.635 562.253, 852.877 547.139 C 853.827 542.709, 855.091 530.577, 862.999 450 C 873.413 343.901, 873.327 347.659, 865.517 339 L 863.262 336.500 865.605 317 C 866.894 306.275, 869.973 279.275, 872.449 257 C 874.924 234.725, 879.207 196.925, 881.967 173 C 890.281 100.928, 891.519 104.246, 853.567 96.881 C 838.265 93.912, 824.832 92.966, 819.950 94.516 C 817.821 95.191, 817.366 94.034, 819.084 92.316 C 819.784 91.616, 820.050 86.851, 819.834 78.866 C 819.360 61.335, 816.089 57.632, 798.269 54.455 C 787.238 52.488, 467.889 52.517, 455.189 54.486 M 460.500 59.140 C 440.634 61.387, 437 64.321, 437 78.112 C 437 86.445, 437.126 87.003, 438.809 86.102 C 442.180 84.298, 458.439 81.979, 472 81.367 C 492.648 80.437, 514.766 83.158, 530.575 88.576 L 537.650 91 626.497 91 L 715.343 91 721.607 88.494 C 742.431 80.163, 796.153 78.964, 813.250 86.448 C 814.838 87.143, 815 86.442, 814.996 78.857 C 814.991 66.422, 812.090 62.898, 799.308 59.794 C 793.350 58.347, 472.979 57.729, 460.500 59.140 M 465.500 86.601 C 453.946 87.779, 445 89.308, 445 90.103 C 445 90.596, 446.146 91, 447.548 91 C 449.012 91, 451.128 92.114, 452.522 93.618 C 454.789 96.064, 455.922 96.326, 469.724 97.601 C 508.292 101.161, 518.596 104.846, 519.199 115.296 L 519.500 120.500 524.808 120.277 C 534.918 119.852, 535.500 119.129, 535.500 106.987 L 535.500 96.500 531.937 94.757 C 520.466 89.145, 484.200 84.693, 465.500 86.601 M 754.500 87.049 C 742.178 88.179, 726.902 91.509, 720.958 94.361 L 716.500 96.500 716.216 107.262 C 715.890 119.610, 715.560 119.176, 726.315 120.520 L 732 121.230 732.006 118.365 C 732.009 116.789, 732.491 113.773, 733.077 111.662 C 735.127 104.278, 748.600 100.617, 786.615 97.112 C 795.500 96.293, 797.044 95.865, 799.319 93.590 C 800.744 92.165, 802.830 91, 803.955 91 C 805.080 91, 806 90.605, 806 90.122 C 806 87.542, 771.543 85.486, 754.500 87.049 M 439 95 C 442.612 96.157, 445.215 96.157, 444.500 95 C 444.160 94.450, 442.221 94.045, 440.191 94.100 C 436.876 94.189, 436.754 94.281, 439 95 M 808 95 C 806.813 95.767, 807.021 95.969, 809 95.969 C 810.375 95.969, 812.175 95.533, 813 95 C 814.187 94.233, 813.979 94.031, 812 94.031 C 810.625 94.031, 808.825 94.467, 808 95 M 541 107.545 C 541 118.289, 540.839 119.252, 538.679 121.412 C 536.578 123.513, 527.358 126, 521.668 126 C 520.333 126, 520 126.998, 520 131 L 520 136 535 136 L 550 136 550 119.200 C 550 107.467, 550.362 102.038, 551.200 101.200 C 552.915 99.485, 578.368 99.533, 579.796 101.254 C 580.368 101.944, 580.986 104.081, 581.168 106.004 L 581.500 109.500 626 109.500 L 670.500 109.500 670.832 106.004 C 671.014 104.081, 671.632 101.944, 672.204 101.254 C 673.632 99.533, 699.085 99.485, 700.800 101.200 C 701.638 102.038, 702 107.467, 702 119.200 L 702 136 717 136 L 732 136 732 131.153 L 732 126.306 724.344 125.231 C 712.105 123.514, 711.558 122.802, 711.219 108.144 L 710.938 96 625.969 96 L 541 96 541 107.545 M 418.368 100.482 C 418.056 101.297, 417.957 106.013, 418.150 110.961 C 418.722 125.663, 416.137 124.611, 460 128.002 C 486.781 130.072, 501.839 132.547, 512.467 136.626 C 513.794 137.135, 514 135.523, 514 124.627 L 514 112.041 510.165 110.084 C 502.951 106.404, 482.353 103.449, 443.500 100.522 C 418.886 98.667, 419.065 98.667, 418.368 100.482 M 812 100.134 C 766.463 104.006, 750.868 106.195, 742.523 109.887 L 738 111.888 738 124.867 L 738 137.847 740.750 136.475 C 748.518 132.602, 765.562 130.027, 802.903 127.085 C 834.222 124.618, 834.444 124.475, 833.791 107.201 L 833.500 99.500 828 99.370 C 824.975 99.299, 817.775 99.642, 812 100.134 M 407.667 100.667 C 406.824 101.509, 406.794 114.718, 407.625 118.875 C 408.158 121.539, 408.691 122, 411.242 122 C 413.856 122, 414.157 121.716, 413.630 119.750 C 413.299 118.513, 413.021 113.563, 413.014 108.750 C 413 100.254, 412.932 100, 410.667 100 C 409.383 100, 408.033 100.300, 407.667 100.667 M 838.386 111.017 L 838.272 122.107 840.868 121.803 C 843.916 121.447, 845.310 115.877, 844.796 106.115 C 844.510 100.683, 844.402 100.491, 841.500 100.213 L 838.500 99.927 838.386 111.017 M 389 104.045 C 376.711 106.473, 373.262 108.130, 371.445 112.478 C 368.338 119.913, 368.668 123.488, 383.491 243 C 387.004 271.325, 390.807 302.600, 391.943 312.500 C 396.368 351.095, 395.129 348.374, 408 347.766 C 419.972 347.202, 426 344.479, 426 339.636 C 426 335.446, 421.734 297.933, 415.010 243 C 400.523 124.636, 401.031 129.512, 401.690 115.250 C 402.401 99.866, 403.818 101.118, 389 104.045 M 426.455 104.455 C 422.006 108.903, 423.495 119.054, 429.031 122.016 C 436.910 126.233, 442.887 111.733, 436.077 104.923 C 432.509 101.356, 429.691 101.218, 426.455 104.455 M 815.574 104.514 C 809.851 110.690, 812.357 122, 819.448 122 C 827.039 122, 830.869 110.715, 825.202 105.048 C 821.496 101.342, 818.660 101.185, 815.574 104.514 M 849.847 109.662 C 849.763 113.973, 849.793 121.325, 849.913 126 C 850.033 130.675, 849.222 142.375, 848.112 152 C 847.002 161.625, 844.037 187.275, 841.522 209 C 839.008 230.725, 835.822 258.400, 834.442 270.500 C 833.062 282.600, 830.831 302.175, 829.483 314 C 828.135 325.825, 826.834 336.924, 826.593 338.664 C 826.294 340.819, 826.704 342.327, 827.876 343.388 C 833.959 348.893, 854.551 350.218, 856.466 345.228 C 856.824 344.295, 860.897 309.999, 865.516 269.016 C 870.136 228.032, 875.789 178.300, 878.078 158.500 C 883.677 110.069, 883.430 108.866, 867.127 105.135 C 862.382 104.049, 856.587 102.860, 854.250 102.492 L 850 101.824 849.847 109.662 M 555.759 105.574 C 555.406 105.927, 555.079 154.318, 555.031 213.108 L 554.946 320 564.914 320 C 570.481 320, 575.155 319.558, 575.500 319 C 575.840 318.450, 575.238 318, 574.163 318 C 573.087 318, 570.861 316.467, 569.216 314.593 C 559.901 303.984, 558.298 274, 567.046 274 C 568.596 274, 568.828 272.422, 569.209 259.250 C 569.593 245.960, 569.921 243.758, 572.525 237 L 575.415 229.500 575.458 167.500 L 575.500 105.500 565.950 105.216 C 560.698 105.060, 556.112 105.221, 555.759 105.574 M 676.453 106.261 C 676.187 106.955, 676.092 134.967, 676.243 168.511 L 676.517 229.500 679.380 237 C 681.921 243.655, 682.303 246.163, 682.767 259.250 C 683.229 272.260, 683.491 274, 684.990 274 C 695.051 274, 690.566 312.483, 679.958 317.179 C 675.043 319.354, 676.540 320, 686.500 320 L 696 320 696 212.500 L 696 105 686.469 105 C 679.721 105, 676.796 105.368, 676.453 106.261 M 428.626 108.533 C 427.522 111.409, 427.954 114.811, 429.636 116.493 C 431.969 118.826, 433.185 117.067, 432.814 111.894 C 432.486 107.321, 429.890 105.237, 428.626 108.533 M 819.035 108.934 C 817.765 111.307, 817.721 115.010, 818.939 116.936 C 821.118 120.378, 825.004 112.744, 822.989 108.979 C 821.651 106.479, 820.357 106.464, 819.035 108.934 M 581 167.593 L 581 220.185 586.105 215.595 C 607.673 196.204, 644.577 196.090, 665.684 215.350 L 671 220.201 671 167.600 L 671 115 626 115 L 581 115 581 167.593 M 412.522 127.913 C 409.095 129.252, 413.368 130.687, 438.252 136.551 C 451.038 139.564, 463.127 142.473, 465.116 143.015 C 469.621 144.242, 472.733 144.303, 471.450 143.137 C 470.927 142.663, 465.550 141.253, 459.500 140.005 C 444.244 136.857, 439.194 135.231, 438.054 133.100 C 437.278 131.651, 435.508 131.167, 429.596 130.788 C 425.049 130.496, 421.130 129.660, 419.595 128.654 C 416.857 126.860, 415.564 126.725, 412.522 127.913 M 831.500 128.783 C 829.850 129.648, 824.979 130.560, 820.675 130.810 C 813.670 131.218, 812.759 131.504, 811.987 133.535 C 811.111 135.837, 806.205 137.339, 787.500 141.032 C 780.824 142.350, 777.087 143.918, 780.500 143.969 C 783.827 144.019, 837.170 131.104, 838.625 129.897 C 842.116 126.999, 836.563 126.131, 831.500 128.783 M 447 132.836 C 447.825 133.331, 459.525 135.870, 473 138.476 C 501.339 143.959, 504 144.815, 504 148.449 C 504 150.686, 504.421 151, 507.418 151 C 512.770 151, 514 150.155, 514 146.482 C 514 140.660, 504.816 137.720, 477 134.640 C 457.818 132.516, 445.203 131.757, 447 132.836 M 795 132.667 C 749.815 137.148, 738.890 139.564, 737.790 145.318 C 737.056 149.157, 738.271 150.224, 744.002 150.774 C 749.167 151.270, 749.206 151.253, 748.006 149.011 C 745.978 145.222, 746.889 144.918, 779.500 138.471 C 807.581 132.920, 813.031 130.879, 795 132.667 M 407.980 136.683 C 407.969 137.682, 409.184 148.738, 410.680 161.250 L 413.399 184 456.700 184 L 500 184 500 178 L 500 172 490.434 172 C 477.434 172, 477 171.697, 477 162.629 L 477 155.328 471.093 153.686 C 465.558 152.147, 462.635 150.365, 461.839 148.047 C 461.653 147.503, 450.250 144.557, 436.500 141.502 C 422.750 138.446, 410.712 135.702, 409.750 135.405 C 408.531 135.029, 407.994 135.416, 407.980 136.683 M 815.639 141.123 C 794.094 146.227, 790.517 147.344, 788.823 149.497 C 787.650 150.989, 784.696 152.614, 781.434 153.562 L 776 155.142 776 162.014 C 776 171.472, 775.149 172, 759.900 172 C 746.254 172, 746.227 171.982, 745.803 162.981 L 745.500 156.539 740.500 155.738 C 734.044 154.703, 732 152.335, 732 145.889 L 732 141 717 141 L 702 141 702.009 230.750 L 702.019 320.500 709.498 322.771 C 719.229 325.726, 726.362 331.403, 730.497 339.484 C 733.481 345.315, 733.502 345.473, 733.842 364.676 L 734.184 384 741.842 384.015 C 754.517 384.039, 766.714 387.880, 775.816 394.713 C 777.639 396.082, 779.270 397.044, 779.440 396.851 C 779.610 396.658, 780.873 384.559, 782.245 369.964 C 784.986 340.821, 785.719 338.088, 792.355 332.261 C 797.570 327.683, 801.911 326.627, 812.627 327.331 C 823.112 328.019, 822.408 328.564, 823.416 319 C 823.735 315.975, 828.258 276.375, 833.466 231 C 845.605 125.247, 844.700 134.974, 842.388 135.117 C 841.350 135.181, 829.313 137.884, 815.639 141.123 M 520 146 C 520 152.883, 517.853 154.972, 509.500 156.221 C 507.774 156.479, 507.459 157.409, 507.197 163.010 C 507.031 166.580, 506.468 169.928, 505.947 170.450 C 505.363 171.036, 505 212.151, 505 277.785 L 505 384.169 511.250 383.790 L 517.500 383.411 518.007 364.456 C 518.451 347.857, 518.781 344.922, 520.656 340.851 C 524.601 332.289, 534.006 324.960, 544.767 322.063 L 549 320.923 549.008 311.211 C 549.013 305.870, 549.306 265.387, 549.659 221.250 L 550.301 141 535.150 141 L 520 141 520 146 M 759.800 147.028 C 750.127 148.658, 750.540 151, 760.500 151 C 767.192 151, 768 150.796, 768 149.107 C 768 147.637, 765.589 145.474, 764.668 146.118 C 764.576 146.182, 762.385 146.592, 759.800 147.028 M 484.446 148.087 C 483.236 150.045, 485.392 150.859, 492.442 151.105 C 499.858 151.364, 502.348 149.843, 497.516 148.006 C 493.993 146.666, 485.291 146.720, 484.446 148.087 M 472 148.939 C 475.336 150.892, 481 151.315, 481 149.611 C 481 148.330, 479.924 148.006, 475.750 148.030 C 472.252 148.051, 471 148.354, 472 148.939 M 770 149.628 C 770 150.983, 770.713 151.142, 774.250 150.577 C 780.715 149.544, 781.284 148, 775.200 148 C 771.063 148, 770 148.333, 770 149.628 M 483.750 156.689 C 482.382 157.047, 482 158.222, 482 162.073 L 482 167 492 167 L 502 167 502 162.475 C 502 158.538, 501.667 157.824, 499.435 156.975 C 496.875 156.002, 487.065 155.823, 483.750 156.689 M 753.250 156.706 C 751.277 157.086, 751 157.750, 751 162.106 L 751 167.072 760.750 166.786 L 770.500 166.500 770.500 162.045 C 770.500 158.145, 770.188 157.504, 768 156.895 C 765.255 156.131, 756.796 156.023, 753.250 156.706 M 326 190.060 C 301.392 193.078, 284.421 209.753, 279.410 235.838 C 278.213 242.065, 278 296.090, 278 592.623 L 278 942.070 288.250 941.785 L 298.500 941.500 299 591 C 299.483 252.253, 299.562 240.332, 301.362 235.500 C 303.978 228.479, 304.696 227.285, 309.322 222.266 C 317.904 212.956, 325.706 211, 354.251 211 C 372.707 211, 374.100 210.874, 373.648 209.250 C 373.380 208.287, 372.865 204.350, 372.505 200.500 C 371.305 187.702, 373.651 188.980, 351.642 189.131 C 341.114 189.204, 329.575 189.622, 326 190.060 M 414.316 191.250 C 414.609 192.488, 415.144 196.650, 415.505 200.500 C 415.865 204.350, 416.380 208.287, 416.648 209.250 C 417.099 210.870, 419.523 211, 449.393 211 L 481.652 211 483.187 200.750 C 484.031 195.113, 484.533 190.162, 484.302 189.750 C 484.071 189.338, 468.110 189, 448.833 189 L 413.783 189 414.316 191.250 M 489.566 190.250 C 489.362 190.938, 488.476 196.092, 487.598 201.705 C 485.469 215.301, 485.145 389.541, 487.250 388.736 C 487.938 388.473, 491.087 387.442, 494.250 386.446 L 500 384.635 500 286.817 L 500 189 494.969 189 C 491.808 189, 489.799 189.465, 489.566 190.250 M 610 208.345 C 600.448 211.195, 594.554 214.695, 587.736 221.568 C 577.055 232.334, 573.538 244.131, 574.257 266.780 C 574.710 281.020, 574.331 283.309, 571.991 280.489 C 570.554 278.757, 567.415 278.520, 566.456 280.070 C 564.472 283.282, 567.175 301.536, 570.634 308.290 C 572.694 312.311, 573.918 313.157, 576.719 312.499 C 578.690 312.036, 579.121 312.620, 580.581 317.739 C 585.498 334.978, 601.620 351.757, 616.459 355.078 C 624.470 356.871, 636.434 355.864, 643.039 352.840 C 649.902 349.698, 660.151 340.339, 665.118 332.678 C 668.847 326.926, 669.851 324.526, 671.974 316.281 C 672.993 312.325, 673.241 312.098, 675.954 312.641 C 678.537 313.157, 679.057 312.806, 680.800 309.360 C 684.542 301.964, 687.202 285.296, 685.393 280.582 C 684.621 278.571, 681.628 278.539, 679.980 280.524 C 677.889 283.043, 677.692 281.725, 677.471 263.758 C 677.174 239.663, 674.469 231.260, 663.546 220.500 C 650.226 207.379, 629.220 202.611, 610 208.345 M 350 216.920 C 334.057 217.480, 333.316 217.601, 328.061 220.500 C 317.342 226.412, 313.104 235.654, 313.042 253.250 L 313 265 346.500 265 L 380 265 379.943 261.750 C 379.911 259.962, 378.674 249.050, 377.193 237.500 L 374.500 216.500 370.500 216.420 C 368.300 216.376, 359.075 216.601, 350 216.920 M 417.977 218.408 C 417.964 219.559, 419.168 230.512, 420.653 242.750 L 423.353 265 442.177 265 L 461 265 461 298.067 L 461 331.133 463.514 334.429 C 467.725 339.950, 468.873 345.523, 470.978 370.646 C 472.090 383.927, 473 395.552, 473 396.481 C 473 397.817, 473.834 397.508, 477.005 394.996 L 481.011 391.823 480.755 304.353 L 480.500 216.883 449.250 216.600 C 418.126 216.318, 418 216.325, 417.977 218.408 M 318.500 219.844 C 308.730 225.826, 304.274 235.588, 303.334 253.070 L 302.693 265 305.346 265 C 307.951 265, 308.001 264.877, 308.044 258.250 C 308.161 240.176, 311.282 229.888, 318.962 222.250 C 323.526 217.711, 323.364 216.867, 318.500 219.844 M 303.497 283.052 C 303.098 290.231, 302.962 296.295, 303.195 296.528 C 303.529 296.862, 350.091 297.164, 379.561 297.024 L 384.623 297 382.890 283.750 C 381.936 276.462, 381.121 270.387, 381.078 270.250 C 381.035 270.113, 363.725 270, 342.612 270 L 304.223 270 303.497 283.052 M 424.443 274.225 C 424.758 276.576, 425.488 282.538, 426.064 287.472 C 426.640 292.407, 427.214 296.548, 427.340 296.673 C 427.465 296.799, 434.078 296.971, 442.034 297.056 L 456.500 297.210 456.500 283.855 L 456.500 270.500 440.185 270.225 L 423.870 269.950 424.443 274.225 M 325.750 302.780 L 313 303.060 313 601.030 L 313 899 326.500 899 L 340 899 340 891.500 L 340 884 329.934 884 C 324.398 884, 318.998 883.534, 317.934 882.965 C 316.039 881.951, 316 879.626, 316.015 768.215 C 316.025 698.540, 316.397 653.919, 316.976 653 C 317.655 651.923, 320.401 651.359, 326.711 651 L 335.500 650.500 335.801 644.727 C 336.031 640.296, 336.554 638.671, 338.051 637.736 C 339.970 636.537, 340 633.994, 340 469.818 C 340 378.133, 339.663 302.979, 339.250 302.809 C 338.837 302.639, 332.762 302.626, 325.750 302.780 M 356 469.528 C 356 635.318, 356.015 636.568, 358 638.268 C 359.554 639.598, 360 641.218, 360 645.525 L 360 651.070 370.250 650.785 L 380.500 650.500 380.796 642.547 C 380.958 638.173, 381.475 634.123, 381.943 633.547 C 382.412 632.971, 382.802 629.013, 382.810 624.750 L 382.824 617 378.567 617 C 371.363 617, 370.997 616, 371.022 596.421 C 371.040 582.220, 371.337 578.856, 372.865 575.491 C 374.962 570.876, 381.182 565, 383.971 565 C 385.805 565, 385.884 563.421, 386.233 519.750 C 386.555 479.300, 386.783 474, 388.378 469.787 C 390.146 465.119, 390.114 464.564, 385.078 412.287 C 378.645 345.504, 378.615 348.064, 385.923 339.741 L 389.096 336.127 387.414 320.814 C 386.490 312.391, 385.423 304.912, 385.044 304.192 C 384.534 303.224, 380.678 302.835, 370.178 302.692 L 356 302.500 356 469.528 M 303.939 304.750 C 303.534 316.411, 303.298 906.129, 303.698 907.811 C 304.233 910.063, 304.297 910.040, 306.177 906.949 C 308.047 903.874, 308.106 900.891, 308.083 809.638 C 308.070 757.862, 308.046 622.688, 308.029 509.250 C 308 303.676, 307.993 303, 306 303 C 304.785 303, 303.976 303.687, 303.939 304.750 M 344.983 307.250 C 344.974 309.587, 344.861 384.738, 344.733 474.250 L 344.500 637 347.750 637 L 351 637 351 470 L 351 303 348 303 C 345.140 303, 344.999 303.198, 344.983 307.250 M 428.048 304.750 C 428.152 308.567, 430.685 327.018, 431.171 327.504 C 431.456 327.790, 435.128 327.545, 439.330 326.960 C 444.664 326.218, 448.106 326.213, 450.735 326.943 C 452.806 327.518, 454.837 327.991, 455.250 327.994 C 455.663 327.997, 456 322.375, 456 315.500 L 456 303 442 303 C 429.315 303, 428.004 303.164, 428.048 304.750 M 549.176 326.070 C 538.734 328.125, 530.133 334.098, 525.712 342.366 C 523.698 346.131, 523.471 348.175, 523.172 365.250 L 522.844 384 526.823 384 C 529.490 384, 533.363 382.690, 538.574 380.025 C 542.848 377.839, 552.623 373.958, 560.296 371.401 C 569.552 368.316, 575.298 365.813, 577.373 363.961 L 580.500 361.169 580.830 347.439 C 581.094 336.455, 580.828 332.837, 579.497 329.354 L 577.835 325 565.667 325.110 C 558.975 325.170, 551.554 325.602, 549.176 326.070 M 673.201 328.321 C 672.482 330.308, 672 337.248, 672 345.598 C 672 364.410, 671.530 363.834, 692.823 371.126 C 699.246 373.326, 708.775 377.237, 714 379.817 C 720.064 382.811, 724.495 384.392, 726.250 384.187 L 729 383.867 729 368.483 C 729 343.741, 726.119 336.436, 713.919 330.241 C 705.854 326.146, 699.656 325, 685.564 325 L 674.402 325 673.201 328.321 M 435.541 332.834 L 431.583 333.500 431.852 338.504 C 432.088 342.868, 431.762 343.853, 429.311 346.201 C 424.280 351.018, 417.473 353.323, 408 353.416 C 397.606 353.519, 393.576 352.029, 391.079 347.162 L 389.255 343.607 387.502 346.995 C 386.381 349.164, 385.763 352.565, 385.785 356.442 C 385.874 371.640, 403.937 543.066, 406.034 548.598 C 410.279 559.802, 425.402 562.953, 449.114 557.574 C 461.900 554.673, 470.673 550.443, 476.647 544.295 C 482.243 538.537, 481.990 536.986, 475.206 535.459 C 466.785 533.562, 462 527.644, 462 519.124 C 462 516.834, 460.912 513.088, 459.401 510.176 C 457.047 505.638, 456.901 504.712, 457.844 500.333 C 458.679 496.461, 458.606 495.215, 457.476 494.068 C 455.330 491.890, 452.050 499.816, 452.022 507.250 C 452.001 512.782, 450.876 514.724, 449.607 511.418 C 447.912 507.002, 449.061 497.455, 451.908 492.291 L 454.780 487.083 451.640 486.069 C 447.402 484.701, 439.770 484.398, 432.500 485.309 C 426.970 486.001, 426.654 485.939, 428.469 484.510 C 431.301 482.280, 437.205 480.899, 444.051 480.867 C 448.564 480.845, 450 480.489, 450 479.391 C 450 478.595, 449.332 471.543, 448.514 463.722 C 447.697 455.900, 444.783 426.535, 442.038 398.466 C 439.293 370.397, 436.534 345.962, 435.908 344.165 C 434.445 339.968, 435.589 338.818, 438.047 342.015 C 440.529 345.244, 440.418 344.480, 444.533 387 C 446.476 407.075, 449.176 434.833, 450.533 448.685 C 451.890 462.537, 453 475.448, 453 477.376 C 453 479.304, 453.407 481.134, 453.905 481.441 C 455.305 482.306, 460 473.523, 460 470.040 C 460 464.550, 462.565 460.184, 467.519 457.241 L 472.133 454.500 471.510 444.500 C 471.167 439, 469.149 414.353, 467.025 389.728 C 462.787 340.580, 462.489 339.172, 455.352 334.495 C 452.364 332.537, 442.312 331.695, 435.541 332.834 M 800.500 333.360 C 796.687 335.135, 792.459 339.636, 790.975 343.500 C 789.816 346.520, 779.617 453.950, 780.414 454.748 C 780.649 454.983, 782.331 455.923, 784.151 456.838 C 788.671 459.108, 792 464.360, 792 469.220 C 792 472.894, 796.993 483.647, 797.664 481.419 C 797.816 480.913, 799.318 467, 801 450.500 C 812.044 342.200, 811.756 344.436, 815.053 341.452 C 817.763 338.999, 818.556 340.287, 816.754 344.214 C 815.924 346.021, 814.754 352.225, 814.152 358 C 813.551 363.775, 811.244 385.600, 809.027 406.500 C 806.810 427.400, 804.186 452.712, 803.196 462.750 L 801.397 481 808.549 481 C 815.988 481, 821.458 482.288, 823.964 484.631 C 825.816 486.362, 824.537 486.429, 816.985 484.997 C 811.609 483.978, 799.557 485.289, 798.494 487.009 C 798.221 487.451, 799.199 490.126, 800.666 492.954 C 802.686 496.848, 803.333 499.548, 803.333 504.081 C 803.333 512.380, 801.461 513.885, 800.540 506.325 C 799.627 498.839, 796.306 490.899, 794.973 493.017 C 794.459 493.833, 794.080 497.541, 794.129 501.258 C 794.196 506.233, 793.740 508.739, 792.401 510.758 C 791.401 512.266, 790.280 516.359, 789.910 519.853 C 788.903 529.362, 784.015 534.793, 775.614 535.740 C 773.076 536.026, 771 536.585, 771 536.982 C 771 538.869, 776.049 544.833, 780.524 548.233 C 793.410 558.024, 825.215 563.718, 837 558.343 C 847.349 553.623, 847.625 552.501, 853.433 491.500 C 854.270 482.700, 856.532 459.525, 858.458 440 C 865.481 368.824, 866 363.081, 866 356.548 C 866 349.301, 863.212 341.469, 862.068 345.500 C 859.932 353.024, 851.624 355.526, 837.465 352.909 C 825.480 350.693, 820.533 346.334, 821.154 338.533 C 821.574 333.247, 821.740 333.348, 811.376 332.561 C 805.665 332.127, 802.675 332.347, 800.500 333.360 M 659.259 346.799 C 648.211 357.933, 642.064 360.500, 626.448 360.500 C 614.577 360.500, 614.285 360.445, 606.946 356.818 C 601.995 354.371, 597.280 350.952, 592.892 346.629 L 586.289 340.122 585.731 351.811 C 585.424 358.240, 584.872 364.260, 584.503 365.189 C 583.508 367.696, 575.043 371.763, 561.999 376 C 555.628 378.070, 547.306 381.331, 543.507 383.246 L 536.598 386.729 541.454 388.876 C 547.839 391.701, 546.606 392.629, 538.775 390.892 C 534.786 390.007, 526.490 389.507, 516 389.518 C 497.735 389.538, 492.652 390.816, 482.105 398.039 C 473.486 403.942, 473.634 403.349, 475.438 424.780 C 477.950 454.627, 477.839 454, 480.615 454 C 482.922 454, 483.005 453.731, 483.164 445.750 C 483.254 441.212, 483.216 435.390, 483.078 432.810 C 482.940 430.231, 483.134 427.152, 483.510 425.968 C 485.015 421.226, 497.291 418.564, 506.221 421.044 C 512.174 422.698, 513 424.775, 513 438.094 L 513 449.742 517.890 450.391 C 520.580 450.748, 523.998 451.997, 525.485 453.167 L 528.190 455.295 530.524 452.397 C 531.807 450.804, 533.866 447.363, 535.100 444.750 C 537.326 440.033, 539 438.634, 539 441.489 C 539 444.108, 535.229 453.011, 532.722 456.309 C 530.519 459.208, 530.364 460.068, 531.033 465.696 C 533.733 488.419, 557.144 504, 588.588 504 C 598.256 504, 600.999 505.296, 594.250 506.676 C 575.238 510.564, 550.789 503.872, 539.189 491.606 L 533.942 486.058 531.940 488.060 C 530.838 489.162, 528.685 490.313, 527.154 490.619 C 523.570 491.336, 521.582 494.351, 522.977 496.957 C 524.459 499.727, 524.231 505.309, 522.545 507.559 C 521.505 508.945, 521.253 510.953, 521.662 514.581 C 522.191 519.268, 521.985 519.948, 519.006 523.341 L 515.776 527.020 518.289 533.760 C 519.671 537.467, 523.511 546.597, 526.821 554.049 C 535.154 572.810, 535.685 575.951, 534.035 596.685 C 532.667 613.887, 532.095 639.428, 533.057 640.390 C 533.352 640.685, 536.047 640.273, 539.047 639.475 C 572.408 630.598, 684.111 630.605, 713.622 639.487 C 716.254 640.279, 718.653 640.681, 718.953 640.380 C 719.921 639.413, 719.371 611.991, 718.053 595.466 C 716.610 577.371, 717.191 573.262, 723.126 559.643 C 724.839 555.715, 728.632 546.898, 731.557 540.052 L 736.874 527.603 733.437 523.799 C 729.887 519.870, 729.143 516.471, 731.050 512.906 C 731.874 511.367, 731.658 510.381, 730.050 508.337 C 727.781 505.452, 727.418 501.370, 729.103 497.674 C 730.564 494.466, 728.949 491.454, 725.276 490.537 C 723.749 490.156, 721.723 489.144, 720.774 488.289 C 719.185 486.857, 718.604 487.179, 713.434 492.349 C 703.552 502.231, 689.802 507.295, 672.500 507.425 C 652.181 507.577, 648.737 504.559, 668.250 503.700 C 688.487 502.809, 700.230 498.553, 710.338 488.444 C 716.956 481.826, 719.760 476.391, 721.145 467.498 L 722.179 460.856 717.996 452.607 C 712.692 442.146, 712.581 436.081, 717.867 445.500 C 723.143 454.903, 723.696 455.353, 727.047 452.967 C 728.577 451.877, 731.893 450.702, 734.415 450.357 L 739 449.728 739 438.087 C 739 422.340, 741.023 419.983, 754.500 420.028 C 765.482 420.064, 769.518 424.132, 768.855 434.500 C 768.714 436.700, 768.689 441.988, 768.799 446.250 L 769 454 772 454 C 774.444 454, 775 453.583, 775 451.750 C 775 450.513, 775.942 439.375, 777.092 427 L 779.185 404.500 774.990 400.774 C 762.984 390.106, 741.206 386.239, 717.069 390.487 C 707.470 392.176, 705.795 391.780, 711.821 389.248 C 714.108 388.287, 715.984 387.234, 715.990 386.909 C 716.010 385.749, 702.313 379.652, 691.500 376.007 C 685.450 373.969, 678.616 371.338, 676.314 370.162 C 672.165 368.044, 672.121 368.042, 671.496 370.012 C 669.638 375.865, 668.211 369.508, 667.131 350.568 L 666.500 339.500 659.259 346.799 M 558 396.933 C 558 398.277, 560.038 398.734, 574 400.516 C 592.768 402.912, 603.196 405.469, 611.061 409.602 C 618.577 413.551, 620.083 413.582, 617.563 409.736 C 613.711 403.858, 599.118 399.122, 578.576 397.084 C 565.168 395.754, 558 395.701, 558 396.933 M 673.646 397.101 C 656.010 398.841, 644.329 402.539, 638.250 408.308 C 632.604 413.666, 634.358 414.631, 641.505 410.099 C 647.590 406.240, 658.443 403.426, 677.654 400.727 C 699.924 397.597, 696.845 394.813, 673.646 397.101 M 490.750 426.162 C 488.608 426.945, 488 427.812, 488 430.083 L 488 433 498 433 L 508 433 508 429.975 C 508 427.649, 507.408 426.725, 505.435 425.975 C 502.200 424.745, 494.356 424.845, 490.750 426.162 M 746.250 426.220 C 744.698 426.969, 744 428.188, 744 430.153 L 744 433 754.066 433 L 764.133 433 763.816 430.273 C 763.618 428.564, 762.567 427.077, 761 426.288 C 757.972 424.764, 749.352 424.724, 746.250 426.220 M 488.702 437.632 C 488.074 438.260, 487.640 453.989, 488.250 454.008 C 491.128 454.095, 504.987 456.051, 506.288 456.553 C 507.942 457.191, 508.054 456.505, 507.788 447.371 L 507.500 437.500 498.452 437.215 C 493.475 437.058, 489.087 437.246, 488.702 437.632 M 744 446.843 L 744 456.758 748.250 455.939 C 750.587 455.489, 755.105 454.834, 758.289 454.484 L 764.078 453.846 763.789 445.673 L 763.500 437.500 753.750 437.214 L 744 436.928 744 446.843 M 513.667 455.667 C 512.203 457.131, 513.170 458.942, 516.524 461.015 C 521.981 464.387, 524.867 472.507, 522.139 476.809 C 521.082 478.477, 524.708 486, 526.569 486 C 529.274 486, 530.069 482.439, 528.391 477.840 C 527.520 475.453, 526.442 470.362, 525.995 466.527 C 525.326 460.787, 524.715 459.151, 522.536 457.277 C 520.025 455.117, 515.109 454.225, 513.667 455.667 M 730.656 456.107 C 728.172 457.585, 726 463.065, 726 467.853 C 726 470.008, 725.242 474.116, 724.317 476.983 C 722.570 482.392, 723.144 485.205, 726.107 485.761 C 728.498 486.210, 730.713 479.124, 729.578 474.657 C 728.368 469.893, 731.384 463.386, 736.092 460.605 C 739.922 458.342, 739.614 455.592, 735.492 455.255 C 733.846 455.121, 731.670 455.504, 730.656 456.107 M 626.964 464.250 C 626.923 471.472, 625.463 487.996, 624.445 492.750 C 623.910 495.254, 624.086 496, 625.214 496 C 628.827 496, 630.847 482.324, 629.544 466.687 C 628.708 456.647, 627.017 455.050, 626.964 464.250 M 472.313 460.102 C 468.029 461.342, 465 465.397, 465 469.893 C 465 471.886, 463.875 475.629, 462.500 478.212 C 459.597 483.666, 459.373 486.887, 461.598 491.189 C 462.792 493.499, 463.025 495.642, 462.521 499.677 C 461.963 504.140, 462.206 505.684, 463.923 508.595 C 465.087 510.567, 466 513.862, 466 516.089 C 466 526.377, 475.234 534.718, 480.923 529.569 C 481.796 528.779, 489.141 527.037, 497.320 525.680 C 513.072 523.066, 517 521.239, 517 516.526 C 517 512.466, 515.660 512.202, 497.914 512.761 C 486.535 513.119, 481 512.953, 481 512.253 C 481 510.531, 483.317 510.115, 499.747 508.892 C 516.382 507.654, 519 506.790, 519 502.536 C 519 496.978, 517.617 496.543, 498.137 495.972 C 488.223 495.682, 479.786 495.120, 479.389 494.722 C 477.627 492.960, 481.348 492.479, 499.139 492.171 C 517.841 491.847, 518.130 491.809, 519.166 489.535 C 520.821 485.903, 518.319 481.781, 513.487 480.178 C 511.294 479.450, 503.650 478.434, 496.500 477.918 C 481.027 476.803, 478.299 476.301, 479.764 474.836 C 480.686 473.914, 503.311 474.163, 514.500 475.217 C 518.088 475.555, 519.222 471.515, 516.644 467.579 C 512.425 461.141, 484.817 456.485, 472.313 460.102 M 753.500 459.970 C 742.199 461.281, 733.524 466.971, 734.174 472.646 C 734.460 475.149, 734.869 475.468, 737.500 475.239 C 750.040 474.149, 771.293 473.893, 772.221 474.821 C 773.719 476.319, 770.913 476.836, 755.500 477.900 C 748.350 478.394, 740.706 479.406, 738.513 480.149 C 733.628 481.804, 731.181 485.908, 732.870 489.613 C 733.955 491.994, 733.998 492, 751.729 492.070 C 761.503 492.109, 770.370 492.481, 771.434 492.898 C 775.634 494.543, 770.121 495.478, 753.160 495.996 C 734.442 496.568, 733 497.036, 733 502.536 C 733 506.790, 735.618 507.654, 752.253 508.892 C 768.821 510.125, 771.371 510.590, 770.379 512.195 C 770.005 512.801, 763.434 513.051, 753.346 512.845 C 736.106 512.492, 735.058 512.734, 735.015 517.076 C 734.971 521.652, 740.571 523.670, 762.764 527.072 C 767.967 527.869, 770.303 528.698, 770.996 529.992 C 771.768 531.436, 772.619 531.650, 775.238 531.059 C 782.384 529.447, 786 524.743, 786 517.059 C 786 514.783, 786.928 511.102, 788.062 508.879 C 789.723 505.622, 789.995 503.812, 789.464 499.558 C 788.975 495.647, 789.218 493.478, 790.402 491.189 C 792.589 486.960, 792.406 482.379, 789.909 478.873 C 788.760 477.258, 787.486 473.483, 787.079 470.485 C 786.220 464.155, 784.127 461.408, 779.100 460.011 C 775.131 458.909, 762.818 458.889, 753.500 459.970 M 391 522.734 L 391 563.585 395.381 564.757 C 400.730 566.187, 405.808 570.296, 407.636 574.671 C 408.622 577.030, 409 583.082, 409 596.493 L 409 615.050 406.435 616.025 C 405.024 616.561, 402.504 617, 400.835 617 L 397.801 617 398.440 626.250 C 398.791 631.337, 399.320 638.987, 399.615 643.250 L 400.152 651 406.326 650.986 C 416.474 650.964, 417 650.640, 417 644.419 C 417 640.083, 417.381 638.866, 419.013 637.993 C 420.979 636.941, 421.019 636.104, 420.763 601.310 L 420.500 565.704 415.164 563.965 C 408.728 561.867, 403.810 557.346, 401.190 551.118 C 399.449 546.981, 392.919 495.025, 392.982 485.809 C 392.992 484.329, 392.550 482.840, 392 482.500 C 391.340 482.092, 391 495.754, 391 522.734 M 504.500 529.507 C 503.950 529.698, 499.563 530.384, 494.750 531.031 L 486 532.207 486 551.103 L 486 570 497.500 570 L 509 570 509 549.500 C 509 527.786, 509.032 527.926, 504.500 529.507 M 743.229 549.250 L 743.500 569.500 754.750 569.783 L 766 570.066 766 551.171 L 766 532.277 755.250 530.633 C 749.337 529.729, 744.153 528.991, 743.729 528.994 C 743.305 528.997, 743.080 538.112, 743.229 549.250 M 514 560.345 C 514 582.609, 514.023 582.520, 507.748 584.906 L 505 585.950 505 631.475 C 505 656.514, 505.244 677, 505.543 677 C 505.841 677, 508.479 675.232, 511.405 673.071 C 516.237 669.501, 516.783 668.700, 517.372 664.321 C 518.118 658.783, 522.141 649.558, 525.266 646.223 C 527.264 644.091, 527.410 642.820, 527.559 626.223 C 527.647 616.475, 528.286 602.890, 528.979 596.034 C 530.784 578.180, 530.160 574.456, 522.252 555.888 C 518.538 547.169, 515.163 540.027, 514.750 540.018 C 514.337 540.008, 514 549.155, 514 560.345 M 736 541.969 C 736 542.502, 733.359 548.915, 730.131 556.219 C 721.823 575.017, 721.626 576.350, 723.581 600.417 C 724.505 611.801, 725.002 625.474, 724.728 631.983 L 724.243 643.466 727.495 647.265 C 730.513 650.791, 732.295 655.179, 734.970 665.668 C 735.811 668.966, 737.073 670.583, 741.016 673.416 L 746 676.997 746 631.107 L 746 585.217 743.570 584.607 C 738.187 583.256, 738 582.462, 738 560.929 C 738 548.310, 737.633 541, 737 541 C 736.450 541, 736 541.436, 736 541.969 M 475.642 552.491 C 473.521 554.365, 469.358 556.904, 466.392 558.133 L 461 560.368 461.079 650.434 C 461.147 727.238, 461.352 739.614, 462.470 734.481 C 464.561 724.874, 469.609 715.528, 478.934 704 C 480.923 701.540, 480.956 700.268, 480.978 625.250 C 480.990 583.313, 480.663 549.019, 480.250 549.042 C 479.837 549.065, 477.764 550.617, 475.642 552.491 M 448 563.542 C 444.975 564.238, 441.325 564.851, 439.888 564.904 L 437.276 565 436.551 592.288 C 435.781 621.249, 436.410 635.541, 438.562 638.012 C 439.286 638.843, 440.019 641.993, 440.189 645.012 L 440.500 650.500 448 650.500 L 455.500 650.500 455.760 606.250 C 455.967 571.127, 455.761 562.028, 454.760 562.138 C 454.067 562.214, 451.025 562.846, 448 563.542 M 425 601.500 L 425 637 428.500 637 L 432 637 432 601.500 L 432 566 428.500 566 L 425 566 425 601.500 M 383.062 570.827 C 376.906 574.129, 376 577.323, 376 595.734 L 376 612 390 612 L 404 612 404 594.635 C 404 578.539, 403.847 577.076, 401.912 574.615 C 397.480 568.981, 389.495 567.377, 383.062 570.827 M 486 576.461 C 486 579.743, 492.045 581.454, 500.791 580.648 C 508.314 579.954, 509 579.603, 509 576.441 L 509 574 497.500 574 L 486 574 486 576.461 M 743.184 576.710 C 743.903 582.870, 766 582.571, 766 576.402 C 766 574.004, 765.979 574, 754.434 574 L 742.867 574 743.184 576.710 M 486 639.954 L 486 695.170 492.959 688.835 L 499.918 682.500 499.959 634.250 L 500 586 496.750 585.989 C 494.962 585.983, 491.813 585.699, 489.750 585.358 L 486 584.738 486 639.954 M 387 625 L 387 633 390.500 633 L 394 633 394 625 L 394 617 390.500 617 L 387 617 387 625 M 386 644 L 386 651.115 390.250 650.807 L 394.500 650.500 394.500 644 L 394.500 637.500 390.250 637.193 L 386 636.885 386 644 M 581 639.095 C 565.015 640.220, 544.854 642.850, 539.223 644.546 C 529.636 647.433, 525.518 652.077, 523.179 662.637 L 522.263 666.774 526.382 666.261 C 531.487 665.624, 530.691 666.683, 522.186 671.843 C 507.875 680.525, 491.143 696.334, 478.629 712.995 C 472.282 721.446, 471.535 723.411, 476.143 719.534 C 484.361 712.618, 495.990 709, 510 709 C 544.428 709, 569.046 732.961, 568.985 766.410 C 568.957 781.688, 565.219 791.995, 556.692 800.300 C 552.671 804.217, 552.114 805.108, 554.049 804.528 C 560.919 802.467, 576.943 790.775, 594.514 775 C 612.527 758.829, 614.644 757.571, 624.544 757.152 C 635.831 756.675, 638.705 758.168, 655 772.976 C 671.663 788.118, 684.663 798.296, 692.201 802.101 C 699.840 805.958, 700.087 805.783, 694.321 800.598 C 676.808 784.853, 676.523 751.114, 693.722 729.754 C 711.828 707.267, 751.382 701.594, 773.250 718.348 C 779.551 723.175, 779.260 722.180, 771.250 711.500 C 762.639 700.018, 748.267 685.510, 735.500 675.411 C 727.089 668.757, 725.867 667.448, 727.812 667.172 C 730.694 666.764, 730.232 663.321, 726.179 655 C 722.381 647.202, 716.938 644.611, 698.977 642.050 C 671.888 638.187, 614.378 636.746, 581 639.095 M 340.193 646.250 L 340.500 650.500 347.500 650.500 L 354.500 650.500 354.807 646.250 L 355.115 642 347.500 642 L 339.885 642 340.193 646.250 M 421.193 646.250 L 421.500 650.500 428.500 650.500 L 435.500 650.500 435.807 646.250 L 436.115 642 428.500 642 L 420.885 642 421.193 646.250 M 321.673 655.660 C 321.303 656.030, 321 659.183, 321 662.667 L 321 669 385 669 L 449 669 449 662.629 L 449 656.258 440.250 655.672 C 427.983 654.850, 322.494 654.840, 321.673 655.660 M 453.030 734.750 C 453.054 797.926, 453.314 814.084, 454.280 812.500 C 456.346 809.113, 456.605 655, 454.546 655 C 453.164 655, 453.003 663.468, 453.030 734.750 M 558.500 656.095 C 547.668 657.191, 536.831 659.992, 536.213 661.855 C 535.905 662.784, 536.350 663.034, 537.632 662.651 C 538.659 662.344, 544.450 661.306, 550.500 660.345 C 565.612 657.944, 682.313 658.090, 701.388 660.534 C 707.927 661.371, 713.478 661.855, 713.724 661.609 C 714.657 660.676, 709.452 658.731, 702.117 657.273 C 693.129 655.486, 574.164 654.510, 558.500 656.095 M 321 679 L 321 686 385 686 L 449 686 449 679 L 449 672 385 672 L 321 672 321 679 M 694.660 673.048 C 680.220 675.471, 665.798 682.475, 655.727 691.955 C 647.363 699.827, 648.728 700.224, 658.974 692.900 C 672.499 683.232, 689.029 676.518, 704.269 674.502 C 706.892 674.156, 708.778 673.451, 708.460 672.936 C 707.784 671.842, 701.540 671.893, 694.660 673.048 M 549 673.650 C 549 674.135, 553.200 675.532, 558.333 676.754 C 568.930 679.277, 578.897 683.167, 588.447 688.508 C 595.413 692.403, 597.227 691.936, 591.650 687.682 C 586.136 683.476, 575.922 678.297, 568.983 676.189 C 561.521 673.922, 549 672.331, 549 673.650 M 321 696.500 L 321 704 385 704 L 449 704 449 696.500 L 449 689 385 689 L 321 689 321 696.500 M 576.550 694.841 C 577.072 695.304, 580.960 698.247, 585.188 701.383 C 597.775 710.717, 609.934 725.683, 614.373 737.308 C 616.408 742.636, 618.591 743.707, 617.631 738.906 C 614.982 725.659, 599.799 706.754, 584.326 697.437 C 579.214 694.359, 574.063 692.639, 576.550 694.841 M 672.189 698.476 C 654.319 708.023, 637.823 727.818, 633.424 744.991 C 631.048 754.265, 633.085 756.294, 635.930 747.488 C 641.837 729.206, 653.463 714.293, 671.967 701.267 C 679.983 695.624, 679.420 696.087, 678.896 695.563 C 678.656 695.322, 675.637 696.633, 672.189 698.476 M 321 714 L 321 721 346.345 721 C 370.456 721, 371.779 720.902, 373.508 718.991 C 377.809 714.239, 387.757 713.983, 392.014 718.515 L 394.349 721 421.674 721 L 449 721 449 714 L 449 707 385 707 L 321 707 321 714 M 497.176 715.010 C 485.512 717.467, 474.655 725.542, 469.164 735.844 C 463.737 746.026, 462.806 751.352, 462.318 775 C 462.073 786.825, 461.820 798.750, 461.755 801.500 C 461.690 804.250, 462.012 811.337, 462.470 817.250 C 463.408 829.340, 462.014 832.060, 459.907 822.250 L 458.672 816.500 456.243 824 C 446.897 852.847, 446.756 876.755, 455.600 932.500 C 461.566 970.101, 464.102 989.079, 464.705 1000.639 L 465.286 1011.778 472.393 1011.698 C 488.319 1011.518, 497.918 1019.224, 497.978 1032.237 C 497.999 1036.741, 498.181 1037.049, 501.677 1038.510 C 507.348 1040.879, 507.444 1040.492, 507.560 1014.722 C 507.671 990.439, 508.617 981.436, 513.493 958.293 C 515.697 947.837, 518.117 940.225, 525.986 919 C 531.611 903.827, 532.490 897.754, 532.495 874 C 532.499 856.953, 532.097 850.325, 530.555 842 C 527.921 827.780, 528.029 817.325, 530.898 808.761 C 533.441 801.172, 535 799.365, 535 804.008 C 535 807.673, 536.439 807.550, 543.937 803.244 C 557.750 795.312, 564.024 783.721, 563.985 766.201 C 563.935 743.267, 550.339 724.112, 529 716.909 C 521.711 714.449, 504.670 713.432, 497.176 715.010 M 725.782 715.494 C 701.556 721.615, 686.705 740.974, 686.653 766.500 C 686.618 783.686, 691.303 793.221, 703.943 801.690 C 711.898 807.019, 713.058 807.132, 712.306 802.500 C 711.421 797.042, 713.587 798.279, 715.943 804.578 C 720.127 815.760, 720.357 824.208, 717.001 843.500 C 711.862 873.046, 714.384 898.829, 724.851 923.769 C 735.836 949.942, 740.432 978.922, 739.822 1018.164 C 739.463 1041.240, 739.700 1042.241, 744.885 1039.559 C 747.698 1038.105, 748.002 1037.491, 748.022 1033.224 C 748.082 1020.220, 757.201 1012.588, 772.750 1012.528 L 780 1012.500 780 1007.788 C 780 1000.183, 783.663 973.668, 789.087 942 C 799.810 879.405, 799.871 852.500, 789.356 823 C 789.051 822.144, 788.030 824.025, 786.978 827.383 C 783.255 839.261, 782.019 837.071, 784.504 823 C 786.001 814.520, 786.345 804.309, 786.404 766.500 C 786.433 748.148, 786.254 746.047, 784.225 741 C 779.747 729.859, 771.004 721.073, 760.282 716.938 C 752.837 714.067, 734.473 713.298, 725.782 715.494 M 377.073 722.635 C 370.862 730.530, 380.470 740.138, 388.365 733.927 C 391.885 731.159, 392.044 725.329, 388.686 722.174 C 385.310 719.003, 379.756 719.223, 377.073 722.635 M 321 731 L 321 738 348.030 738 L 375.060 738 372.894 735.070 C 371.507 733.194, 370.727 730.676, 370.727 728.070 L 370.727 724 345.864 724 L 321 724 321 731 M 395.746 728.562 C 395.426 731.402, 394.367 734.045, 392.942 735.562 L 390.651 738 419.826 738 L 449 738 449 731 L 449 724 422.630 724 L 396.260 724 395.746 728.562 M 321.417 741.917 C 321.188 742.146, 321 745.431, 321 749.218 L 321 756.102 385.041 755.933 L 449.083 755.765 448.791 748.632 L 448.500 741.500 385.167 741.500 C 350.334 741.500, 321.646 741.688, 321.417 741.917 M 321 766 L 321 773 385 773 L 449 773 449 766 L 449 759 385 759 L 321 759 321 766 M 616.500 763.437 C 614.850 764.185, 611.250 766.847, 608.500 769.353 L 603.500 773.910 626 773.915 L 648.500 773.921 643.500 769.311 C 640.750 766.776, 637.052 764.094, 635.282 763.351 C 631.169 761.624, 620.394 761.674, 616.500 763.437 M 321 783 L 321 790 385 790 L 449 790 449 783 L 449 776 385 776 L 321 776 321 783 M 606.294 778 C 598.481 778.476, 597.906 778.676, 594.294 782.179 C 587.931 788.350, 571.989 800.667, 565.311 804.573 C 559.115 808.196, 559 808.342, 559 812.560 C 559 817.157, 560.652 819.631, 564.320 820.532 C 565.519 820.827, 594.047 820.940, 627.715 820.784 C 696.344 820.466, 691.293 821.090, 692.350 812.795 L 692.949 808.090 687.042 804.941 C 680.877 801.656, 666.287 790.443, 658.144 782.734 L 653.403 778.245 633.952 777.873 C 623.253 777.668, 610.807 777.725, 606.294 778 M 384.250 793.750 L 321 794.015 321 801.007 L 321 808 385 808 L 449 808 449 800.500 C 449 796.375, 448.663 793.109, 448.250 793.242 C 447.837 793.376, 419.038 793.604, 384.250 793.750 M 544.500 810.979 C 537.210 811.797, 535.262 812.600, 534.463 815.116 C 533.219 819.035, 533.852 829.848, 536.066 842.500 C 540.950 870.408, 538.899 900.063, 530.547 922.299 C 528.298 928.284, 527.594 931.291, 528.372 931.589 C 529.004 931.832, 543.241 931.911, 560.010 931.765 L 590.500 931.500 591.666 917.500 C 594.909 878.578, 596.282 851.894, 595.154 849.711 C 594.526 848.495, 593.897 842.775, 593.756 837 L 593.500 826.500 577.500 826 C 557.368 825.371, 554 823.691, 554 814.277 C 554 810.812, 553.668 810.029, 552.250 810.152 C 551.288 810.236, 547.800 810.608, 544.500 810.979 M 321 818 L 321 825 385 825 L 449 825 449 818 L 449 811 385 811 L 321 811 321 818 M 598.214 835.750 L 598.500 845.500 625.750 845.766 L 653 846.032 653 836.016 L 653 826 625.464 826 L 597.928 826 598.214 835.750 M 321 835.500 L 321 843 383.395 843 L 445.790 843 447.303 836.252 C 448.436 831.204, 448.525 829.319, 447.659 828.768 C 447.021 828.362, 418.262 828.024, 383.750 828.015 L 321 828 321 835.500 M 320.832 853.088 C 320.649 856.986, 320.688 860.361, 320.917 860.588 C 321.146 860.814, 348.933 861, 382.667 861 L 444 861 444 858.140 C 444 856.566, 444.286 853.191, 444.636 850.640 L 445.272 846 383.218 846 L 321.164 846 320.832 853.088 M 601 854.092 C 601 855.977, 598.769 889.689, 596.042 929.009 C 593.315 968.329, 590.952 1003.425, 590.792 1007 L 590.500 1013.500 595.500 1013.500 L 600.500 1013.500 601.113 957 C 601.450 925.925, 601.847 889.572, 601.995 876.216 C 602.143 862.859, 601.980 851.647, 601.632 851.299 C 601.285 850.951, 601 852.208, 601 854.092 M 607.679 851.750 C 607.438 852.163, 606.913 888.837, 606.512 933.250 L 605.785 1014 625.850 1014 L 645.914 1014 645.433 962.750 C 645.169 934.563, 644.686 897.888, 644.361 881.250 L 643.770 851 625.944 851 C 616.140 851, 607.920 851.337, 607.679 851.750 M 649.749 851.683 C 649.501 852.133, 649.648 885.125, 650.076 925 C 650.503 964.875, 650.886 1001.212, 650.927 1005.750 L 651 1014 656 1014 C 662.063 1014, 661.761 1019.460, 658.488 969 C 657.114 947.825, 654.857 912.752, 653.472 891.061 C 651.049 853.094, 650.745 849.881, 649.749 851.683 M 321 871.492 L 321 879 382.499 879 L 443.999 879 443.632 871.750 L 443.266 864.500 382.133 864.242 L 321 863.985 321 871.492 M 344 894.025 C 344 903.870, 344.046 904.067, 346.569 905.026 C 347.983 905.564, 350.233 905.729, 351.569 905.393 C 353.948 904.796, 354 904.563, 354 894.392 L 354 884 349 884 L 344 884 344 894.025 M 359 891.500 L 359 899 389 899 L 419 899 419 891.500 L 419 884 389 884 L 359 884 359 891.500 M 423 894.500 L 423 905 428 905 L 433 905 433 894.500 L 433 884 428 884 L 423 884 423 894.500 M 438 891.500 L 438 899 441.500 899 C 445.424 899, 445.494 898.760, 444.352 889.250 C 443.756 884.287, 443.565 884, 440.861 884 L 438 884 438 891.500 M 311.975 905.565 C 311.439 906.976, 311 908.326, 311 908.565 C 311 908.804, 317.750 909, 326 909 C 334.250 909, 341 908.804, 341 908.565 C 341 908.326, 340.561 906.976, 340.025 905.565 L 339.050 903 326 903 L 312.950 903 311.975 905.565 M 358.306 906 L 357.174 909 388.694 909 C 417.025 909, 420.153 908.840, 419.607 907.418 C 419.273 906.548, 419 905.198, 419 904.418 C 419 903.226, 414.261 903, 389.219 903 L 359.438 903 358.306 906 M 437.630 905.250 C 436.661 908.868, 436.790 909, 441.333 909 C 446.467 909, 446.860 908.718, 446.240 905.476 C 445.568 901.960, 438.561 901.776, 437.630 905.250 M 304 925.250 L 304 938 377.500 938 C 435.658 938, 450.990 937.739, 450.953 936.750 C 450.853 934.082, 447.339 914.006, 446.894 913.561 C 446.635 913.302, 414.378 912.958, 375.212 912.795 L 303.999 912.500 304 925.250 M 524.534 937.945 C 524.213 938.464, 523.306 940.714, 522.520 942.945 L 521.089 947 555.544 947 L 590 947 590 942 L 590 937 557.559 937 C 538.276 937, 524.881 937.383, 524.534 937.945 M 262.940 948.271 C 258.232 953.347, 254.043 958.063, 253.631 958.750 C 253.042 959.734, 257.244 960, 273.355 960 L 293.828 960 300.410 951.750 C 306.846 943.684, 307.455 940.467, 301.796 944.430 C 300.070 945.639, 296.868 946, 287.859 946 C 274.019 946, 273 945.718, 273 941.893 C 273 937.699, 272.382 938.091, 262.940 948.271 M 315 956 L 315 969 385.579 969 L 456.159 969 455.601 966.250 C 454.997 963.270, 452 944.346, 452 943.511 C 452 943.230, 421.175 943, 383.500 943 L 315 943 315 956 M 303.250 953.955 L 296 963.088 296 975.044 C 296 981.620, 296.337 986.970, 296.750 986.934 C 297.163 986.898, 300.551 983.087, 304.280 978.466 L 311.060 970.063 310.780 957.443 L 310.500 944.823 303.250 953.955 M 520 951.390 C 520 951.604, 519.100 956.154, 518 961.500 C 516.900 966.846, 516 971.846, 516 972.610 C 516 973.771, 521.912 974, 551.852 974 L 587.704 974 588.346 965.750 C 588.699 961.212, 588.991 956.038, 588.994 954.250 L 589 951 554.500 951 C 535.525 951, 520 951.175, 520 951.390 M 249.221 978.250 L 249.500 991.500 270.500 991.500 L 291.500 991.500 291.779 978.250 L 292.058 965 270.500 965 L 248.942 965 249.221 978.250 M 465.849 1017.340 C 456.785 1019.875, 453 1025.407, 453 1036.116 C 453 1038.181, 452.537 1041.087, 451.972 1042.574 C 450.620 1046.129, 450.762 1046.185, 456.547 1044.386 C 465.966 1041.455, 481.405 1044.545, 486.977 1050.475 C 490.358 1054.074, 488.021 1054.165, 481.040 1050.705 C 473.094 1046.766, 463.630 1045.910, 455.921 1048.431 C 453.134 1049.343, 450.010 1049.821, 448.979 1049.493 C 447.437 1049.004, 446.910 1049.661, 446.009 1053.199 C 440.992 1072.906, 434.945 1085.542, 425.036 1097.028 C 415.420 1108.174, 413.604 1111.832, 413.546 1120.167 C 413.495 1127.525, 415.318 1130.646, 421.052 1133.021 C 423.509 1134.039, 424.317 1133.911, 426.868 1132.094 C 432.889 1127.807, 447.004 1128.608, 452.904 1133.573 C 456.473 1136.575, 460.154 1136.661, 469.872 1133.968 C 487.313 1129.135, 493.366 1123.442, 498.566 1106.979 C 500.964 1099.390, 501.711 1098.255, 510.116 1089.432 C 515.059 1084.244, 519.779 1078.379, 520.607 1076.399 C 522.729 1071.318, 522.497 1059.690, 520.020 1047.116 C 518.871 1041.277, 517.528 1034.475, 517.038 1032 C 514.887 1021.150, 513.672 1020.704, 512.946 1030.500 C 511.884 1044.856, 508.781 1048.500, 501.468 1043.980 C 498.809 1042.337, 496.962 1041.907, 494.369 1042.328 L 490.864 1042.896 491.682 1039.698 C 493.112 1034.106, 492.640 1026.623, 490.666 1023.611 C 487.006 1018.028, 474.598 1014.892, 465.849 1017.340 M 764.143 1018.493 C 755.733 1021.116, 752.268 1026.988, 753.467 1036.583 C 754.102 1041.665, 754.011 1042, 752 1042 C 750.821 1042, 747.856 1043.172, 745.412 1044.604 C 741.205 1047.070, 740.836 1047.122, 738.500 1045.592 C 735.315 1043.505, 734.500 1040.377, 734.500 1030.250 C 734.500 1025.713, 734.211 1022, 733.859 1022 C 732.775 1022, 730.225 1029.301, 729.480 1034.537 C 729.092 1037.267, 727.925 1043.712, 726.887 1048.860 C 722.666 1069.797, 724.535 1077.768, 736.563 1090.128 C 744.115 1097.888, 745.671 1100.538, 749.070 1111.425 C 752.575 1122.652, 757.951 1128.021, 769.767 1132.097 C 779.788 1135.553, 786.332 1135.740, 789.974 1132.675 C 793.894 1129.377, 798.823 1128.013, 806.846 1128.006 C 812.860 1128, 819 1130.127, 819 1132.216 C 819 1133.509, 822.900 1133.103, 826.033 1131.483 C 835.852 1126.405, 833.365 1113.087, 819.531 1096.658 C 811.534 1087.161, 805.023 1074.550, 801.064 1060.890 C 797.950 1050.146, 796.527 1047.530, 795.076 1049.878 C 794.376 1051.010, 793.353 1050.946, 788.983 1049.495 C 781.184 1046.904, 771.662 1047.823, 763.843 1051.922 C 757.171 1055.419, 755.433 1055.297, 758.928 1051.577 C 764.420 1045.731, 777.556 1042.821, 786.999 1045.358 C 790.023 1046.171, 792.590 1046.743, 792.704 1046.629 C 793.556 1045.777, 789.817 1026.372, 788.301 1023.775 C 784.856 1017.876, 773.841 1015.468, 764.143 1018.493 M 582.667 1019.667 C 582.300 1020.033, 582 1023.858, 582 1028.167 L 582 1036 625.376 1036 L 668.752 1036 669.206 1030.524 C 669.456 1027.512, 669.461 1023.687, 669.217 1022.024 L 668.773 1019 626.053 1019 C 602.557 1019, 583.033 1019.300, 582.667 1019.667 M 582.219 1052.239 L 582.500 1064.500 626 1064.500 L 669.500 1064.500 669.500 1052.500 L 669.500 1040.500 625.719 1040.239 L 581.938 1039.979 582.219 1052.239 M 453.500 1057.325 C 450.505 1058.691, 447.356 1061.689, 448.117 1062.450 C 448.338 1062.671, 451.215 1061.939, 454.509 1060.823 C 462.019 1058.279, 468.262 1058.854, 476.285 1062.828 C 481.945 1065.632, 484.435 1065.434, 481.903 1062.383 C 477.587 1057.183, 460.489 1054.138, 453.500 1057.325 M 775.939 1057.353 C 770.530 1058.826, 765.131 1061.832, 763.641 1064.202 C 761.719 1067.259, 763.696 1067.189, 769.349 1063.999 C 776.509 1059.957, 783.792 1059.106, 790.928 1061.476 C 798.200 1063.892, 799.557 1061.869, 792.766 1058.737 C 787.939 1056.510, 781.103 1055.948, 775.939 1057.353 M 450.603 1070.477 C 446.622 1071.895, 443.204 1074.538, 444.140 1075.473 C 444.426 1075.760, 446.787 1075.270, 449.386 1074.384 C 455.728 1072.223, 465.051 1072.868, 471.302 1075.900 C 477.225 1078.772, 478.657 1077.775, 474.098 1073.953 C 468.615 1069.356, 458.109 1067.802, 450.603 1070.477 M 777.500 1071.207 C 773.378 1072.647, 768 1076.797, 768 1078.536 C 768 1079.611, 769.439 1079.243, 773.750 1077.067 C 781.577 1073.117, 787.383 1072.388, 794.511 1074.460 C 800.336 1076.154, 801.758 1076.035, 800.478 1073.964 C 798.293 1070.429, 784.471 1068.770, 777.500 1071.207 M 524.032 1078.236 C 524.014 1079.190, 519.526 1084.682, 514.058 1090.438 C 504.636 1100.359, 503.983 1101.328, 501.560 1108.999 C 498.108 1119.926, 496.918 1121.989, 490.994 1127.316 C 481.814 1135.569, 458.866 1142.298, 453.378 1138.345 C 444.541 1131.980, 434.605 1130.922, 427.820 1135.625 L 424.032 1138.250 418.534 1135.561 C 415.291 1133.974, 412.320 1131.658, 411.289 1129.913 C 409.229 1126.424, 408.190 1127.840, 408.070 1134.300 C 407.862 1145.558, 417.470 1149.162, 448 1149.274 C 483.215 1149.403, 498.487 1142.815, 502.107 1125.936 C 503.726 1118.389, 505.313 1116.402, 514.475 1110.458 C 528.334 1101.466, 531.270 1095.713, 528.004 1083.954 C 526.751 1079.445, 524.080 1075.599, 524.032 1078.236 M 720.912 1080.140 C 720.210 1081.438, 719.440 1086.137, 719.201 1090.582 C 718.680 1100.288, 720.324 1102.784, 732.778 1111.188 C 740.545 1116.428, 743.931 1121.297, 743.978 1127.290 C 744.031 1134.006, 749.912 1140.862, 759.111 1144.931 C 772.651 1150.920, 808.187 1151.723, 826.684 1146.458 C 833.627 1144.482, 836 1141.402, 836 1134.365 C 836 1128.124, 835.851 1128.046, 831.399 1131.955 C 829.548 1133.580, 826.215 1135.454, 823.994 1136.120 C 820.139 1137.275, 819.815 1137.197, 816.909 1134.415 C 812.813 1130.495, 798.839 1130.134, 794.223 1133.830 C 787.172 1139.476, 787.568 1139.366, 779.223 1138.024 C 761.499 1135.174, 749.718 1127.020, 746.512 1115.381 C 743.075 1102.905, 741.848 1100.671, 733.950 1092.500 C 729.696 1088.100, 725.310 1082.988, 724.202 1081.140 L 722.188 1077.780 720.912 1080.140 M 443.376 1084.028 C 440.424 1084.939, 437.253 1087.592, 438.107 1088.436 C 438.323 1088.649, 441.200 1088.126, 444.500 1087.272 C 451.267 1085.521, 460.828 1086.520, 467.424 1089.665 C 474.092 1092.845, 473.406 1089.283, 466.682 1085.813 C 461.958 1083.375, 448.769 1082.365, 443.376 1084.028 M 781.951 1084.541 C 777.692 1085.854, 772.023 1090.357, 773.177 1091.510 C 773.462 1091.796, 776.280 1090.845, 779.439 1089.399 C 785.811 1086.482, 796.969 1085.758, 802.389 1087.909 C 805.694 1089.221, 806.821 1088.694, 805.112 1086.635 C 802.270 1083.211, 789.898 1082.092, 781.951 1084.541" stroke="none" fill="currentColor" fill-rule="evenodd"/>
</svg>