<svg xmlns="http://www.w3.org/2000/svg" width="1254" height="1254" viewBox="0 0 1254 1254"><path fill="currentColor" fill-rule="evenodd" d="M210 49.731c-32.641 2.145-38.763 2.97-45.515 6.129-12.849 6.013-24.061 20.209-28.903 36.596L133.5 99.5l-.5 469.099-.5 469.098-7.5-1.827c-10.522-2.563-12.124-2.521-24.5.646-13.64 3.49-13.35 3.251-13.706 11.302l-.294 6.645-7.5 2.037-7.5 2.037-.296 6.18-.297 6.181 3.797 1.007c2.088.554 8.499 2.109 14.247 3.456l10.452 2.449 6.195-1.913c3.407-1.052 6.804-1.707 7.549-1.455.744.253 3.359.974 5.81 1.603 3.623.93 4.138 1.322 2.75 2.099-2.159 1.208-2.553 18.957-.457 20.577.687.532 13.888 4.031 29.334 7.776l28.085 6.809 20.415-6.903 20.416-6.903.289-9.351c.373-12.089.83-11.552-12.039-14.136l-5.75-1.155v-4.862c0-3.773.392-4.973 1.75-5.361.963-.274 22.578-6.894 48.035-14.711 41.897-12.865 46.399-14.055 47.5-12.564.881 1.195 9.568 3.268 31.598 7.541l30.384 5.893 15.116-5.147 15.117-5.147.288-8.694c.345-10.397.974-9.835-13.788-12.327-5.775-.975-10.782-2.044-11.127-2.376s-.926-188.141-1.292-417.353L364.916 183h4.004c19.095 0 36.13-22.915 33.627-45.235l-.643-5.734 2.798.503c2.705.487 39.238 3.931 152.798 14.404 93.972 8.666 187.572 16.696 268.5 23.034 53.91 4.222 51.852 3.987 52.49 5.997.3.945 2.754 3.148 5.454 4.898 4.603 2.983 5.892 3.275 20.689 4.693 16.802 1.61 20 1.23 22.751-2.698 2.222-3.172 16.011-1.524 19.439 2.323 1.544 1.733 4.632 3.473 7.798 4.393 4.076 1.185 5.679 2.265 7.208 4.857 1.987 3.367 14.043 8.565 19.865 8.565 1.204 0 2.444.415 2.757.921.313.507 2.703 1.72 5.309 2.696s6.322 2.802 8.256 4.057 5.084 2.584 7 2.953 4.609 1.413 5.984 2.32c3.65 2.41 7.793 4.053 10.218 4.053 1.169 0 2.841.648 3.716 1.44.876.793 3.836 1.991 6.579 2.664s7.213 2.275 9.933 3.56c2.721 1.285 6.224 2.336 7.786 2.336s3.835.648 5.053 1.44 5.473 2.176 9.454 3.077 7.453 1.985 7.715 2.408c.844 1.367-23.936 16.146-34.596 20.634-3.104 1.307-12.861 4.408-21.684 6.892-33.692 9.486-44.907 15.485-64.688 34.607-6.057 5.855-12.425 11.376-14.15 12.268-3.768 1.949-19.283 7.676-20.777 7.67-.583-.003-2.771-3.339-4.863-7.415-7.16-13.948-22.891-28.065-36.523-32.775-8.304-2.87-24.634-3.167-32.803-.598-18.296 5.753-30.747 17.403-42.45 39.721-8.11 15.466-23.264 28.582-35.812 30.997-14.134 2.72-38.171 13.177-49.108 21.363-8.841 6.617-56.574 53.429-67.665 66.36-5.591 6.518-18.371 21.976-28.4 34.351s-22.38 26.55-27.446 31.5-10.14 10.829-11.275 13.065c-1.464 2.881-3.268 4.607-6.196 5.927-2.272 1.024-5.509 3.602-7.192 5.728-1.684 2.126-5.596 5.62-8.694 7.764C549.814 540.05 528 562.129 528 564.47c0 .995-2.414 4.558-5.365 7.919-13.756 15.67-23.649 32.799-27.786 48.111-3.096 11.458-3.085 32.043.023 46 2.872 12.896 4.166 46.651 3.005 78.417-.943 25.794-1.595 23.686 8.623 27.877l7 2.872-.355 7.188c-.431 8.749.061 9.438 8.339 11.679l6.405 1.734.654 5.229c.359 2.876.496 9.678.305 15.116-.433 12.308-1.856 15.447-15.818 34.888-12.096 16.843-21.093 34.29-24.237 47-2.037 8.234-2.235 11.554-2.331 39-.106 30.047-.822 38.632-5.506 66-2.801 16.366-2.849 16.5-5.95 16.5-4.797 0-8.709 4.215-10.011 10.785-.623 3.143-2.463 9.99-4.089 15.215s-3.588 13.55-4.36 18.5-2.321 11.475-3.442 14.5c-1.122 3.025-2.053 6.76-2.071 8.3-.123 10.483 13.638 17.305 40.467 20.064 12.852 1.321 16.504 2.111 25.5 5.514 15.118 5.719 25.498 7.486 43.5 7.405 33.434-.152 57.525-9.552 57.494-22.434-.009-4.135-1.998-9.7-4.548-12.731l-2.478-2.944 7.766-.596c26.59-2.039 38.266-8.026 38.266-19.621 0-10.693-4.007-14.571-18.647-18.048-12.655-3.006-19.031-5.654-22.881-9.504-1.873-1.873-4.236-3.405-5.251-3.405s-2.843-1.35-4.063-3-2.867-3-3.66-3c-1.456 0-4.445-2.507-13.522-11.344-3.898-3.794-4.976-5.529-4.976-8.006 0-7.235-4.137-14.65-8.174-14.65-2.366 0-2.321-.742.795-13.102 3.43-13.604 8.397-25.016 21.562-49.539 9.448-17.6 16.613-33.017 27.27-58.679 1.557-3.751 5.995-11.851 9.861-18 11.94-18.99 14.979-25.811 19.234-43.182 3.258-13.296 4.197-15.88 6.086-16.741 2.535-1.155 2.569-1.315 5.029-23.257 2.172-19.381 2.181-55.041.018-73-2.359-19.588-2.183-40.384.363-42.755 1.082-1.008 3.041-3.951 4.353-6.539 1.313-2.588 3.394-5.606 4.625-6.706s3.272-3.627 4.536-5.616c1.264-1.99 5.932-6.163 10.373-9.275 9.077-6.36 16.551-12.683 32.569-27.551 6.05-5.616 16.175-14.164 22.5-18.996 16.84-12.866 29.156-24.182 40.962-37.638 5.755-6.558 14.533-16.199 19.507-21.424 17.414-18.291 23.731-26.906 32.956-44.94 4.381-8.565 5.575-11.885 5.575-15.503 0-3.597.959-6.291 4.387-12.33 2.413-4.25 5.458-9.752 6.767-12.227l2.379-4.5 14.483-.651c29.15-1.31 45.15-6.739 72.442-24.582 7.127-4.66 17.934-11.036 24.015-14.169 6.082-3.134 14.426-8.231 18.543-11.328 5.422-4.079 10.238-6.624 17.484-9.241 30.403-10.981 41.583-19.837 77-60.991 25.605-29.753 37.69-42.163 41.809-42.936 1.817-.341 5.076-1.524 7.243-2.628l3.939-2.009 4.965 2.136c5.399 2.323 14.252 2.216 17.172-.207.82-.68 4.106-1.31 7.304-1.399 10.871-.303 18.202-7.241 18.879-17.865.632-9.926-3.515-16.444-13.061-20.527-2.809-1.202-4.75-2.678-4.75-3.614 0-.87-1.351-2.349-3.003-3.286-1.651-.936-3.256-2.489-3.566-3.451-.31-.961-1.644-2.018-2.963-2.349-1.439-.362-3.112-2.059-4.183-4.245-.982-2.003-2.882-4.18-4.224-4.836-1.341-.657-3.04-2.343-3.775-3.746-1.466-2.797-6.046-5.576-9.191-5.576-1.102 0-3.129-1.125-4.504-2.5-3.187-3.187-6.965-3.219-16.364-.141-7.532 2.467-13.132 2.143-18.847-1.091-1.167-.66-4.542-1.627-7.5-2.15s-7.18-1.643-9.38-2.49-5.183-1.56-6.628-1.584-4.243-.719-6.218-1.544-5.202-1.5-7.172-1.5-4.934-.7-6.588-1.555-5.464-1.733-8.469-1.952-5.98-.718-6.612-1.109c-1.25-.772-13.453-2.349-23.813-3.077-14.594-1.024-21.605-1.917-23.519-2.994-4.017-2.26-18.108-3.688-20.42-2.069-1.537 1.077-4.001 1.331-9.498.978-7.077-.454-7.541-.349-9.942 2.242-1.385 1.494-2.973 2.436-3.529 2.093-.555-.343-4.126-.784-7.935-.979-6.507-.334-7.129-.577-10.291-4.027l-3.366-3.672-16.747-1.909c-18.428-2.101-18.421-2.102-24.517 2.839l-4.264 3.455-34.736-2.697c-19.105-1.483-74.786-6.027-123.736-10.097-75.451-6.273-120.817-10.205-253-21.927-8.8-.78-27.328-2.421-41.173-3.646l-25.172-2.228-1.759-3.9c-2.748-6.093-10.868-12.744-20.98-17.183-10.92-4.795-10.449-4.379-11.528-10.158-2.07-11.077-11.025-23.785-19.388-27.511-3.787-1.688-15.116-3.623-84.157-14.376-28.614-4.456-35.202-4.936-52.343-3.81m5.487 5.068c-20.677 7.15-33.429 26.498-36.465 55.328-1.112 10.56-1.293 962.313-.184 969.912l.662 4.54 9.25-2.86 9.25-2.859V594.14c0-426.433.179-485.408 1.492-490.447 4.052-15.558 13.297-25.22 26.05-27.225 2.653-.417 20.278 1.871 53.458 6.94 65.678 10.033 59.817 8.799 64.063 13.491l3.564 3.937 8.065-.552 8.065-.553-1.2-5.116c-1.531-6.527-3.793-11.233-7.644-15.905-6.489-7.871-6.314-7.826-66.012-17.17-57.005-8.923-64.175-9.59-72.414-6.741m-19.987-.11c-18.673 1.228-24.323 2.193-30.2 5.16-14.4 7.269-24.66 22.9-27.221 41.473-.76 5.507-1.079 151.175-1.079 492.079v484.256l5.25 1.231c12.105 2.839 28.802 6.112 31.179 6.112h2.557l.257-491.25.257-491.25 2.182-7.644c4.953-17.352 15.5-32.245 27.075-38.23 5.307-2.745 4.462-2.904-10.257-1.937m27 26.24c-2.732 1.076-3.825.888 50.5 8.687 51.95 7.458 51 7.253 51 10.974 0 2.622.039 2.636 5.75 1.996 14.133-1.584 15.444-2.173 11-4.942-1.891-1.178-35.095-6.631-95.75-15.724-13.327-1.998-19.28-2.26-22.5-.991m-10.703 6.821c-3.212 3.428-6.095 9.125-8.187 16.182-1.345 4.536-1.61 11.141-1.61 40.075v34.644l14.75 1.659c8.113.913 32.75 3.672 54.75 6.131s41.913 4.707 44.25 4.995l4.25.526v-26.504l-19.75-2.284c-20.885-2.415-23.776-3.303-27.645-8.5-2.856-3.836-2.896-13.049-.074-16.913 4.261-5.833 7.03-6.305 25.469-4.347 9.075.964 17.738 1.996 19.25 2.294l2.75.542v-35.909l-25.75-3.702A12924 12924 0 0 1 242 88.99c-14.575-2.171-26.753-3.957-27.063-3.969-.31-.011-1.723 1.216-3.14 2.729m125.703 17.8c-6.6.716-12.337 1.334-12.75 1.375S324 119.6 324 135v28h2.154c1.272 0 3.542 1.621 5.542 3.958 11.855 13.85 33.793 13.849 46.748-.002 7.95-8.499 10.056-14.354 10.056-27.956 0-14.081-1.924-19.273-9.955-26.869-8.679-8.209-15.675-9.33-41.045-6.581m49.5 9.809c0 2.07 5.249 10.641 6.517 10.641 1.834 0 1.842-.409.078-3.8-1.439-2.766-6.595-8.114-6.595-6.841m-38.545 18.096c-5.501 5.5-1.464 15.545 6.247 15.545 4.726 0 7.217-1.563 8.896-5.58 3.821-9.145-8.112-16.997-15.143-9.965M393 139.411c0 15.924-7.425 29.696-20 37.094l-4.5 2.648 4-.661c16.255-2.683 28.899-23.009 26.066-41.902-.602-4.01-.996-4.59-3.127-4.59-2.366 0-2.439.222-2.439 7.411M351 136c-2.233 2.233-2.501 4.195-.965 7.066 2.02 3.773 8.965 1.143 8.965-3.395 0-1.822-3.393-5.671-5-5.671-.55 0-1.9.9-3 2m-74.077 2.923c-5.055 5.055-3.363 13.629 3.405 17.253 3.376 1.808 38.787 5.689 39.316 4.309.238-.62.303-5.594.144-11.052l-.288-9.925-15-1.698c-22.016-2.491-24.055-2.409-27.577 1.113m83.958 1.858c-.329 1.988-.183 2.921.372 2.366.504-.504.749-1.981.544-3.282-.315-2.001-.455-1.861-.916.916m-77.696.903c-2.457.983-3.387 5.359-1.689 7.951 2.955 4.51 9.504 2.395 9.504-3.069 0-3.414-4.483-6.215-7.815-4.882m258.565 1.022c1.237.238 3.263.238 4.5 0 1.237-.239.225-.434-2.25-.434s-3.487.195-2.25.434m10.514 1.012c1.52.229 3.77.223 5-.014s-.014-.425-2.764-.418-3.756.202-2.236.432m-267.87 1.699c-.828 2.157.323 4.844 1.857 4.333.687-.229 1.249-1.467 1.249-2.75 0-2.741-2.227-3.876-3.106-1.583m277.856-.701c1.513.229 3.987.229 5.5 0s.275-.416-2.75-.416-4.263.187-2.75.416m20.25 1.834c6.6.716 14.025 1.27 16.5 1.233 2.475-.038-.675-.634-7-1.325s-13.75-1.245-16.5-1.232.4.609 7 1.324m23.75 2.166c1.513.229 3.987.229 5.5 0s.275-.416-2.75-.416-4.263.187-2.75.416m10.25.899c3.485.598 161.341 13.875 206.292 17.352 14.46 1.118 27.96 1.978 30 1.911 2.039-.068-6.192-.946-18.292-1.951a26792 26792 0 0 1-46.5-3.917c-118.133-10.066-180.487-14.936-171.5-13.395m275.5 14.56c1.375.577 8.575 1.831 16 2.787s14.288 2.079 15.25 2.495c2.366 1.024 2.284-1.101-.092-2.372-2.016-1.079-24.969-4.123-30.321-4.022-3.264.062-3.282.087-.837 1.112m-9.345 3.654c-3.541 3.913-.655 9.243 4.924 9.092l2.921-.079-2.704-.989c-5.097-1.864-4.299-8.565.902-7.57 1.867.357 2.099.177 1.188-.92-1.599-1.927-5.28-1.69-7.231.466M324 182.878c0 11.496-.345 16.156-1.25 16.887-2.021 1.633-16.455 3.18-20.049 2.149-1.753-.503-3.528-.914-3.944-.914-.417 0-.757 120.108-.757 266.906v266.906l5.25.706c2.887.388 5.813 1.161 6.5 1.716.987.798 1.25 25.596 1.25 117.91v116.899l-2.25.944c-1.238.52-4.163 1.427-6.5 2.017l-4.25 1.073v7.394c0 8.61-1.333 7.7 14.83 10.128 6.231.937 11.947 2.321 12.703 3.076 1.05 1.051 1.318 4.452 1.14 14.465-.148 8.319.142 13.201.797 13.392.566.166 2.268.572 3.78.904l2.75.602V174.406l-3.792-3.703c-6.062-5.92-6.208-5.634-6.208 12.175m535.75-13.155c1.788.222 4.712.222 6.5 0 1.788-.221.325-.403-3.25-.403s-5.038.182-3.25.403m36.25 2.659v3.381l8.75.652c4.813.358 10.469.907 12.571 1.218l3.821.567-.321-3.331-.321-3.331-10.5-1.203c-14.96-1.713-14-1.854-14 2.047m72.371-1.788c-1.755 1.228-3.245 1.305-8.5.44-6.192-1.02-6.434-.977-8.621 1.514-2.516 2.867-3.102 9.5-.993 11.25.691.574 3.729 1.667 6.75 2.428 4.641 1.17 5.74 1.902 7.084 4.718 1.285 2.693 2.803 3.789 7.904 5.707 7.359 2.767 7.13 2.835 6.081-1.814-1.556-6.899 1.819-19.249 6.074-22.23 1.705-1.193 1.333-1.435-3.797-2.465-7.272-1.46-9.361-1.382-11.982.452m-96.609.113c1.244.239 3.044.23 4-.02s-.062-.446-2.262-.435-2.982.216-1.738.455M888 172c0 .55.9 1 2 1s2-.45 2-1-.9-1-2-1-2 .45-2 1m36.244 3.25c.646 1.963 8.756 2.247 8.756.307 0-1.183-1.101-1.557-4.583-1.557-3.22 0-4.461.372-4.173 1.25m74.747 4.241q8.136 8.238 14.082 7.331c1.981-.303 1.889-.607-1.526-5.069-4.359-5.694-8-7.753-13.713-7.753h-4.266zm-59.349-3.001q-.572 1.49 1.836 2.094c2.808.705 4.522-.108 4.522-2.143 0-1.96-5.603-1.917-6.358.049m44.915.733c-2.352 3.357-1.929 4.547 2.403 6.757 3.816 1.947 13.057 2.848 13.024 1.27-.034-1.675-9.928-10.25-11.827-10.25-1.124 0-2.744 1-3.6 2.223m29.99 3.284c5.013 5.87 9.311 8.493 13.919 8.493h2.531l-3.449-4.8c-5.155-7.176-6.939-8.435-12.741-8.993l-5.212-.5zM337 601c0 352.908.224 424 1.335 424 .734 0 6.433-1.615 12.665-3.588l11.331-3.588-.683-417.113c-.507-309.758-.975-417.295-1.819-417.817-.625-.386-3.655-1.016-6.733-1.399-3.078-.384-7.846-1.552-10.596-2.596s-5.113-1.898-5.25-1.898C337.113 177 337 367.8 337 601m692.66-418.964c4.924 6.648 7.83 8.845 12.755 9.644l3.868.628-4.036-5.944c-5.199-7.657-6.301-8.503-11.891-9.133l-4.643-.523zm-139.023-2.257c-1.384 2.239 29.879 4.172 32.699 2.022 1.631-1.244 1.132-1.394-4.5-1.35-3.485.027-11.122-.328-16.972-.789-6.636-.524-10.859-.48-11.227.117m151.444.821c.869 1.045 2.825 4.078 4.345 6.741 2.823 4.943 7.748 8.113 11.597 7.465 1.63-.274 1.489-.865-1.365-5.708-3.826-6.491-6.88-8.942-12.181-9.775-3.821-.599-3.915-.549-2.396 1.277m14.919 2.025c0 2.446 7.964 13.605 10.604 14.857 6.555 3.111 7.583 2.218 4.339-3.771-3.563-6.578-6.383-9.232-11.193-10.535-2.062-.558-3.75-.806-3.75-.551m-855 2.185c0 2.531-3.471 2.004 51 7.749 23.375 2.465 45.032 4.756 48.127 5.091 6.625.717 19.963-.486 17.819-1.608-.795-.416-6.846-1.299-13.446-1.962s-29.325-3.174-50.5-5.58c-56.232-6.389-53-6.164-53-3.69m779 5.808c0 4.03.494 5.111 3.882 8.5 6.145 6.144 7.605 5.314 4.705-2.675-3.993-11.002-8.587-14.118-8.587-5.825m91-4.157c0 .328 1.352 3.274 3.004 6.547 3.236 6.41 5.704 8.584 10.933 9.629l3.333.667-3.385-6.368c-3.267-6.145-6.214-8.779-11.635-10.398-1.237-.37-2.25-.405-2.25-.077m-71.704 4.269c.988 1.116 3.503 2.302 5.59 2.636s5.352 1.664 7.256 2.956 4.908 2.638 6.676 2.992c1.767.353 5.612 1.777 8.544 3.164s6.188 2.524 7.234 2.526 3.45.946 5.34 2.098 5.04 2.292 7 2.533 5.394 1.322 7.63 2.402c2.236 1.079 5.161 1.973 6.5 1.985s4.396.912 6.793 2 5.675 1.978 7.282 1.978 4.553.681 6.545 1.513 3.71 1.395 3.818 1.25c1.538-2.056 6.207-12.719 5.763-13.163-.33-.33-1.988-.61-3.684-.622s-5.045-.912-7.442-2-5.79-1.978-7.539-1.978-4.944-.9-7.102-2-5.417-2-7.244-2-4.936-.675-6.91-1.5-5.125-1.5-7-1.5-5.026-.675-7-1.5-5.448-1.503-7.718-1.506-5.928-.505-8.128-1.116-6.25-1.201-9-1.312-7.25-.575-10-1.033c-4.971-.828-4.99-.821-3.204 1.197m-9.296-.407c0 1.139 3.994 11.706 5.14 13.598 1.298 2.143 8.619 6.653 9.45 5.822.553-.552-4.258-12.638-5.742-14.426-1.167-1.406-8.848-5.741-8.848-4.994m95.172.427c1.226 2.711 6.034 11.073 7.273 12.649 1.452 1.847 1.548 1.833 3.491-.5 2.46-2.955 2.483-3.381.366-6.965-1.937-3.279-12.491-8.194-11.13-5.184m30.274 1.734c-3.82 1.244-7.712 2.584-8.647 2.977-3.171 1.333-13.823 18.285-17.142 27.282-3.668 9.942-4.424 10.671-23.344 22.541-19.102 11.983-30.813 17.199-52.313 23.3-31.571 8.959-43.279 15.433-64.952 35.915-9.514 8.991-11.746 10.585-18.196 12.991-30.985 11.561-44.241 18.435-64.352 33.373l-6 4.456 4.438-4.639c2.44-2.551 4.194-4.882 3.896-5.18-2.566-2.566-21.342-5.816-33.834-5.857-21.439-.069-34.889 5.537-53.415 22.265-4.453 4.021-10.64 8.448-14.143 10.12-8.517 4.064-10.108 3.741-2.883-.587 5.648-3.382 16.853-13.362 15.982-14.234-.915-.914-15.549 2.213-22.984 4.911-35.015 12.708-60.01 51.105-53.432 82.083 6.119 28.816 40.636 47.172 73.095 38.871 29.151-7.456 60.283-38.353 64.365-63.88.658-4.112.616-4.191-2.207-4.159-3.117.035-6.507 2.914-38.783 32.935-26.906 25.026-25.478 22.532 3.373-5.892 29.903-29.46 29.269-28.033 10.775-24.252-10.04 2.053-10.303 1.297-.583-1.67 10.459-3.193 17.013-4.09 37.362-5.115 42.054-2.117 55.996-7.949 108.273-45.289 3.657-2.613 7.679-4.75 8.937-4.75 2.585 0 18.883-6.778 31.413-13.063 15.529-7.791 25.12-15.338 49.288-38.786 41.087-39.863 56.713-53.412 63.333-54.916 10.034-2.279 17.779-7.929 27.012-19.706 5.936-7.572 12.262-13.615 13.472-12.872.412.254.75-1.125.75-3.063 0-4.757-2.597-6.185-8.534-4.69-6.685 1.683-9.019.126-2.911-1.943 3.864-1.308 4.875-2.088 4.626-3.568-.625-3.704-3.144-4.531-11.578-3.796-5.811.505-7.71.385-7.191-.455.388-.628 1.917-1.148 3.397-1.156 6.914-.035 8.896-2.133 5.185-5.491-2.72-2.462-18.101-.419-21.88 2.906l-2.385 2.099 1.141-2.194c1.446-2.781 2.2-3.227 7.853-4.646 5.307-1.332 6.348-2.851 2.999-4.377-1.819-.829-3.851-.565-9.276 1.201M202 464.542v273.73l4.64-.636c2.551-.35 5.701-.636 7-.636 2.324 0 2.36-.155 2.36-10.052v-10.052l3-1.046 3-1.046V193.188l-4.75-.56c-2.613-.307-7.113-.842-10-1.187l-5.25-.629zm24-9.841V716h7V194.219l-3.5-.409-3.5-.408zm11.032-22.951.031 236.75 2.142-2.873c4.951-6.644 18.911-7.227 25.72-1.075l3.575 3.229-.284-234.591c-.156-129.025-.403-234.711-.55-234.857-.36-.361-25.596-3.313-28.416-3.324L237 195zm768.489-232.599c2.335 7.637 5.776 12.96 9.659 14.941 5.252 2.679 5.388 2.348 2.254-5.481-2.636-6.584-5.398-9.561-10.283-11.079-2.112-.656-2.276-.493-1.63 1.619m-733.131.288c-.221.583-.287 116.486-.146 257.561l.256 256.5 3.75.31 3.75.311V199.219l-3.604-.421c-2.01-.235-3.782.049-4.006.641M284 456.437v256.436l3.25.314 3.25.313.285 10.25c.228 8.206.577 10.25 1.75 10.25 2.326 0 2.209-532.501-.117-533.393-.87-.334-3.12-.607-5-.607H284zm735.001-253.254c.002 1.499 4.526 11.718 5.83 13.169 2.135 2.377 6.925 4.859 8.602 4.458 1.869-.446-4.24-12.703-7.433-14.914-2.333-1.616-7.001-3.425-6.999-2.713m13.999 5.409c0 2.146 6.301 13.555 8.146 14.749 2.665 1.725 7.854 3.204 7.854 2.239 0-1.57-5.978-12.258-7.753-13.86-1.861-1.68-8.247-4.103-8.247-3.128m14 4.869c0 1.523 5.987 12.217 7.641 13.647 1.877 1.625 8.392 4.192 9.026 3.558.948-.948-7.501-14.294-9.688-15.304-3.614-1.67-6.979-2.586-6.979-1.901m16.945 10.431c3.254 6.444 7.551 10.097 11.888 10.104 1.284.002 2.181-.334 1.995-.746-4.623-10.224-7.827-13.7-13.716-14.878l-3.284-.656zm94.722-2.727c-.714 2.73-.448 3.072 1.739 2.233.931-.357 1.558-1.343 1.393-2.191-.479-2.467-2.491-2.494-3.132-.042m-82.622 1.585c.025.412 1.048 2.664 2.272 5.004 2.15 4.106 2.305 4.199 4.455 2.693 3.056-2.141 2.895-5.822-.319-7.286-2.877-1.311-6.476-1.542-6.408-.411m75.359 5.022c-1.153.951-4.727 5.103-7.943 9.228s-7.419 8.887-9.342 10.582l-3.495 3.082 2.339 3.284c4.615 6.481 15.442 8.928 22.827 5.158 12.329-6.292 13.848-22.052 2.901-30.102-4.761-3.501-4.573-3.469-7.287-1.232m11.596-1.301c0 .259 1.433 2.504 3.185 4.99 4.478 6.352 4.999 14.024 1.424 20.99-3.153 6.144-2.7 6.648 3.167 3.526 11.477-6.107 11.425-22.857-.088-28.321-3.275-1.554-7.688-2.234-7.688-1.185m-39 28.052c-1.375.798-4.975 2.186-8 3.085-8.166 2.424-19.175 11.858-56.5 48.415-35.659 34.925-42.309 39.737-73.752 53.367-5.914 2.564-12.214 4.946-14 5.295-1.797.351-12.974 7.306-25.017 15.566-37.278 25.569-55.681 32.774-87.981 34.446-7.444.385-11.768 1.01-11.798 1.706-.027.603-.839 7.51-1.805 15.347S843.645 446 843.956 446s3.445-5.512 6.966-12.25c6.676-12.773 9.995-18.166 10.729-17.432.238.238-.317 2.307-1.234 4.599-.917 2.291-1.42 4.413-1.118 4.715.864.865 27.99-1.508 35.462-3.101 16.041-3.422 28.783-9.245 48.65-22.233 7.101-4.643 17.451-10.715 23-13.494 13.168-6.594 22.426-12.984 20.03-13.825-1.109-.389 2.731-2.144 10.663-4.872 34.475-11.86 46.058-20.738 82.359-63.132 8.23-9.611 19.862-22.509 25.849-28.661s10.59-11.664 10.228-12.25c-.399-.645.336-1.064 1.863-1.064 2.926 0 13.597-3.806 13.597-4.849 0-1.089-3.026-5.155-3.807-5.116-.381.02-1.818.689-3.193 1.488m-35.806 5.545c-6.877 4.845-10.193 8.11-4.444 4.376 8.765-5.694 13.25-8.769 13.25-9.086 0-1.094-2.361.169-8.806 4.71M844.5 281.392c-15.388 3.76-30.246 16.012-38.4 31.662-8.986 17.251-14.962 24.533-27.041 32.955l-3.441 2.399 6.941 1.151c6.79 1.125 7.028 1.091 10.941-1.57 10.14-6.895 22.561-11.231 36-12.568 5.824-.579 7.492-1.175 9.928-3.546 5.333-5.194 14.539-5.079 19.012.236 1.408 1.673 2.56 3.89 2.56 4.927 0 1.406 1.317 2.276 5.182 3.423 6.916 2.054 6.197 2.235 15.645-3.941 4.58-2.993 13.018-7.744 18.75-10.558 5.733-2.813 10.423-5.321 10.423-5.572 0-1.487-5.474-10.823-9.437-16.095-14.492-19.278-36.216-27.997-57.063-22.903m195.859 5.419c-7.928 5.2-15.995 10.065-33.359 20.119-8.17 4.73-1.829 2.577 7.966-2.705 8.225-4.435 35.034-21.861 35.034-22.772 0-.879-.864-.399-9.641 5.358m-59.992 18.03c-3.269 2.113-9.221 7.454-13.228 11.87s-8.377 8.613-9.711 9.327-2.242 1.481-2.019 1.704c1.107 1.108 6.985-3.383 12.196-9.318 3.207-3.654 8.546-8.692 11.863-11.195 10.098-7.622 10.453-8.563.899-2.388M844.038 331.84c-1.887 1.012-3.581 2.288-3.763 2.835-.433 1.299 2.635 1.023 5.409-.486 3.224-1.755 4.818-1.479 8.282 1.435 3.405 2.866 4.583 2.68 3.554-.56-1.448-4.565-8.042-6.142-13.482-3.224M848 336c1.97 1.273 4.287 1.273 3.5 0-.34-.55-1.604-.993-2.809-.985-1.781.013-1.91.197-.691.985m125.709 14.633c-2.635 1.799-8.71 4.457-13.5 5.907-11.647 3.525-12.7 4.885-1.586 2.05 9.481-2.419 13.106-4.031 17.877-7.948 4.529-3.718 2.651-3.724-2.791-.009M757 354.611c-13.135 3.871-28.013 10.554-37.696 16.933-14.459 9.525-66.998 62.796-88.72 89.956-24.436 30.553-34.376 42.036-40.676 46.989-4.066 3.196-6.07 5.648-7.345 8.984-1.447 3.791-2.595 5.016-6.596 7.044-2.663 1.349-6.041 4.025-7.505 5.944-1.465 1.92-4.98 4.912-7.812 6.648-2.833 1.736-10.387 8.527-16.788 15.091-11.052 11.334-11.52 11.98-9.289 12.828 40.054 15.228 71.718 35.135 104.159 65.484 8.238 7.707 17.277 15.263 20.087 16.793l5.109 2.781 2.949-5.793c1.623-3.186 3.878-6.353 5.013-7.037s2.968-3.018 4.075-5.187c1.439-2.821 4.504-5.662 10.773-9.984 9.39-6.474 16.344-12.346 34.777-29.371 6.423-5.932 16.811-14.621 23.084-19.309 13.408-10.021 31.241-26.871 43.292-40.905 4.723-5.5 13.363-15.037 19.2-21.194 11.737-12.378 20.091-23.93 27.702-38.306l5.03-9.5.366-13.713.366-13.712-1.934 3.212c-5.465 9.081-9.774 14.737-16.121 21.162-32.166 32.559-75.907 37.549-104.445 11.915-25.236-22.667-22.523-61.829 6.388-92.235 13.306-13.994 38.019-26.078 53.467-26.144 2.686-.012 3.212-.26 2.09-.985-2.76-1.784-14.199-.982-23 1.611m149.994 12.139c-8.249 10.397-13.061 15.136-18.249 17.973-2.615 1.43-4.573 2.783-4.349 3.006.617.618 9.761-4.388 12.709-6.958 3.372-2.939 17.177-20.771 16.081-20.771-.46 0-3.247 3.038-6.192 6.75m-177.683 24c-10.374 11.247-17.029 34.435-12.377 43.127 1.765 3.297 2.106 2.24.937-2.904-2.559-11.26 3.899-30.326 13.963-41.223 1.397-1.512 2.179-2.75 1.738-2.75s-2.359 1.688-4.261 3.75m24.635 34.674c-10.212 3.999-21.348 9.507-20.644 10.211.277.278 2.344-.434 4.592-1.581s9.154-4.153 15.347-6.68 11.447-4.771 11.676-4.985c1.307-1.221-3.497.108-10.971 3.035M764 502.14c-10.309 5.653-26.019 12.291-41.5 17.537-7.15 2.423-11.2 4.132-9 3.798 11.847-1.796 53.499-19.154 57.483-23.955 1.76-2.12 1.453-2.005-6.983 2.62m-121 2.922c-6.875 1.581-18.979 4.006-26.899 5.388-15.659 2.734-19.715 4.2-8.601 3.109 13.793-1.355 49.5-9.361 49.5-11.099 0-.625.145-.652-14 2.602m-42 23.86c4.74 2.722 29.204 5.109 44.25 4.318 15.192-.799 11.484-1.726-7.506-1.877-10.755-.086-20.725-.745-26.494-1.75-10.486-1.828-12.463-1.961-10.25-.691m126.5 6.801c-10.822 5.925-31.23 13.782-50 19.249-6.681 1.946-6.772 2.012-2 1.45 10.897-1.284 56.5-18.924 56.5-21.855 0-.925-1.317-.587-4.5 1.156M598 561.937c10.379 7.388 69.106 17.293 84.5 14.251 3.057-.604.463-.953-11-1.482-22.555-1.041-42.689-4.35-62.436-10.263-12.155-3.639-12.889-3.805-11.064-2.506m-35.917 2.447c1.018.937 16.917 8.586 16.917 8.138 0-.557-15.557-8.522-16.644-8.522-.379 0-.502.173-.273.384m-36.362 10.6c-20.242 21.864-29.152 42.523-29.118 67.516.022 15.436.997 20.978 13.532 76.838 3.312 14.761 5.824 27.036 5.583 27.278-.604.603-4.798-14.912-9.221-34.116-2.027-8.8-3.868-16.187-4.091-16.417-.224-.229-.409 11.696-.412 26.5s-.292 30.588-.641 35.075l-.635 8.157 3.891 1.981c2.14 1.09 5.804 2.553 8.141 3.251l4.25 1.27v8.366c0 8.029.102 8.405 2.528 9.328 3.443 1.309 17.064 4.675 21.972 5.43l4 .615 4-11.278c5.281-14.889 5.977-14.781 10.753 1.678 2.068 7.126 4.094 13.279 4.503 13.674 3.706 3.572 54.939 4.889 66.744 1.714l5-1.344 1.627-11c4.436-29.981 6.697-80.153 4.325-95.968-.652-4.348.968-14.781 2.721-17.532.64-1.003.782.499.429 4.536-.876 10.039.081 11.619 3.608 5.953 5.087-8.174 9.831-20.186 10.646-26.959l.779-6.471-5.567-3.457c-3.063-1.902-12.003-9.547-19.868-16.989-21.983-20.801-32.867-29.092-54.659-41.639-12.133-6.986-33.929-17.607-42.731-20.822l-5.69-2.079zm72.279 8.31c0 .227 3.038 2.441 6.75 4.92 12.555 8.385 24.879 18.551 39.344 32.456 14.181 13.632 20.566 19.003 21.491 18.079.258-.259-1.16-1.713-3.152-3.232s-9.317-8.22-16.279-14.89c-14.937-14.312-24.368-22.102-36.654-30.279-10.523-7.004-11.5-7.603-11.5-7.054m52.712 19.159c3.416 3.101 8.996 8.656 12.4 12.343s5.333 5.296 4.288 3.576c-3.52-5.795-16.103-18.175-20.9-20.563-1.1-.547.795 1.542 4.212 4.644M607 631.299c0 .234 3.038 2.691 6.75 5.46 6.7 4.997 18.831 16.987 23.009 22.741 1.198 1.65 2.192 2.463 2.209 1.807.063-2.349-9.751-13.917-16.917-19.942-6.53-5.49-15.051-11.189-15.051-10.066m-33.847 7.187c.267.268 7.009 2.935 14.98 5.927 7.972 2.992 19.191 7.501 24.931 10.019 5.984 2.626 9.37 3.734 7.936 2.597-5.78-4.583-51.673-22.369-47.847-18.543m-329.058 28.088c-4.345 3.656-5.251 7.983-4.901 23.414.265 11.689.53 13.53 1.986 13.81 1.507.288 1.714-1.324 2-15.566.311-15.426.4-16.008 3.084-20.06 3.146-4.747 2.307-5.365-2.169-1.598m6.656 1.176c-4.094 4.291-4.751 7.376-4.751 22.315V704h4.353c2.395 0 7.12-.289 10.5-.642l6.147-.643v-13.792c0-7.586-.48-15.06-1.067-16.608-2.888-7.623-10.175-9.814-15.182-4.565M596 667.382c0 .21 4.388 1.164 9.75 2.119s13.462 2.977 18 4.491c9.568 3.193 10.574 2.961 2.731-.629-7.715-3.532-30.481-7.999-30.481-5.981m61.13 8.368c-1.815 3.712-4.837 9.525-6.717 12.917l-3.418 6.168-.35 31.332c-.319 28.569-1.531 45.771-4.267 60.583-.597 3.232-.578 3.25 3.461 3.25 2.235 0 6.264-.472 8.954-1.049l4.892-1.049 1.147-10.701c3.681-34.321 3.824-55.407.564-83.201-.87-7.425-1.323-16.087-1.005-19.25s.457-5.75.308-5.75c-.148 0-1.754 3.038-3.569 6.75m-403.095 3.184c-2.115 3.952-.16 9.066 3.465 9.066 2.123 0 4.5-2.905 4.5-5.5 0-4.798-5.893-7.437-7.965-3.566m1.965 3.649c0 3.133 2.348 2.79 2.82-.411.212-1.443-.208-2.172-1.25-2.172-1.021 0-1.57.903-1.57 2.583m-19 28.323c0 3.046.468 4.329 1.75 4.802 2.834 1.046 3.219 2.358 3.235 11.042.009 4.823.43 8.25 1.015 8.25.55 0 1-.845 1-1.878s.675-2.437 1.5-3.122c2.504-2.078 2.164-22-.375-22-1.031 0-3.281-.281-5-.625-3.099-.62-3.125-.59-3.125 3.531m21.782 1.844c-.12 3.163-.296 8-.39 10.75-.099 2.876.338 5.425 1.03 6 .661.55 1.484 1.753 1.829 2.672.414 1.105 1.327 1.49 2.688 1.134 1.895-.496 2.061-1.288 2.061-9.816 0-7.323.316-9.397 1.5-9.852.877-.336 1.5-1.835 1.5-3.607 0-2.971-.1-3.031-5-3.031h-5zM250 717.965c0 8.707.236 10.091 1.869 10.965 2.846 1.523 3.131.557 3.131-10.597V708h-2.5c-2.499 0-2.5.002-2.5 9.965m283.12-5.215c10.331 16.967 23.584 35.186 32.915 45.25 6.158 6.641 5.461 4.662-1.056-3-6.683-7.858-20.724-27.011-27.308-37.25-5.464-8.497-9.139-12.536-4.551-5M270 727v10.078l8.569-.289 8.57-.289.1-9.5.101-9.5-8.67-.289-8.67-.289zm-50 3v10h18v-20h-18zm27.18 5.25c.279 1.96.996 2.289 5.57 2.552 5.041.29 5.25.201 5.25-2.25 0-2.431-.265-2.552-5.57-2.552-5.203 0-5.548.148-5.25 2.25m15.36 3.097c-2.357 1.724-.953 2.554 3.24 1.916 2.996-.456 3.126-.616 1.5-1.849-2.244-1.702-2.499-1.706-4.74-.067m-20.902 2.153c-.42 1.095.124 1.5 2.016 1.5 2.19 0 2.398-.232 1.346-1.5-.685-.825-1.592-1.5-2.015-1.5s-1.03.675-1.347 1.5m26.862 2.558c-18.7 1.543-35.238 2.837-36.75 2.874L229 746v16h2.826c3.669 0 67.671-5.82 71.924-6.54l3.25-.551v-7.454c0-7.102-.107-7.449-2.25-7.329-1.238.069-17.55 1.389-36.25 2.932m-60.417-1.7c1.058.911 7.917 1.412 7.917.579 0-.515-1.875-.937-4.167-.937s-3.979.161-3.75.358M202 751.711v7.968l9.442 1.161c15.726 1.932 14.558 2.471 14.558-6.711v-7.871l-6.25-.657c-3.437-.362-8.838-.928-12-1.258l-5.75-.601zm68.238-4.549c-3.192 3.192-.002 10.441 3.596 8.171 2.568-1.62 2.298-8.742-.346-9.121-1.106-.159-2.569.269-3.25.95M265 761.557a22976 22976 0 0 1-35.25 3.385c-.412.032-.75 3.658-.75 8.058 0 6.952.229 8 1.75 8.002.963.001 14.8-1.348 30.75-2.998 15.95-1.649 32.6-3.337 37-3.751l8-.753.292-7.75.292-7.75-3.792.115c-2.086.063-19.317 1.612-38.292 3.442m-62.792 8.574.292 8.369 9.5 1.164c15.456 1.895 14 2.581 14-6.597 0-9.071.589-8.535-10.5-9.541-3.85-.349-8.482-.889-10.292-1.2l-3.293-.564zM270.2 765.2c-3.161 3.161.064 10.383 3.634 8.135 1.979-1.247 2.569-3.594 1.736-6.914-.656-2.612-3.364-3.227-5.37-1.221m27.8 11.385c-.825.194-15.675 1.734-33 3.422s-32.512 3.286-33.75 3.551c-2.105.449-2.25.994-2.25 8.461 0 5.292.383 7.981 1.136 7.981.625 0 10.863-1.132 22.75-2.516a99463 99463 0 0 1 34.614-4.025c7.15-.829 14.462-1.742 16.25-2.029l3.25-.521V776l-3.75.116c-2.062.064-4.425.275-5.25.469m-96 12.279c0 4.475.338 8.15.75 8.168s5.475.678 11.25 1.468 10.838 1.451 11.25 1.468c.412.018.75-3.727.75-8.321v-8.354l-7.25-.622c-3.988-.342-9.387-.919-12-1.282l-4.75-.661zm348.985 1.682-3.222 9.672-4.132-.649-7.631-1.197-3.5-.548v14.838c0 18.007-.248 18.638-16.047 40.928-23.66 33.379-25.807 40.321-25.954 83.91-.108 32.267-1.526 46.129-7.981 78.008-3.627 17.911-2.113 27.092 4.954 30.045 4.251 1.776 6.801 1.268 15.542-3.091 6.077-3.031 6.597-3.559 7.744-7.846 1.633-6.106 7.074-11.995 13.076-14.153l4.758-1.711 1.644-9.634c2.479-14.525 7.824-28.145 21.436-54.618 6.788-13.2 17.704-34.8 24.258-48 9.192-18.512 13.249-25.576 17.743-30.893 14.8-17.509 18.578-23.796 22.643-37.677 1.357-4.637 4.091-11.103 6.075-14.37 3.358-5.529 8.06-16.442 7.379-17.124-.166-.165-3.894.165-8.286.734-10.388 1.346-37.143.315-49.984-1.925l-10-1.745-3.061-10.728c-1.684-5.9-3.325-10.991-3.647-11.313s-2.035 3.767-3.807 9.087m-280.373-7.252c-2.764 2.021-1.857 8.101 1.275 8.543 2.732.387 4.076-1.216 4.098-4.887.025-4.24-2.357-5.861-5.373-3.656m375.244 10.437-4.644.37-.663 4.422c-.502 3.347-1.274 4.733-3.176 5.7-1.784.907-3.439 3.599-5.708 9.285-1.757 4.404-4.682 10.424-6.5 13.378-1.817 2.953-4.425 9.25-5.795 13.992-3.136 10.854-9.086 20.985-19.45 33.122-7.287 8.532-9.323 11.945-19.985 33.5-6.529 13.2-16.832 33.45-22.895 45-14.267 27.179-21.376 45.222-23.562 59.8-.608 4.051-.468 4.471 1.68 5.046 5.032 1.347 9.449.571 15.342-2.696 5.411-3 6.161-3.82 7.639-8.353 2.139-6.564 4.337-9.81 8.301-12.26 2.891-1.787 3.368-2.765 4.516-9.267 2.853-16.161 7.908-28.433 24.822-60.27 6.429-12.1 15.548-31.225 20.265-42.5s9.277-21.625 10.134-23c18.521-29.721 19.603-31.962 24.294-50.293 4.094-16.002 4.067-15.762 1.779-15.527-.962.099-3.84.347-6.394.551M264.5 798.359l-35 4.141-.29 8.25c-.16 4.538.077 8.25.527 8.25s7.105-.88 14.79-1.955 23.423-3.101 34.973-4.503 22.462-2.793 24.25-3.091l3.25-.542V794l-3.75.109c-2.062.059-19.5 1.972-38.75 4.25m-62.5 9.499v7.858l9.25 1.192c5.088.655 10.488 1.43 12 1.721l2.75.53V802.36l-10.25-1.186c-15.119-1.749-13.75-2.414-13.75 6.684m67.628-5.33c-1.97 5.132.581 9.501 4.365 7.476 3.332-1.784 2.496-8.389-1.115-8.808-1.709-.198-2.841.266-3.25 1.332m271.843 9.972c.257 3.3 1.044 11.85 1.749 19 1.269 12.891 1.283 12.937 1.608 5.5.333-7.614-1.259-22.769-2.916-27.761-.675-2.032-.789-1.191-.441 3.261m-247.971.566c-6.6.949-23.812 3.209-38.25 5.022L229 821.385v8.327c0 8.116.057 8.313 2.25 7.824 1.238-.275 12.15-1.877 24.25-3.558 12.1-1.682 28.224-3.94 35.83-5.018 7.607-1.078 14.244-1.96 14.75-1.96 1.094 0 1.257-14.707.17-15.27-.413-.214-6.15.387-12.75 1.336M602 824.188c-4.675 4.453-7.423 7.531-6.106 6.841 4.082-2.138 17.205-15.313 14.924-14.983-.175.025-4.143 3.689-8.818 8.142m-400 2.105v8.33l10.743 1.313c5.908.722 11.308 1.53 12 1.796.948.364 1.257-1.599 1.257-7.996v-8.479l-9.75-1.189c-5.363-.654-10.762-1.395-12-1.647-2.19-.447-2.25-.237-2.25 7.872m68.238-6.131c-3.192 3.192-.002 10.441 3.596 8.171 2.568-1.62 2.298-8.742-.346-9.121-1.106-.159-2.569.269-3.25.95m288.903 2.338c0 1.1.386 2.9.859 4l.859 2v-2c0-1.1-.386-2.9-.859-4l-.859-2zM268.5 834.622c-20.35 2.92-37.562 5.325-38.25 5.344-.893.024-1.25 2.319-1.25 8.034 0 9.453-1.656 8.879 17.317 5.997 18.676-2.837 17.351-2.3 18.107-7.337 1.059-7.066 4.408-9.435 13.363-9.454 8.1-.017 12.364 2.276 13.633 7.331.686 2.733.425 2.721 11.58.559l3.5-.679.299-6.859c.165-3.773-.06-7.172-.5-7.553-.439-.382-17.449 1.696-37.799 4.617M202 844.867v8.042l3.25.548c1.787.301 7.188 1.143 12 1.872l8.75 1.324V840.23l-8.25-1.138c-4.537-.626-9.937-1.392-12-1.703l-3.75-.565zm77.5-3.712c-3.318 1.815-4.5 4.016-4.5 8.381 0 4.981 2.264 7.464 6.806 7.464 6.451 0 9.102-10.102 3.838-14.63-3.113-2.678-3.375-2.73-6.144-1.215m-9.845 1.674c-2.237 2.471-2.138 8.424.174 10.516 2.591 2.345 2.669 2.241 2.69-3.595.01-2.887.396-6.038.857-7 1.149-2.398-1.531-2.342-3.721.079m28.595 5.386c-4.38.672-6.25 1.397-6.25 2.422 0 5.282-6.781 10.916-12.186 10.122-2.21-.324-3.187.079-4.017 1.656-2.516 4.784-6.797 3.653-6.797-1.795 0-7.58-2.526-7.766-33.75-2.474l-6.25 1.059v15.939l5.25-.673c2.887-.37 20.325-3.215 38.75-6.322l33.5-5.649.292-7.75c.221-5.868-.022-7.719-1-7.623-.711.071-4.104.56-7.542 1.088m285.39 7.717c-.902 2.987-1.599 6.587-1.55 8 .05 1.42.933-.56 1.976-4.432 2.258-8.382 1.909-11.305-.426-3.568M202 864c0 4.4.338 8.008.75 8.018s5.025.677 10.25 1.482c14.169 2.184 13 2.768 13-6.5 0-4.4-.338-8.008-.75-8.018s-5.025-.677-10.25-1.482c-14.169-2.184-13-2.768-13 6.5m65 7.513c-20.625 3.497-37.613 6.386-37.75 6.422-1.041.27-.057 16.061 1 16.038.688-.015 18.125-3.079 38.75-6.809l37.5-6.782.292-7.691c.22-5.8-.025-7.672-1-7.613-.711.043-18.167 2.939-38.792 6.435m-65 10.816v8.368l8.75 1.189c4.813.654 10.213 1.447 12 1.763l3.25.574v-8.093c0-9.225 1.2-8.212-12-10.13-4.125-.599-8.512-1.303-9.75-1.564-2.192-.462-2.25-.258-2.25 7.893m67.628-6.801c-1.97 5.132.581 9.501 4.365 7.476 3.332-1.784 2.496-8.389-1.115-8.808-1.709-.198-2.841.266-3.25 1.332M296 884.624c-4.125.773-20.775 3.779-37 6.679l-29.5 5.273-.292 8.301-.292 8.3 2.792-.554c10.818-2.146 61.211-11.795 67.292-12.885l7.5-1.344.292-7.697c.335-8.835 1.236-8.328-10.792-6.073m231.48 12.627c-2.121 5.637-5.581 14.027-7.689 18.645-2.108 4.617-3.602 8.627-3.318 8.91.799.799 9.944-19.337 12.998-28.619 3.884-11.803 2.589-11.111-1.991 1.064M270.2 893.2c-3.161 3.161.064 10.383 3.634 8.135 1.979-1.247 2.569-3.594 1.736-6.914-.656-2.612-3.364-3.227-5.37-1.221m-68.2 7.729v7.929l5.25 1.001c2.887.551 7.05 1.273 9.25 1.605s5.256.854 6.792 1.159l2.792.554-.292-8.332-.292-8.333-10.5-1.682c-5.775-.926-11.062-1.716-11.75-1.756-.901-.053-1.25 2.139-1.25 7.855m65 7.177c-19.525 3.797-36.062 7.113-36.75 7.368-.858.318-1.25 2.987-1.25 8.514 0 7.838.059 8.036 2.25 7.522 1.238-.291 17.775-3.667 36.75-7.503 18.975-3.835 35.512-7.215 36.75-7.509 2.085-.497 2.25-1.084 2.25-8.017 0-7.121-.108-7.476-2.25-7.381-1.238.055-18.225 3.208-37.75 7.006m285.716.623c-1.416 3.174-3.461 8.021-4.542 10.771-1.082 2.75-5.836 13.1-10.563 23s-7.868 17.1-6.978 16c4.163-5.149 26.315-53.885 25.062-55.138-.222-.222-1.562 2.193-2.979 5.367M270.75 911.08c-2.326 1.355-2.411 7.729-.114 8.611 3.783 1.451 7.1-4.894 4.314-8.251-1.399-1.685-1.857-1.725-4.2-.36M202 919.872c0 4.47.338 8.129.75 8.131.978.004 18.083 2.882 21 3.533 2.195.49 2.25.296 2.25-7.902v-8.404l-8.25-1.175a1835 1835 0 0 1-12-1.743l-3.75-.568zm65 6.688c-20.075 4.091-36.838 7.438-37.25 7.439-.412 0-.75 3.601-.75 8.001 0 9.645-1.661 9.263 19.791 4.543 8.64-1.901 24.484-5.307 35.209-7.568 10.725-2.262 20.288-4.337 21.25-4.611 1.465-.418 1.75-1.709 1.75-7.931 0-6.436-.235-7.425-1.75-7.371-.962.034-18.175 3.408-38.25 7.498m2.628 3.968c-1.97 5.132.581 9.501 4.365 7.476 3.332-1.784 2.496-8.389-1.115-8.808-1.709-.198-2.841.266-3.25 1.332M202 938.291v8.426l7.75 1.272c4.262.7 9.662 1.606 12 2.013l4.25.74v-16.394l-10.25-1.742c-5.637-.958-11.037-1.966-12-2.241-1.568-.448-1.75.378-1.75 7.926m78 3.777a9568 9568 0 0 0-36.75 8.06L229 953.299v16.524l6.25-1.471c17.515-4.122 36.936-8.559 51.75-11.823 9.075-1.999 17.288-3.867 18.25-4.15 1.464-.43 1.75-1.73 1.75-7.946 0-9.049 2.68-8.814-27-2.365m-9.762 6.094c-3.192 3.192-.002 10.441 3.596 8.171 2.568-1.62 2.298-8.742-.346-9.121-1.106-.159-2.569.269-3.25.95M202 957.197v8.356l12 2.004 12 2.005v-16.354l-9.25-1.64c-5.088-.902-10.488-1.885-12-2.184l-2.75-.543zm84.5 1.747c-8.8 2.09-24.325 5.687-34.5 7.994s-19.512 4.439-20.75 4.737c-2.097.505-2.25 1.077-2.25 8.433 0 6.149.313 7.892 1.419 7.892.781 0 18.142-4.05 38.581-9s37.35-9 37.581-9c.23 0 .419-3.375.419-7.5 0-9.078 1.59-8.802-20.5-3.556m-15.879 7.577c-2.134 2.135-2.125 7.348.015 8.17 2.844 1.091 4.864-1.104 4.864-5.286 0-4.377-2.128-5.635-4.879-2.884M202 975.929v7.929l5.75 1.166c3.162.642 8.563 1.744 12 2.449l6.25 1.283v-8.378c0-4.608-.138-8.378-.307-8.378s-5.206-.9-11.193-2-11.249-2-11.693-2-.807 3.568-.807 7.929m88.667 1.738c-.828.828-.889 12.778-.069 13.597 2.047 2.047 3.402-.889 3.402-7.371 0-6.587-1.037-8.523-3.333-6.226m-12.167 2.755-5 1.185v19.893l4.42.316c9.066.648 9.08.629 9.08-11.835 0-12.374.588-11.712-8.5-9.559m-25.75 6.29L239 990.235v6.824c0 3.752.414 7.079.92 7.392.507.313 7.257-1.085 15-3.105l14.08-3.674v-7.336c0-5.253-.355-7.309-1.25-7.241-.687.052-7.437 1.679-15 3.617M202 1001.818v13.818l8-2.055 8-2.055v-10.196c0-8.848-.231-10.263-1.75-10.707-1.531-.447-13.087-2.623-13.934-2.623-.174 0-.316 6.218-.316 13.818m29-9.872c-1.375.411-3.963.532-5.75.27l-3.25-.478v23.139l4.578.687c8.705 1.305 9.422.314 9.422-13.043 0-12.225.065-12.088-5-10.575m60 3.969c-1.236.843-1.28 1.379-.25 3.041 3.093 4.99.107 7.272-9.687 7.403-7.916.106-12.063-.884-12.063-2.878 0-2.024-.43-1.965-15.36 2.076-15.003 4.061-15.383 4.28-12.724 7.346 3.651 4.21 1.39 5.919-9.003 6.801-7.007.594-13.56-.86-14.101-3.129-.244-1.025-1.954-.826-7.812.908l-7.5 2.22-.302 5.149c-.167 2.831-.002 5.148.366 5.148s21.879-5.818 47.802-12.929c25.924-7.111 51.356-14.071 56.517-15.467 5.161-1.395 9.571-2.725 9.801-2.955 1.489-1.489-23.597-4.16-25.684-2.734m277.886 1.084c-5.754 3.04-10.441 15.001-5.879 15.001 1.241 0 3.748.922 5.571 2.048l3.313 2.048 4.183-2.134 4.182-2.133-.493-6.9c-.725-10.137-3.237-11.968-10.877-7.93m-268.386 9.138a5267 5267 0 0 1-39 10.792c-9.9 2.686-27.061 7.401-38.136 10.478s-20.412 5.593-20.75 5.593-.614 6.3-.614 14 .228 14 .506 14c.496 0 82.729-25.291 107.744-33.137l12.75-3.999v-11.373c0-6.255-.337-11.573-.75-11.817-.413-.245-10.2 2.214-21.75 5.463m274.25 10.426c-5.955 3.056-8.518 5.437-5.854 5.437 1.741 0 16.104-7.234 16.104-8.111 0-1.695-3.534-.773-10.25 2.674m-20.75.451c-3.025 1.605-7.142 3.389-9.149 3.964l-3.648 1.045 1.398 4.647c.77 2.556 1.399 5.753 1.399 7.104s1.127 3.642 2.504 5.091c16.292 17.145 17.11 17.768 25.269 19.254 3.15.574 11.127 2.903 17.727 5.175l12 4.132 16.5.037c17.843.04 25.238-1.488 26.504-5.477.329-1.036 1.951-3.332 3.603-5.101 4.294-4.596 2.294-6.2-12.196-9.783-6.31-1.561-13.374-3.808-15.699-4.994-4.224-2.155-4.23-2.155-6.97-.181-2.106 1.518-4.132 1.929-8.742 1.775-5.76-.194-5.99-.302-5.75-2.711.331-3.323-2.916-5.508-5.851-3.937-3.061 1.638-5.222.415-4.64-2.627.677-3.542-3.111-6.161-6.16-4.257-2.883 1.801-5.838-.921-4.24-3.907 1.443-2.695-2.523-5.049-5.668-3.365-4.675 2.502-8.213-.843-4.269-4.036l2.043-1.655-2.447-1.603c-3.519-2.306-7.251-1.917-13.518 1.41m25.166 2.048c-2.484.996-2.491 3.246-.011 3.727.818.159 2.009-.854 2.645-2.25 1.249-2.74.943-2.911-2.634-1.477m4.426 1.438c-1.885 2.877-1.917 2.858 2.291 1.391 2.559-.892 2.955-1.381 2.027-2.5-1.627-1.959-2.445-1.749-4.318 1.109m-230.968 4.238c-12.082 4.027-12.055 4.241.805 6.315 7.721 1.246 7.947 1.22 18.444-2.093 13.382-4.223 13.658-4.492 5.96-5.81-13.154-2.251-13.816-2.21-25.209 1.588m174.039-1.291c-8.33 3.425-11.31 6.579-13.042 13.803-.559 2.331-.342 2.75 1.426 2.75 2.529 0 5.694 1.559 8.674 4.272 1.553 1.414 2.605 1.726 3.5 1.038.703-.541 4.008-1.981 7.344-3.2l6.065-2.215-.775-6.439c-.995-8.264-3.134-12.444-6.355-12.417-.55.005-3.627 1.088-6.837 2.408m60.468-.491c-5.47 1.851-9.047 4.461-7.81 5.698.386.386 2.384-.229 4.44-1.367s5.201-2.379 6.989-2.758c3.107-.658 4.137-1.863 2.472-2.892-.427-.264-3.169.329-6.091 1.319m-114.3 1.574c-2.572 1.396-3.952 4.285-5.32 11.134-.719 3.598 2.358 10.574 8.197 18.586 1.904 2.612 3.007 4.75 2.45 4.75-.558 0-3.341-3.487-6.185-7.75-2.845-4.263-5.302-7.888-5.462-8.056-1.742-1.839-7.37 26.248-6.196 30.925 1.428 5.689 13.984 11.378 32.812 14.865 13.666 2.531 18.681 4.048 29.983 9.066 16.032 7.118 32.911 9.66 52.651 7.927 14.933-1.31 20.489-3.108 23.961-7.754 3.552-4.752 6.203-7.05 9.028-7.823 5.341-1.464 1.607-4.84-9.25-8.363-3.85-1.25-10.382-4.05-14.516-6.223l-7.516-3.95-5.925 3.568c-5.759 3.468-10.81 4.563-12.02 2.606-.372-.603-1.53-.536-3.096.177-3.32 1.513-6.564-1.14-4.473-3.659 1.535-1.851-2.694-6.158-4.404-4.485-2.889 2.825-8.153-.434-5.624-3.482 1.9-2.29-3.309-5.827-6.465-4.389-4.25 1.936-7.01-1.831-3.877-5.293 2.481-2.741-1.956-5.37-6.43-3.811-5.62 1.959-8.532-1.317-3.995-4.495 2.78-1.947 1.224-4.106-4.11-5.705-3.426-1.026-4.384-.793-12.322 2.996-9.503 4.535-14.673 5.176-20.282 2.515-3.801-1.804-7.445-8.203-7.445-13.074 0-1.669-.525-4.539-1.166-6.379-.887-2.546-.887-3.436 0-3.732 1.277-.426 1.624-2.246.416-2.182-.413.022-1.951.692-3.419 1.49m117.669 2.145c-4.604 1.018-4.902 1.308-2.903 2.821 2.46 1.862 3.403 1.863 3.403.004 0-.825.45-1.5 1-1.5s1 .466 1 1.035c0 .702.644.691 2-.035 4.189-2.242 1.471-3.647-4.5-2.325m-216.5 4.246-11.5 3.786-.3 5.646c-.165 3.106.059 5.647.499 5.647.439 0 6.311-1.837 13.05-4.083l12.251-4.083v-5.417c0-6.468.832-6.379-14-1.496m-61.88.223c-5.159 1.648-8.984 3.369-8.5 3.824.777.73 52.367 11.032 55.248 11.032.705 0 1.132-2.068 1.132-5.481 0-4.869-.251-5.537-2.25-5.981-4.437-.986-35.037-6.536-35.637-6.464-.337.04-4.834 1.422-9.993 3.07m282.684-.481c-4.58 2.55-6.951 5.337-4.538 5.337.944 0 10.427-4.333 12.705-5.804.485-.314-2.077-2.172-2.971-2.156-.275.005-2.613 1.185-5.196 2.623m4.896 2.516c-2.995 1.092-3.156 3.103-.293 3.659 1.746.338 5.593-2.408 5.593-3.993 0-1.073-1.743-.963-5.3.334m5.292 3.071c-1.818 1.237-3.781 3.016-4.363 3.952-1.999 3.215.18 2.93 4.849-.634 2.572-1.962 5.203-3.575 5.849-3.583.68-.009.543-.423-.327-.985-2.068-1.337-2.272-1.294-6.008 1.25m-500.742 3.049c-4.537 1.146-8.25 2.386-8.25 2.755 0 .37 3.938 1.45 8.75 2.4 4.813.95 13.16 2.764 18.551 4.033l9.8 2.305-.3-4.597-.301-4.597-9.5-2.253c-5.225-1.24-9.725-2.226-10-2.192s-4.213 1-8.75 2.146m503.698.542c-1.25 1.012-1.858 2.097-1.35 2.41 1.249.772 7.402-1.89 7.402-3.203 0-1.679-3.578-1.21-6.052.793m-74.819 4.728c-5.704 2.35-10.849 4.751-11.433 5.335-1.859 1.859.264 2.554 3.592 1.175 1.767-.732 7.037-2.699 11.712-4.372 10.068-3.603 9.76-3.405 7.94-5.082-1.209-1.115-3.104-.643-11.811 2.944M91 1054.461v10.462l3.75.994c18.986 5.033 36.778 8.955 37.473 8.26.468-.468.722-5.495.564-11.172l-.287-10.322-19-4.31c-25.113-5.696-22.5-6.403-22.5 6.088m450.81-7.211c-1.969 1.565-5.59 7.206-4.272 6.656.534-.223 3.219-1.273 5.967-2.333 6.226-2.403 6.028-2.225 4.515-4.049-1.534-1.849-4.087-1.961-6.21-.274m-7.773 1.86c-3.347 1.336-3.515 1.61-2.057 3.366 1.76 2.12 2.331 1.947 4.862-1.476 2.341-3.167 1.617-3.655-2.805-1.89m10.597 3.448c-6.884 2.524-12.634 5.764-12.634 7.119 0 1.807 1.296 1.662 5.193-.579 1.819-1.046 6.546-2.927 10.505-4.18 7.124-2.255 8.694-3.984 3.493-3.848-1.48.039-4.431.709-6.557 1.488m7.843 3.207c-2.119 1.522-4.844 6.59-3.206 5.961.837-.321 3.368-1.137 5.625-1.813 4.536-1.359 5.075-2.323 2.17-3.878-2.271-1.215-3.197-1.269-4.589-.27m-8.227 2.148c-4.639 1.665-5.172 2.666-2.5 4.695 2.518 1.911 2.85 1.776 5.283-2.161 2.677-4.332 2.549-4.449-2.783-2.534m102.803 2.847c-4.745 7.711-12.36 9.803-32.814 9.012-11.59-.447-13.827-.861-24.808-4.591-13.316-4.523-21.196-6.228-20.025-4.333.392.633 1.383 1.152 2.204 1.152s2.932 1.549 4.691 3.442c8.767 9.433 27.555 13.955 48.514 11.674 20.691-2.25 28.97-7.32 28.009-17.151-.484-4.947-2.4-4.684-5.771.795M81 1059.923l-2.5.724 2.25.677c6.233 1.873 6.25 1.873 6.25-.257 0-2.183-1.454-2.46-6-1.144m473.324 1.516c-4.583 1.434-11.324 5.288-11.324 6.476 0 1.914 1.575 1.698 6.905-.946 3.162-1.569 7.847-3.381 10.41-4.027 2.563-.645 4.414-1.571 4.114-2.058-.762-1.233-5.159-.991-10.105.555M74 1065.021c0 2.469 1.922 3.326 13.329 5.949 11.014 2.532 11.616 2.535 10.967.055-.349-1.335-1.697-2.182-4.156-2.613-2.002-.35-4.54-1.187-5.64-1.86-2.123-1.299-10.333-3.552-12.943-3.552-.896 0-1.557.858-1.557 2.021m487.527-.065c-.325.526-1.163.737-1.862.469-1.544-.592-8.665 2.256-8.665 3.466 0 2.463 2.944 3.246 5.421 1.442 1.384-1.008 2.53-2.171 2.548-2.583.017-.412.819-.766 1.781-.785s2.875-.679 4.25-1.465l2.5-1.429-2.691-.036c-1.48-.019-2.957.395-3.282.921m2.108 3.053c-7.23 3.609-13.018 8.991-9.669 8.991.532 0 3.704-1.769 7.049-3.931s7.41-4.223 9.034-4.58c1.623-.356 2.951-1.062 2.951-1.568 0-1.559-5.294-.944-9.365 1.088m2.615 4.22c-6.381 3.232-7.28 4.162-4.905 5.073 2.797 1.073 14.291-5.465 13.072-7.436-.781-1.265-1.298-1.115-8.167 2.363M101 1072c0 .55.675 1 1.5 1s1.5-.45 1.5-1-.675-1-1.5-1-1.5.45-1.5 1m355.612 8.011c-5.565 13.909 3.771 20.032 35.635 23.373 9.935 1.042 15.648 2.225 22.304 4.619 21.651 7.785 36.258 9.881 56.574 8.114 26.597-2.312 42.9-9.54 42.86-19.002-.039-9.073-5.021-7.97-14.11 3.124-3.81 4.651-9.103 6.354-24.388 7.847-20.434 1.995-34.513-.322-55.487-9.131-6.838-2.873-15.149-5.505-20.5-6.493-22.546-4.164-32.128-7.537-38.158-13.432l-3.118-3.048zm-326.362-1.305c-4.815.927-1.395 2.082 22.658 7.654l24.908 5.769 17.059-5.265c9.382-2.895 16.826-5.496 16.543-5.779-.283-.284-2.511-1.022-4.95-1.641-3.867-.982-4.597-.904-5.701.608-1.902 2.604-19.25 7.949-25.769 7.94-4.797-.007-13.545-1.563-33.763-6.007-2.895-.636-5.9-1.793-6.678-2.571s-1.559-1.353-1.736-1.278c-.176.075-1.333.331-2.571.57m-6.25 10.256c0 6.442.179 7.04 2.25 7.506 1.237.279 12.247 2.987 24.467 6.019 28.455 7.061 26.446 7.156 26.079-1.23l-.296-6.743-23.5-5.575c-12.925-3.066-24.738-5.89-26.25-6.276l-2.75-.701zm72.756-.145-17.745 5.683-.005 6.75c-.007 8.384-1.19 8.326 20.204 1.003l16.79-5.747v-6.753c0-3.714-.338-6.723-.75-6.686s-8.735 2.624-18.494 5.75"/></svg>