<svg xmlns="http://www.w3.org/2000/svg" width="1254" height="1254" viewBox="0 0 1254 1254"><path fill="currentColor" fill-rule="evenodd" d="M371.455 38.455 369 40.909V1158h-2.326c-3.115 0-6.084 3.379-8.599 9.787-2.654 6.762-2.968 22.494-.518 25.99l1.556 2.223h42.221c46.396 0 44.188.283 48.861-6.268 1.559-2.186 2.467-5.174 2.805-9.232l.5-6 194.25-.253 194.25-.252v6.437c0 6.654 1.248 11.47 3.313 12.782.653.416 15.674.762 33.38.771 37.989.018 35.307.97 35.307-12.538 0-6.783-.422-8.912-2.584-13.028-2.422-4.611-2.597-5.888-2.783-20.419l-.199-15.5-3.967-8-3.967-8-230.5-.5-230.5-.5-.027-22c-.015-12.1.16-24.812.388-28.25l.415-6.25h62.912c53.858 0 63.327-.215 65.801-1.494 5.681-2.938 6.011-4.26 6.011-24.054 0-24.637 3.096-22.452-31.814-22.452H516v-8.965c0-9.767-.739-11.035-6.434-11.035H507v-58.607c0-55.429.095-58.567 1.75-57.872 19.68 8.264 21.884 8.518 82.75 9.525 52.215.863 53.063.846 57.228-1.163 4.874-2.352 11.317-9.178 17.67-18.72 4.356-6.542 4.595-6.722 13.179-9.919 4.809-1.791 8.871-3.129 9.027-2.973.157.156-.608 3.647-1.698 7.756-1.27 4.788-2.334 13.581-2.959 24.473-1.49 25.938-2.084 28.556-18.095 79.75-3.938 12.591-4.025 12.75-6.97 12.75-7.364 0-13.032 7.253-14.52 18.581-.355 2.705-2.128 9.419-3.939 14.919s-3.615 13.375-4.009 17.5c-.393 4.125-1.522 9.075-2.509 11-5.034 9.821-4.616 18.933 1.054 22.971 6.093 4.338 14.312 6.165 36.041 8.009 6.875.584 18.125 2.402 25 4.041 40.909 9.754 98.292 6.893 114.856-5.728 8.618-6.565 8.086-20.991-1.09-29.543l-4.023-3.75 6.378-.02c14.441-.044 34.865-4.024 41.523-8.091 8.701-5.316 8.473-21.598-.385-27.514-1.878-1.253-7.092-2.872-12.391-3.845-13.069-2.402-21.02-5.075-25.363-8.526-2.079-1.652-4.323-3.004-4.988-3.004-.664 0-2.011-.889-2.994-1.974-.983-1.086-2.74-2.273-3.905-2.637s-3.018-1.498-4.118-2.522c-7.987-7.428-9.611-8.767-11.27-9.294-1.028-.326-2.618-2.164-3.533-4.083-.916-1.92-2.295-3.49-3.064-3.49-1.017 0-1.516-1.82-1.824-6.658-.385-6.049-.72-6.905-3.671-9.368l-3.248-2.711 2.111-6.382c4.271-12.913 14.678-32.352 27.505-51.381 7.045-10.45 15.452-22.95 18.683-27.779 3.232-4.828 9.751-16.078 14.488-25 5.065-9.539 10.579-18.428 13.386-21.579 12.219-13.715 19.128-36.057 15.97-51.642-3.133-15.458-15.618-26.19-34.886-29.988-17.159-3.382-78.663-6.904-110.973-6.355-11.097.189-20.175.061-20.175-.285.001-.345.717-1.221 1.591-1.947.875-.726 3.659-4.218 6.186-7.76s7.782-9.641 11.676-13.553c8.492-8.531 13.25-17.111 17.368-31.322 2.671-9.215 3.404-10.61 7.983-15.189 10.811-10.81 14.813-25.237 13.889-50.07-1.011-27.162-9.455-57.219-20.326-72.35l-3.545-4.934 1.826-3.39c1.004-1.864 3.996-5.438 6.65-7.943 3.267-3.083 6.103-7.229 8.779-12.834 5.554-11.634 6.985-12.321 22.609-10.857 17.46 1.637 23.93-.164 27.001-7.515 1.457-3.485 1.43-4.708-.309-13.997-.446-2.381-.131-3.825 1.138-5.228 1.303-1.44 1.616-2.972 1.215-5.96-.304-2.264-.094-4.298.48-4.653.625-.386.771-2.825.376-6.314l-.643-5.684 3.747-2.436c8.788-5.713 8.392-8.447-3.498-24.168l-8.116-10.732 1.476-4.185c1.678-4.756 1.488-5.855-2.574-14.851-1.614-3.575-4.289-10.1-5.943-14.5-8.729-23.212-30.001-34.5-65.017-34.5-23.806 0-41.639 6.462-55.252 20.022-21.85 21.764-23.596 54.364-4.519 84.363 6.166 9.695 4.141 29.068-3.718 35.591-1.544 1.282-14.175.746-61.837-2.621l-8.807-.622-1.987-4.226c-2.049-4.361-5.855-6.973-8.798-6.039-1.122.356-2.256-.462-3.455-2.492-2.241-3.793-5.583-6.016-9.839-6.542-1.818-.225-4.766-.69-6.55-1.034-6.998-1.348-27.623 6.682-32.719 12.739-2.066 2.455-3.127 2.861-7.472 2.861H513v-17.8c0-18.408-.373-20.2-4.2-20.2-1.726 0-1.8-6.444-1.8-156V115h3.3c5.006 0 5.7-1.364 5.7-11.2V95h381.105l3.011-6.435 3.012-6.435-.314-18.032c-.274-15.716-.543-18.261-2.1-19.815-1.701-1.698-12.709-1.8-231.75-2.139C534.857 41.936 439 41.415 439 40.894c0-.492-.9-1.794-2-2.894-1.913-1.913-3.333-2-32.545-2h-30.546zm7.295 2.35-4.75.305v1128.919l30.25-.264 30.25-.265V605.833c0-310.016-.225-563.882-.5-564.145-.589-.564-48.331-1.327-55.25-.883M439 63.773v17.896l117.75.665c193.773 1.094 339.65.866 341.05-.534 1.713-1.713 1.669-30.826-.05-32.995-1.129-1.425-23.374-1.643-230-2.253L439 45.877zm0 24.089c0 1.502 1.017 1.982 5.25 2.479 2.887.339 105.244.63 227.46.647 219.045.03 222.225.003 223.25-1.913.572-1.069 1.04-2.198 1.04-2.509S793.175 86 667.5 86c-222.202 0-228.5.051-228.5 1.862m38 7.038-4.5.6-.29 7.055-.29 7.056 20.079-.03 20.08-.029-.29-7.026-.289-7.026-4.5-.676c-5.392-.81-23.701-.763-30 .076m-38 53.6V202h7.984c10.326 0 14.016 2.651 14.7 10.559.826 9.557-3.727 13.441-15.759 13.441h-6.944l.259 47.75.26 47.75 8.5.5c9.72.572 10.684.999 12.602 5.59 1.944 4.653 1.739 9.338-.575 13.133-2.233 3.662-3.743 4.167-13.527 4.523l-7 .254.016 14.25c.009 7.837.122 29.775.25 48.75L440 443h7.484c10.557 0 14.016 2.935 14.016 11.895 0 9.051-2.729 11.464-13.516 11.954l-7.984.363V565h7.777c9.16 0 11.629 1.286 13.323 6.94 1.524 5.086.471 10.217-2.761 13.448-2.373 2.373-3.331 2.612-10.475 2.612H440v95h7.566c10.728 0 14.434 2.953 14.434 11.5s-3.706 11.5-14.434 11.5H440v95.788l7.984.363c10.787.49 13.516 2.903 13.516 11.954 0 8.96-3.459 11.895-14.016 11.895H440v185.055l14.25-.278 14.25-.277.294-8.45c.334-9.61 1.093-11.05 5.828-11.05H478V850.676l-2.378-4.088c-6.579-11.309-8.086-17.875-8.05-35.088.035-17.16 1.772-25.303 8.045-37.717l2.383-4.717v-90.862l-2.488-4.352c-2.117-3.703-2.487-5.619-2.479-12.852.005-4.675-.756-13.9-1.69-20.5-1.967-13.896-.716-24.638 4.092-35.139l2.565-5.603v-31.879c0-18.951-.377-31.879-.929-31.879-3.431 0-4.071-3.051-4.071-19.411 0-16.196-.011-16.273-2.397-17.36-10.693-4.872-11.209-24.124-.825-30.729l3.145-2 .038-18.771.039-18.772 2.526-1.151 2.526-1.151-.276-155.577L477.5 115.5l-3.496-.332c-5.51-.523-6.004-1.451-6.004-11.29V95h-29zm43.247 121.75.253 156.25h10l.253-156.25.253-156.25h-11.012zm13.088-58.655c.366 53.755.665 124.24.665 156.634v58.898l3.25-.314 3.25-.313v-312l-3.915-.32-3.916-.32zm-55.668-4.928c-.367.366-.667 3.741-.667 7.5V221h7.878c8.729 0 9.867-.651 10.761-6.161.979-6.036-2.365-8.839-10.545-8.839-3.718 0-7.061.3-7.427.667M439 333.5v7.5h7.878c9.196 0 10.622-1.007 10.622-7.5s-1.426-7.5-10.622-7.5H439zm269.539 4.545c-24.805 3.893-43.743 17.88-50.591 37.363-6.729 19.146-4.206 37 8.266 58.496l5.456 9.404-.255 8.596c-.478 16.085-5.838 24.705-17.124 27.536-8.144 2.043-21.086 8.03-27.291 12.626l-4.5 3.333 9.5 1.211c11.336 1.444 19.283 4.242 24.021 8.457l3.479 3.095-3.649-2.1c-13.656-7.859-38.512-9.888-53.851-4.396-13.442 4.814-27.792 19.097-33.214 33.061-2.87 7.39-9.035 29.357-8.414 29.978.174.174 2.074-.296 4.222-1.043 5.017-1.747 13.229-3.048 11.906-1.887-.55.482-2.877 1.466-5.171 2.185-7.083 2.221-11.614 5.288-12.616 8.54-.509 1.65-1.033 14.475-1.165 28.5-.292 30.885-1.662 36.908-11.884 52.248-4.629 6.947-4.804 5.816-.465-2.998 7.07-14.359 8.018-20.169 8.201-50.25.18-29.721 1.32-37.04 9.634-61.852 2.122-6.332 3.678-11.805 3.457-12.162s1.866-2.863 4.636-5.568c6.801-6.639 9.095-11.537 13.293-28.374l3.569-14.318-2.664-6.113c-4.701-10.785-7.325-11.004-7.325-.611 0 5.981.292 7.089 2.223 8.441l2.222 1.557h-2.554c-3.574 0-6.151 4.606-3.614 6.461 2.764 2.021 1.985 2.726-1.195 1.081-3.629-1.876-8.736-.124-13.832 4.745-3.712 3.547-3.893 4.572-1.591 9.013 1.632 3.149 3.491 9.7 2.753 9.7-.208 0-1.469-2.137-2.802-4.75s-3.71-5.971-5.283-7.463c-2.768-2.627-2.985-2.668-6.843-1.294-2.191.781-7.696 1.439-12.234 1.463-7.307.039-8.25.253-8.25 1.871 0 2.244 5.67 19.551 7.756 23.673 1.503 2.972 1.499 2.983-.491 1.211-1.977-1.761-2.06-1.659-5.303 6.5-4.476 11.265-10.076 22.378-16.55 32.845L507 574.804V684l2.25-.015c8.125-.053 19.029-4.386 32.876-13.064 4.252-2.664 13.95-8.307 21.552-12.538 34.498-19.201 50.698-36.985 59.838-65.686l2.485-7.802-2.431-3.578c-3.04-4.473-9.092-8.54-17.826-11.978-3.716-1.463-6.546-2.87-6.289-3.128 1.113-1.113 10.759 2.346 23.655 8.482 13.811 6.571 18.668 10.115 8.64 6.303-6.514-2.476-7.517-2.501-5.376-.135.926 1.023 4.784 8.875 8.573 17.448 11.554 26.143 20.637 37.623 37.141 46.941 10.372 5.856 8.174 6.258-3.222.588-15.18-7.552-26.385-20.717-36.442-42.815-3.369-7.401-4.465-9.043-5.006-7.5-9.905 28.227-28.557 48.663-59.666 65.375-7.057 3.791-9.856 5.839-10.142 7.419-.217 1.201-.884 4.845-1.484 8.098-.755 4.097-3.435 10.229-8.721 19.953l-7.632 14.04 2.864 2.299c4.185 3.361 32.457 17.532 42.517 21.312l8.654 3.252 16.346-3.131c21.899-4.194 36.613-5.995 59.346-7.262 10.45-.583 19.034-1.131 19.076-1.219.041-.087 3.11-3.68 6.819-7.983 3.709-4.304 7.961-9.745 9.45-12.093s6.099-7.602 10.243-11.676c8.835-8.683 13.543-17.355 17.033-31.374 2.072-8.318 2.609-9.333 7.436-14.046 9.068-8.853 13.165-19.587 14.116-36.987 1.393-25.488-7.652-63.376-19.299-80.836l-2.777-4.164-1.222 4c-.672 2.2-1.256 5.939-1.298 8.309-.091 5.074-1.552 4.816-2.402-.424-1.4-8.625 4.518-22.948 12.088-29.255 3.178-2.649 5.523-6.063 8.674-12.63 3.257-6.788 5.123-9.466 7.594-10.897l3.275-1.897-12.191-4.245c-20.669-7.198-26.655-13.251-28.637-28.961l-.505-4 1.872 5.012c3.217 8.617 5.965 13.185 9.858 16.394 12.486 10.293 56.13 19.839 64.993 14.217 3.675-2.332 5.055-7.018 3.37-11.449-1.651-4.343-1.36-11.347.501-12.061 1.022-.392 1.457-1.56 1.25-3.357-.351-3.048-2.096-3.342-10.567-1.783-2.488.458-4.25.401-4.25-.138 0-1.124 7.93-3.335 11.965-3.335 4.04 0 5.252-2.477 3.257-6.661-2.081-4.363-.618-7.586 4.665-10.282 7.193-3.669 7.056-4.283-4.21-18.915-8.354-10.85-8.53-11.345-7.163-20.205.601-3.894.268-5.432-2.268-10.5-1.634-3.265-3.538-7.737-4.23-9.937-7.493-23.81-26.025-35.128-59.016-36.044-6.875-.19-15.182.075-18.461.589m60.725 50.928c-2.618.622-6.166 2.747-11.181 6.699-1.519 1.197 1.3 1.104 4.887-.161 5.41-1.909 11.16-1.905 17.481.013 5.371 1.629 8.501.399 7.254-2.851-.442-1.152-13.327-5.104-14.902-4.571-.167.057-1.759.449-3.539.871m1.109 13.434c-5.638 2.625-8.426 5.389-4.279 4.243 6.784-1.876 6.905-1.881 7.031-.258.069.884.181 2.171.25 2.858s1.25 1.38 2.625 1.54c2.169.251 2.514-.118 2.608-2.786.06-1.703.91-3.662 1.903-4.388.987-.722 1.474-1.831 1.083-2.464-1.134-1.835-5.677-1.327-11.221 1.255m-74.431-.459c-4.882 1.482-6.758 3.041-8.845 7.351-5.14 10.619-.098 25.378 11.76 34.422 7.204 5.495 17.143 3.833 17.143-2.867 0-2.059-.1-2.038-2.452.5-7.774 8.388-24.467-7.03-24.526-22.654-.052-13.722 10.205-18.688 19.663-9.521 3.667 3.555 4.097 3.234 1.749-1.307-.939-1.815-3.243-3.79-5.75-4.929-4.586-2.082-5.004-2.129-8.742-.995m-.681 7.581c-6.379 4.469-3.744 20.468 4.059 24.641 1.703.911 1.48.369-1.015-2.474-4.615-5.258-6.587-13.431-4.282-17.739 2.224-4.155 8.705-4.849 7.651-.819-.349 1.335.053 1.862 1.42 1.862 2.391 0 2.512 2.848.156 3.683-7.486 2.655-6.976 11.907.75 13.606 1.375.302 3.507.862 4.738 1.244 3.224 1 3.959-1.831 1.34-5.161-1.256-1.597-1.876-3.434-1.528-4.529.322-1.014.113-1.843-.464-1.843-1.563 0-2.523 4.963-1.213 6.273 2.752 2.752-2.2 3.163-5.623.467-3.121-2.459.452-9.559 4.105-8.157 3.047 1.169 2.114-5.869-1.256-9.477-3.219-3.446-5.57-3.866-8.838-1.577m93.406 19.138c-2.102 2.102.196 7.333 3.222 7.333 1.08 0 .876-.571-.743-2.079-1.469-1.369-2.023-2.734-1.621-4 .626-1.974.315-2.428-.858-1.254m-310.438 4.056c-.401.977-.729 8.527-.729 16.777v15h31v-33l-14.771-.277c-13.365-.25-14.841-.108-15.5 1.5m317.521-.643c-2.46 1.433-2.286 3.277.184 1.955 1.064-.569 2.864-1.035 4-1.035s2.066-.45 2.066-1c0-1.29-3.986-1.239-6.25.08m-355.83 16.516c-.615.741-.941 4.037-.753 7.606l.333 6.298 7.137.292c5.514.225 7.504-.075 8.749-1.32 2.993-2.994 3.281-8.428.659-12.472-1.292-1.994-14.53-2.325-16.125-.404m111.795 5.022c-.34.34 1.815 2.842 4.789 5.559 8.519 7.787 9.841 10.551 9.273 19.396-.5 7.792.15 8.994 2.732 5.053 4.559-6.958 1.975-18.729-5.958-27.14-3.136-3.326-8.862-4.841-10.836-2.868m13.285.942c0 .347.841 1.826 1.869 3.286 5.723 8.125 7.277 14.672 5.201 21.911-.992 3.459.221 4.492 1.754 1.493 3.768-7.374-.26-22.737-6.894-26.287-1.061-.568-1.93-.75-1.93-.403m-27.497 4.531c-10.247 5.083-10.395 6.061-.879 5.823 6.92-.173 8.772.152 12.5 2.191 4.796 2.625 8.876 9.123 8.876 14.138 0 2.98 2.407 4.75 4.125 3.032.544-.544 1.236-3.417 1.537-6.383.653-6.427-3.02-12.942-10.49-18.609-5.301-4.022-7.883-4.053-15.669-.192m-46.249 12.659c5.513 5.77 6.029 16.383 1.082 22.263-1.422 1.689-2.416 3.189-2.21 3.332.483.336 35.591-1.057 47.606-1.89 10.673-.739 13.545-2.311 15.373-8.412 1.456-4.859.562-9.699-2.495-13.519-2.96-3.698-8.692-4.326-40.547-4.444l-21.437-.08zm-16.836-.781c-9.163 3.707-10.706 18.236-2.52 23.744 11.341 7.632 24.841-5.408 18.275-17.651-3.012-5.617-10.129-8.369-15.755-6.093m117.055 6.017c.29 1.382-.142 4.989-.961 8.014-.818 3.025-1.494 5.796-1.5 6.158s6.93.717 15.416.79l15.427.131 5.323-4.035c2.927-2.219 8.135-5.262 11.572-6.762 7.743-3.379 7.845-4.264.5-4.345-3.163-.035-14.875-.604-26.028-1.265l-20.277-1.201zm-117.55.937c-3.464 3.464-3.84 7.716-.957 10.81 5.408 5.805 14.034 2.205 14.034-5.857 0-2.683-5.275-7.876-8-7.876-1.185 0-3.469 1.315-5.077 2.923m236.14.384c-.114 3.271 8.961 47.117 9.96 48.116 1.267 1.267 1.35 2.045-1.445-13.475-4.059-22.54-8.33-39.915-8.515-34.641m-234.492 2.264c-1.986 1.987-1.98 3.4.026 6.263 2.065 2.949 5.375 2.491 7.336-1.016 2.655-4.745-3.486-9.122-7.362-5.247m80.514 10.791c-2.298 3.719-2.533 4.638-1.184 4.638 1.345 0 5.137-6.859 4.134-7.478-.475-.294-1.803.984-2.95 2.84m31.473 5.888c-.209.688-.594 2.15-.856 3.25a32 32 0 0 1-1.239 3.864c-.638 1.556-.093 1.419 3.303-.828 2.237-1.48 6.692-3.771 9.901-5.09l5.833-2.399-8.281-.023c-5.774-.017-8.397.355-8.661 1.226m-96.335 4.481-13.276.327.276 14.721.277 14.721 14.7.276 14.699.277.537-3.277c.296-1.802.431-8.676.301-15.276-.222-11.236-.364-12.003-2.237-12.048-1.1-.026-7.974.099-15.277.279M513 517.3c0 16.846-.416 18.7-4.2 18.7-1.653 0-1.798 1.205-1.778 14.75l.022 14.75 1.976-2.5c2.877-3.64 12.236-22.134 16.239-32.087l3.453-8.587-1.793-4.913c-.986-2.702-2.528-7.5-3.427-10.663l-1.634-5.75H513zm104-10.365c-3.783 1.155-10.773 4.888-11.571 6.18-.389.63-.307.951.182.714 7.258-3.511 12.685-5.832 13.668-5.844.671-.009 1.896-.452 2.721-.985 1.874-1.211-1.118-1.25-5-.065m60.986 12.02c1.368 1.05 8.896 5.108 16.731 9.017 7.834 3.908 17.177 9.074 20.763 11.478 7.047 4.726 8.233 4.596 3.574-.392-1.893-2.026-9.946-6.534-22.523-12.606-20.069-9.689-22.873-10.823-18.545-7.497m-11.495.545c3.763 11.5 2.284 20.473-5.191 31.5-1.514 2.233-1.34 2.18 1.629-.5 8.38-7.564 10.682-23.452 4.499-31.046-1.574-1.933-1.584-1.932-.937.046m-109.046 9.59c-.371.599-2.535 1.917-4.809 2.929-3.799 1.69-3.913 1.845-1.402 1.91 1.704.044 3.966-1.049 6-2.9 1.796-1.634 2.73-2.984 2.075-3s-1.494.461-1.864 1.061m-74.682 7.66c-.196.413-.276 9.75-.178 20.75.097 11 .23 113.263.296 227.25L483 992h10V536h-4.941c-2.718 0-5.101.337-5.296.75M496 764v228h7V536h-7zm235.38-201.375c1.871 5.899 3.605 23.763 3.579 36.875-.068 35.496-8 50.16-29.21 54.005l-7.249 1.315 7 .08c23.461.27 35.552-23.732 32.367-64.247-.909-11.562-4.355-28.219-6.055-29.269-.629-.389-.796.092-.432 1.241M440 576.5v7.5h7.474c7.266 0 7.517-.082 9-2.95 1.948-3.766 1.937-7.018-.031-9.827-1.371-1.959-2.442-2.223-9-2.223H440zm36.172 39.576c-1.51 6.543-1.344 22.007.305 28.424 1.21 4.708 1.292 4.057 1.404-11.125.066-8.869.4-17.531.744-19.25 1.054-5.271-1.2-3.478-2.453 1.951M597 619.111c-6.506 5.821-15.191 11.616-22.622 15.093-7.81 3.655-7.764 4.652.088 1.893 9.891-3.477 20.474-10.991 25.582-18.164 2.703-3.796 2.367-3.666-3.048 1.178m88.655 10.718c-2.26 2.497-2.078 4.425.659 6.997 3.221 3.025 8.164 2.9 10.234-.259 3.726-5.687-6.256-11.862-10.893-6.738m1.329 1.69c-1.031 1.243-.934 1.878.533 3.5 3.637 4.018 9.896 1.444 6.898-2.837-1.768-2.525-5.602-2.867-7.431-.663m-53.199 23.344c3.707 3.206 9.312 5.18 14.331 5.048 3.277-.087 3.239-.13-1.217-1.359-2.53-.698-7.255-2.452-10.5-3.899l-5.899-2.631zM477 661.382c0 3.575.45 6.778 1 7.118.627.388 1-1.803 1-5.882 0-3.575-.45-6.778-1-7.118-.627-.388-1 1.803-1 5.882m239.176 7.269c-6.524 12.925-14.93 21.423-26.676 26.971-7.243 3.421-6.954 4.508.5 1.878 2.338-.825 4.688-1.5 5.221-1.5 1.631 0-5.079 11.008-12.344 20.25-7.451 9.479-7.84 11.635-.722 4 5.765-6.184 10.356-12.94 13.584-19.991 1.682-3.675 4.626-7.554 8.344-10.996 6.492-6.011 11.169-12.79 14.044-20.356 2.718-7.152 1.604-7.299-1.951-.256m-94.452-.892c2.476 2.325 6.066 4.482 8.674 5.212 5.68 1.591 8.428.778 3.102-.917-3.761-1.198-6.049-2.339-13.086-6.528-2.259-1.344-1.965-.843 1.31 2.233m-80.633 8.761c-10.905 6.729-19.874 10.306-28.472 11.355l-5.119.625-.269 22.75c-.148 12.513-.034 22.75.254 22.75 2.628 0 17.044-13.368 20.166-18.701 2.413-4.121 4.547-6.521 6.36-7.153 5.227-1.822 22.714-38.399 18.214-38.097-.399.026-5.409 2.938-11.134 6.471M440 694.5v7.5h7.443c8.367 0 10.557-1.556 10.557-7.5s-2.19-7.5-10.557-7.5H440zm217.529 13.233c-6.12 4.441-14.953 13.176-14.144 13.986.33.33 3.191-1.835 6.358-4.811s7.492-6.901 9.612-8.721c5.296-4.548 4.193-4.822-1.826-.454m-126.533 10.426c-3.119 5.852-3.192 6.225-1.462 7.489 2.437 1.782 1.213 2.822-1.568 1.334-2.46-1.317-3.145-.928-14.716 8.354l-6.25 5.013V869.11l5.35 2.366c15.028 6.646 24.64 7.7 76.65 8.406 25.025.34 45.597.596 45.715.57s-.917-2.853-2.302-6.281c-3.644-9.022-5.417-20.427-6.089-39.171-1.489-41.55 6.99-76.098 23.796-96.954l5.077-6.301-5.848.685c-26.832 3.141-60.485 9.77-72.349 14.252-3.575 1.35-7.897 2.607-9.604 2.792-10.629 1.153-28.419 16.73-38.614 33.809-4.738 7.937-6.106 8.285-2.23.566 5.867-11.68 15.531-22.905 25.27-29.35 5.795-3.835 4.664-4.125-3.984-1.024-9.084 3.258-18.64 8.842-26.947 15.75-5.351 4.449-5.991 4.774-4.086 2.075 5.156-7.302 17.495-15.502 29.798-19.801 3.577-1.249 6.779-2.548 7.117-2.885.954-.955-16.75-.675-21.092.332-4.793 1.112-3.546-.236 1.872-2.024 2.61-.862 8.691-1.278 17.5-1.198l13.5.122-14.381-6.959c-7.909-3.827-14.137-7.202-13.84-7.499.533-.533 2.316.148 22.411 8.569l10.189 4.27 8.556-2.364c4.705-1.3 8.557-2.595 8.56-2.878.003-.284-2.357-1.328-5.245-2.322-7.931-2.729-32.345-14.956-40.148-20.109-3.794-2.505-6.994-4.554-7.111-4.554s-1.689 2.771-3.495 6.159M701 725c-4.125.352-7.275.738-7 .858.275.119 6.125.436 13 .702 6.875.267 18.11.954 24.966 1.528 11.447.957 12.571.898 13.75-.714.706-.966 1.284-2.12 1.284-2.565 0-.921-34.648-.777-46 .191m49.75 1.696c-2.573 2.884-2.437 2.968 6 3.706 19.68 1.721 40.384 6.096 49.951 10.556 28.094 13.097 29.416 53.074 2.843 85.987-3.57 4.422-9.462 13.727-13.159 20.781-10.441 19.92-16.521 29.975-33.424 55.274-18.865 28.235-22.735 34.507-28.97 46.952-8.367 16.701-8.42 16.891-5.516 19.795 3.305 3.306 7.156 2.569 18.719-3.582 7.798-4.148 8.772-4.974 8.788-7.455.034-5.228 7.408-15.71 11.052-15.71.485 0 1.852-3.263 3.039-7.25 5.239-17.607 13.729-33.047 38.282-69.62 10.169-15.149 20.132-31.355 24.361-39.63 3.936-7.7 9.275-16.475 11.865-19.5 8.975-10.484 13.522-19.823 16.038-32.937 4.579-23.874-8.483-40.356-34.958-44.111-11.489-1.629-39.194-3.857-56.661-4.556-15.583-.624-16.597-.552-18.25 1.3m-86.49 5.245c-12.061 1.965-26.518 29.216-31.862 60.059-2.891 16.688-2.484 64.008.595 68.988 1.735 2.808 25.377-3.09 48.757-12.162 5.638-2.188 10.25-4.336 10.25-4.774s2.176-4.116 4.836-8.174c9.588-14.63 21.726-24.336 41.424-33.126 6.019-2.685 11.154-4.671 11.412-4.414.662.662-6.68 5.525-16.801 11.128-31.544 17.462-42.654 36.518-44.873 76.965-1.276 23.258-5.642 41.123-21.59 88.341-6.255 18.517-6.191 20.125.94 23.607 4.699 2.295 9.109 1.328 17.683-3.875 3.042-1.845 6.735-3.658 8.207-4.028 2.182-.547 2.959-1.642 4.203-5.922 2.516-8.655 11.716-15.795 22.858-17.74q1.799-.312 5.66-9.314c5.853-13.643 11.63-23.451 31.513-53.5 20.147-30.447 26.379-40.756 35.364-58.5 3.788-7.479 8.567-15.014 12.686-20 18.7-22.638 24.303-54.017 12.545-70.249-8.072-11.142-21.226-15.715-58.067-20.188-31.513-3.825-81.431-5.453-95.74-3.122m-104.258 23.676c-5.188 4.687-10.204 11.569-13.981 19.183-3.778 7.613-3.95 10.449-.225 3.7 4.393-7.959 9.183-14.562 15.053-20.75 6.031-6.357 5.45-7.822-.847-2.133m226.621 17.368c-2.875 7.185-3.023 11.338-.679 19.055 2.354 7.752 3.76 8.975 2.115 1.842-1.409-6.114-1.226-16.667.367-21.132 1.793-5.023.219-4.818-1.803.235M475.692 784.75c-4.202 11.724-5.753 28.247-3.694 39.364 1.11 5.995 4.899 16.886 5.874 16.886.345 0 .628-13.726.628-30.501S478.251 780 477.948 780s-1.319 2.138-2.256 4.75m232.502 17.346c-9.613 2.018-31.316 8.534-46.194 13.867-13.202 4.733-3.525 2.699 19.271-4.052 11.126-3.294 24.729-7.148 30.229-8.564 15.294-3.937 13.222-4.721-3.306-1.251M440 814v8h6.927c7.633 0 11.073-2.392 11.073-7.701 0-6.31-2.654-8.264-11.25-8.284L440 806zm345.829 9.445c-.204 4.633.026 7.108.606 6.525 1.359-1.366 1.994-12.587.755-13.352-.663-.411-1.149 2.025-1.361 6.827m-40.402 25.274c-6.865 13.862-19.109 31.756-28.559 41.739-4.447 4.698-7.505 8.542-6.795 8.542 2.279 0 18.243-17.285 24.042-26.032 5.913-8.917 11.576-19.574 14.944-28.116 3.338-8.47 1.518-6.532-3.632 3.867M657 861.622c-2.475.783-8.55 2.26-13.5 3.281-10.215 2.107-10.541 2.658-6.219 10.516 4.659 8.47 13.008 4.648 23.656-10.827 3.41-4.957 3.094-5.195-3.937-2.97m109.605 86.3c-3.465 2.284-6.15 6.389-7.081 10.823-.992 4.73 2.452 5.875 10.53 3.501l5.943-1.746.002-5.316c.002-9.018-3.097-11.414-9.394-7.262m1.895 16.991c-4.945 2.31-8.19 4.73-7.402 5.518.628.628 15.902-6.005 15.902-6.906 0-1.149-4.72-.378-8.5 1.388m6.955 3.59c-4.163 6.508-5.023 8.497-3.674 8.497.852 0 9.219-12.305 9.219-13.558 0-1.905-2.617.484-5.545 5.061m-25.671.403c-6.662 3.893-11.175 5.708-15.634 6.288-3.514.457-3.859 10.162-.417 11.73 1.247.568 2.267 1.911 2.267 2.983s.604 2.554 1.342 3.292 1.879 2.345 2.535 3.572 1.774 2.229 2.484 2.229c1.582 0 5.639 4.184 5.639 5.814 0 .653.52 1.186 1.156 1.186s2.548 1.038 4.25 2.306c1.718 1.281 6.65 3.089 11.094 4.068 4.4.969 12.05 2.649 17 3.734 11.734 2.571 33.184 3.505 45.94 2.001 15.808-1.865 17.824-2.608 22.67-8.355l4.254-5.044-2.54-2.185c-1.771-1.523-5.987-2.859-13.918-4.411-6.258-1.224-14.085-3.359-17.392-4.745-9.128-3.825-9.219-3.831-13.065-.898-4.026 3.071-6.449 2.743-6.449-.872 0-2.979-3.003-4.238-5.856-2.457-2.468 1.541-5.184-.273-4.474-2.988.566-2.164-3.835-4.589-5.432-2.992-2.083 2.083-5.738.527-5.738-2.444 0-3.589-2.362-5.153-4.653-3.08-2.821 2.554-5.389 1.315-5.089-2.455.305-3.845-1.725-5.074-5.258-3.183-1.301.696-3.07.995-3.933.664-1.993-.765-2.045-4.543-.073-5.3.822-.316 1.246-.976.941-1.469-1.129-1.827-5.151-.787-11.651 3.011m29.371 1.318c-2.545 4.02-2.286 4.276 2.359 2.335 4.858-2.03 6.158-1.972 4.262.191-1.531 1.745-4.776 7.658-4.776 8.7 0 2.436 3.054-.445 4.983-4.7 1.308-2.888 2.56-5.587 2.781-6s-.48-.75-1.558-.75-2.521-.675-3.206-1.5c-1.795-2.162-2.556-1.892-4.845 1.724m-66.987 3.379c-5.622 2.802-9.712 7.32-11.142 12.308-.848 2.955-.686 3.222 3.127 5.167 3.808 1.943 4.263 1.968 8.612.486 2.525-.86 6.446-1.564 8.713-1.564 5.412 0 6.522-1.319 6.522-7.75 0-11.275-5.037-14.026-15.832-8.647m76.508 2.202c-2.235 2.47-2.192 4.609.074 3.732.962-.372 2.987-.927 4.5-1.232 3.063-.618 3.758-2.305.95-2.305-.99 0-2.261-.461-2.824-1.024-.698-.698-1.556-.434-2.7.829m-133.272 5.621c-3.729 1.624-6.385 7.451-7.098 15.574-.429 4.885-.074 6.283 3.169 12.5 2.009 3.85 2.741 5.875 1.627 4.5s-2.82-3.962-3.791-5.75-2.095-3.25-2.498-3.25c-1.674 0-5.105 13.973-5.561 22.652-.472 8.958-.428 9.187 2.085 10.833 3.875 2.539 10.362 4.224 22.991 5.97 11.298 1.563 17.602 3.381 33.172 9.569 14.112 5.609 23.457 7.089 48.53 7.686 32.978.785 45.172-1.101 49.773-7.7 2.391-3.428 5.725-5.579 11.482-7.407 1.626-.517 1.655-.818.325-3.39-1.764-3.411-3.51-4.251-17.017-8.186-11.915-3.471-18.509-6.119-22.741-9.132-3.727-2.654-9.964-1.404-18.431 3.695-3.115 1.875-6.523 3.41-7.574 3.41-2.305 0-3.555-2.692-1.98-4.267 1.734-1.734 1.389-2.549-1.766-4.181-2.553-1.32-3.046-1.323-4.123-.026-2.528 3.046-6.674.642-4.831-2.801 1.754-3.276-2.146-6.54-5.232-4.378-1.684 1.179-2.623 1.31-3.597.502-1.565-1.299-1.74-4.47-.297-5.362.598-.37.079-1.399-1.25-2.479-1.973-1.606-2.478-1.662-3.85-.428-3.255 2.927-6.94.192-4.893-3.633 1.853-3.461-.993-5.776-5.165-4.201-5.626 2.123-9.296-1.866-4.613-5.015 2.962-1.991 1.571-3.237-3.583-3.207-3.079.018-5.995 1.115-11.167 4.201-17.943 10.707-30.5 5.784-30.5-11.957 0-3.129.321-3.859 1.5-3.406.914.35 1.5.001 1.5-.893 0-1.778-.598-1.783-4.596-.043m135.29-.787c-1.065 1.065.27 2.312 1.832 1.713.805-.309 1.214-.964.909-1.457-.648-1.049-1.837-1.16-2.741-.256m3.771 2.429c-2.304 4.455-1.158 6.061 1.378 1.932 2.374-3.866 2.643-5 1.183-5-.536 0-1.689 1.381-2.561 3.068m4.994-1.001c-.917 1.483-.055 2.099 1.892 1.352.901-.346 1.389-1.031 1.084-1.524-.748-1.211-2.172-1.129-2.976.172m.022 4.494c2.24 1.693 4.65 1.551 5.269-.311.286-.858-.785-1.24-3.417-1.218-3.621.03-3.724.114-1.852 1.529m5.769 2.113c-1.237.864-2.25 2.176-2.25 2.918 0 1.125 5.517-1.776 7.891-4.149 1.199-1.2-3.685-.133-5.641 1.231m-76.341 1.403c-.864.548-.958.898-.241.908.643.008 1.88.288 2.75.622s1.582.157 1.582-.393c0-1.476-2.47-2.163-4.091-1.137m-15.409 3.322c-6.116 1.934-10.5 4.492-10.5 6.127 0 1.88-.197 1.911 6.138-.989 8.7-3.983 17.063-4.329 25.112-1.038 3.345 1.367 1.727-1.144-2.136-3.315-4.457-2.505-12.151-2.829-18.614-.785M473 1004.705v8.204l3.75.796c5.561 1.179 29.315.801 32.5-.517 2.667-1.104 2.75-1.374 2.75-8.913V996.5h-39zm247.24-5.955c-3.274 2.891-7.402 9.032-6.462 9.613.483.298 3.529-2.136 6.769-5.41 4.807-4.858 5.503-5.953 3.782-5.953-1.159 0-2.999.788-4.089 1.75m-7.232.224c-1.195.755-1.242 1.192-.239 2.195 1.004 1.004 1.693.814 3.464-.958 2.119-2.119 2.129-2.21.239-2.196-1.084.009-2.643.44-3.464.959m11.194 3.32c-4.053 4.13-4.355 6.803-.752 6.666 1.817-.068 10.726-8.866 10.064-9.938-1.382-2.235-5.236-.881-9.312 3.272m6.255 3.835c-5.664 5.357-8.066 8.596-7.094 9.567.289.289 3.418-2.498 6.953-6.193 6.086-6.362 6.607-6.68 9.806-6.005 4.079.861 2.865-.989-1.329-2.025-2.319-.572-3.513.095-8.336 4.656m2.858 2.351c-4.455 4.202-4.241 4.541 2.185 3.472 2.75-.458 7.389-.86 10.309-.892 3.271-.037 5.072-.444 4.691-1.06-.34-.55-2.418-1-4.618-1-2.68 0-3.773-.367-3.313-1.112.796-1.288-1.279-2.85-3.817-2.873-.961-.008-3.408 1.551-5.437 3.465m118.184 3.522c-3.638 5.762-8.218 7.228-28.314 9.062-15.568 1.421-33.78-.061-49.804-4.052-6.484-1.615-11.968-2.758-12.186-2.541-.871.872.983 2.409 3.6 2.984 1.524.335 3.933 1.84 5.353 3.344s5.68 4.043 9.467 5.642c14.084 5.947 54.738 4.118 70.179-3.158 3.886-1.832 6.206-5.822 6.206-10.674 0-5.053-1.562-5.263-4.501-.607m-113.434 4.534c-2.786 2.606-5.065 5.373-5.065 6.151 0 1.983 1.805.695 6.95-4.957 5.778-6.348 4.495-7.162-1.885-1.194m5.766-.633-3.331 3.02 7-.531c6.455-.489 6.85-.409 5.073 1.028-1.06.858-1.655 1.832-1.322 2.165s1.365-.282 2.293-1.366c1.001-1.168 2.456-1.77 3.572-1.478 1.036.271 1.884.038 1.884-.517 0-1.394-2.915-2.386-5.035-1.713-1.251.397-1.713.045-1.61-1.227.258-3.177-4.737-2.814-8.524.619m-304.109-1.292c-1.88 1.881 1.899 2.386 17.587 2.35 15.031-.034 16.814-.203 14.191-1.345-3.167-1.379-30.539-2.244-31.778-1.005m291.278.267c0 2.338 2.576 2.887 4.861 1.035l2.361-1.913h-3.611c-1.986 0-3.611.395-3.611.878M512.5 1016c-1.184.509 9.298.888 25.691.93 17.459.044 27.919-.299 28.309-.93.774-1.252-51.087-1.252-54 0m56.985 2.094c-.641.889-.82 7.478-.486 17.906.321 10.041.83 15.521 1.301 14 1.186-3.838.426-33.626-.815-31.906M440 1037.5v17.515l62.25-.257 62.25-.258v-34l-62.25-.258-62.25-.257zm302.25-16.794c-2.927.564-2.849 1.635.24 3.289 2.172 1.162 2.747 1.1 4.5-.486 3.566-3.227 2.065-4.114-4.74-2.803m16.25.229c-6.399 1.558-16.223 7.742-14.707 9.258.597.597 2.759-.166 5.838-2.061 2.69-1.655 7.466-3.802 10.614-4.771 7.322-2.255 5.867-4.279-1.745-2.426m-121.891 21.085c-.885 2.211-1.609 6.058-1.609 8.548 0 8.698 6.728 11.46 34.016 13.964 8.893.816 21.154 2.719 28.125 4.367 20.736 4.899 26.794 5.557 50.859 5.528 30.347-.037 53.532-4.308 61.002-11.237 3.151-2.922 4.898-10.415 3.072-13.175-1.614-2.439-8.944.643-11.857 4.985-4.568 6.81-12.857 8.911-38.265 9.696-29.382.909-47.48-1.576-66.067-9.069-12.751-5.14-20.369-7.268-30.885-8.627-11.45-1.479-20.788-4.222-23.741-6.973-2.843-2.649-2.783-2.675-4.65 1.993m-197.215 79.396c-.299.778-.397 2.691-.219 4.25l.325 2.834 231.238.252 231.238.252-2.187-4.502-2.188-4.502H668.769c-196.414 0-228.909.201-229.375 1.416m.093 11.757c-.297.774-.416 8.589-.263 17.367l.276 15.96 5.135-.332c4.182-.27 5.495.055 7.076 1.753l1.942 2.083 224.923-.252 224.924-.252.274-17.426c.151-9.584-.074-17.749-.5-18.145-1.649-1.535-463.199-2.287-463.787-.756m-75.453 32.004c-2.737 4.488-2.599 4.809 1.515 3.547 2.968-.911 3.5-1.497 3.25-3.58-.447-3.722-2.485-3.708-4.765.033m1.188 6.056c-5.87 2.828-1.345 3.268 36.269 3.529 34.134.237 38.004.1 39.667-1.405 1.013-.917 1.842-2.047 1.842-2.512 0-1.615-3.566-.833-5.268 1.155-1.645 1.921-2.95 2-33.087 2-29.861 0-31.498-.097-33.918-2-1.398-1.1-2.696-1.97-2.885-1.932-.188.037-1.367.561-2.62 1.165m81.125 1.286c-1.866 2.615-2.081 3.93-1.607 9.836l.548 6.818 1.903-3.006c1.494-2.359 1.84-4.48 1.607-9.837l-.298-6.83zm460.232-.647c-.489.792-8.79 1.132-27.888 1.142-14.955.007-28.221.289-29.481.627-2.167.58-2.274 1.022-2 8.236l.29 7.623h61l.292-7.763c.287-7.602-.752-12.229-2.213-9.865M361.211 1184.5l.289 7h79v-13l-39.789-.5-39.79-.5z"/></svg>